M48
;GenerationSoftware,Autodesk,EAGLE,9.6.2*%
;CreationDate,2022-11-16T23:55:14Z*%
FMAT,2
ICI,OFF
METRIC,TZ,000.000
T9C0.350
T8C0.450
T7C0.813
T6C1.000
T5C1.016
T4C1.500
T3C1.600
T2C1.750
T1C1.800
%
G90
M71
T1
X9975Y67180
X15425Y67180
T2
X57520Y7420
X60960Y26870
X66410Y26870
X25030Y7820
X30480Y7820
X35930Y7820
X36460Y26870
X41910Y26870
X55510Y26870
X52070Y7420
X46620Y7420
X79110Y7420
X73660Y7420
X68210Y7420
X88000Y26470
X47360Y26870
X82550Y26470
X77100Y26470
T3
X77470Y57150
X90170Y57150
X77470Y41910
X90170Y41910
X77470Y49530
X90170Y49530
T4
X10275Y64150
X15125Y64150
T5
X55880Y73660
X63500Y73660
X60960Y73660
X53340Y73660
X73660Y73660
X71120Y73660
X68580Y73660
T6
X21590Y26670
X3810Y67310
X3810Y64770
X3810Y52070
X3810Y49530
X3810Y62230
X3810Y59690
X3810Y54610
X3810Y57150
X3810Y46990
X3810Y44450
X3810Y41910
X3810Y39370
X3810Y36830
X3810Y34290
X3810Y31750
X3810Y29210
X3810Y26670
X3810Y24130
X3810Y21590
X3810Y19050
X21590Y19050
X21590Y21590
X21590Y24130
X21590Y29210
X21590Y31750
X21590Y34290
X21590Y36830
X21590Y39370
X21590Y41910
X21590Y44450
X21590Y46990
X21590Y49530
X21590Y52070
X21590Y54610
X21590Y57150
X21590Y59690
X21590Y62230
X21590Y64770
X21590Y67310
X10160Y19280
X12700Y19280
X15240Y19280
T7
X82550Y72390
X46990Y73660
X36830Y73660
X33020Y73660
X33020Y63500
X81280Y77470
X91440Y77470
X90170Y72390
X90170Y62230
X82550Y62230
X60960Y46990
X60960Y49530
X60960Y52070
X60960Y54610
X60960Y57150
X60960Y59690
T8
X39370Y53340
X40640Y59690
X38100Y39370
X31750Y46990
T9
X54610Y46990
X57150Y45720
X58420Y40640
X57150Y38100
X52070Y20320
X53340Y13970
X57150Y48260
X72390Y71120
X57150Y58420
X59690Y44450
X54610Y53340
X54610Y43180
X55890Y41900
X72390Y20320
X71120Y13970
X54610Y48260
X57150Y46990
X50800Y19050
X52070Y13970
X54610Y49530
X34290Y57150
X41910Y49530
X29210Y48260
X52070Y64770
X58420Y71120
X39370Y55880
X41910Y59690
X63500Y58420
X63500Y55880
X63500Y62230
X77470Y17780
X26670Y63500
X30480Y49530
X68580Y50800
X31750Y48260
X41910Y44450
X57150Y39370
X54610Y44450
X62230Y5080
X80010Y17780
X83820Y19050
X86360Y19050
X29210Y26670
X29210Y19050
X48260Y40640
X50800Y40640
X55880Y49530
X57150Y50800
X33020Y50800
X74930Y15240
X77470Y13970
X66040Y60960
X64770Y58420
X45720Y16510
X45720Y19050
X57150Y2664
X96520Y44450
X68580Y48260
M30