G04 EAGLE Gerber RS-274X export*
G75*
%MOMM*%
%FSLAX34Y34*%
%LPD*%
%INBottom Copper*%
%IPPOS*%
%AMOC8*
5,1,8,0,0,1.08239X$1,22.5*%
G01*
%ADD10P,1.583577X8X292.500000*%
%ADD11R,2.880000X2.880000*%
%ADD12C,1.828800*%
%ADD13R,3.150000X3.150000*%
%ADD14C,3.150000*%
%ADD15P,1.583577X8X202.500000*%
%ADD16P,1.583577X8X22.500000*%
%ADD17C,1.800000*%
%ADD18C,0.502400*%
%ADD19C,0.203200*%
%ADD20C,0.602400*%


D10*
X609600Y596900D03*
X609600Y571500D03*
X609600Y546100D03*
X609600Y520700D03*
X609600Y495300D03*
X609600Y469900D03*
D11*
X774700Y571500D03*
X901700Y571500D03*
X774700Y419100D03*
X901700Y419100D03*
X774700Y495300D03*
X901700Y495300D03*
D12*
X533400Y727456D02*
X533400Y745744D01*
X558800Y745744D02*
X558800Y727456D01*
X609600Y727456D02*
X609600Y745744D01*
X635000Y745744D02*
X635000Y727456D01*
X685800Y727456D02*
X685800Y745744D01*
X711200Y745744D02*
X711200Y727456D01*
X736600Y727456D02*
X736600Y745744D01*
D13*
X771000Y264700D03*
D14*
X825500Y264700D03*
X880000Y264700D03*
D13*
X682100Y74200D03*
D14*
X736600Y74200D03*
X791100Y74200D03*
D13*
X466200Y74200D03*
D14*
X520700Y74200D03*
X575200Y74200D03*
D13*
X664100Y268700D03*
D14*
X609600Y268700D03*
X555100Y268700D03*
D13*
X473600Y268700D03*
D14*
X419100Y268700D03*
X364600Y268700D03*
D13*
X359300Y78200D03*
D14*
X304800Y78200D03*
X250300Y78200D03*
D15*
X469900Y736600D03*
X368300Y736600D03*
D10*
X330200Y736600D03*
X330200Y635000D03*
D16*
X812800Y774700D03*
X914400Y774700D03*
D10*
X901700Y723900D03*
X901700Y622300D03*
X825500Y723900D03*
X825500Y622300D03*
D17*
X38100Y673100D03*
X38100Y647700D03*
X38100Y520700D03*
X38100Y495300D03*
X38100Y622300D03*
X38100Y596900D03*
X38100Y546100D03*
X38100Y571500D03*
X38100Y469900D03*
X38100Y444500D03*
X38100Y419100D03*
X38100Y393700D03*
X38100Y368300D03*
X38100Y342900D03*
X38100Y317500D03*
X38100Y292100D03*
X38100Y266700D03*
X38100Y241300D03*
X38100Y215900D03*
X38100Y190500D03*
X215900Y190500D03*
X215900Y215900D03*
X215900Y241300D03*
X215900Y266700D03*
X215900Y292100D03*
X215900Y317500D03*
X215900Y342900D03*
X215900Y368300D03*
X215900Y393700D03*
X215900Y419100D03*
X215900Y444500D03*
X215900Y469900D03*
X215900Y495300D03*
X215900Y520700D03*
X215900Y546100D03*
X215900Y571500D03*
X215900Y596900D03*
X215900Y622300D03*
X215900Y647700D03*
X215900Y673100D03*
X101600Y192800D03*
X127000Y192800D03*
X152400Y192800D03*
D18*
X635000Y584200D03*
D19*
X635000Y622300D01*
D18*
X635000Y622300D03*
X774700Y177800D03*
D19*
X800100Y177800D01*
D18*
X800100Y177800D03*
X838200Y190500D03*
D19*
X863600Y190500D01*
D18*
X863600Y190500D03*
D19*
X635000Y294100D02*
X609600Y268700D01*
X635000Y294100D02*
X635000Y546100D01*
X609600Y571500D01*
D18*
X292100Y266700D03*
D19*
X292100Y190500D01*
D18*
X292100Y190500D03*
X482600Y406400D03*
D19*
X508000Y406400D01*
D18*
X508000Y406400D03*
X558800Y495300D03*
D19*
X571500Y508000D01*
D18*
X571500Y508000D03*
X749300Y152400D03*
D19*
X762000Y152400D01*
X774700Y139700D01*
D18*
X774700Y139700D03*
X660400Y609600D03*
D19*
X647700Y596900D01*
X647700Y584200D01*
D18*
X647700Y584200D03*
X457200Y165100D03*
D19*
X457200Y190500D01*
D18*
X457200Y190500D03*
X571500Y26642D03*
D19*
X598142Y26642D01*
X622300Y50800D01*
D18*
X622300Y50800D03*
X546100Y469900D03*
D19*
X558800Y469900D01*
X571500Y457200D01*
D18*
X571500Y457200D03*
X584200Y406400D03*
D19*
X584200Y393700D01*
X571500Y381000D01*
D18*
X571500Y381000D03*
X520700Y203200D03*
D19*
X533400Y190500D01*
X533400Y139700D01*
D18*
X533400Y139700D03*
X571500Y482600D03*
D19*
X577568Y505487D02*
X577568Y510514D01*
X571500Y499419D02*
X571500Y482600D01*
X571500Y516582D02*
X571500Y571500D01*
X577568Y505487D02*
X571500Y499419D01*
X577568Y510514D02*
X571500Y516582D01*
X571500Y571500D02*
X558800Y584200D01*
X558800Y596900D01*
X622300Y660400D01*
X673100Y660400D01*
X723900Y711200D01*
D18*
X723900Y711200D03*
X571500Y584200D03*
D19*
X584200Y571500D01*
X584200Y457200D02*
X596900Y444500D01*
D18*
X596900Y444500D03*
D19*
X584200Y457200D02*
X584200Y571500D01*
D18*
X546100Y533400D03*
D19*
X546100Y495300D01*
D18*
X546100Y495300D03*
X546100Y431800D03*
D19*
X558896Y419004D01*
D18*
X558896Y419004D03*
X723900Y203200D03*
D19*
X723900Y152400D01*
X711200Y139700D01*
D18*
X711200Y139700D03*
X546100Y482600D03*
D19*
X558800Y482600D01*
X571500Y469900D01*
D18*
X571500Y469900D03*
X508000Y190500D03*
D19*
X520700Y177800D01*
X520700Y139700D01*
D18*
X520700Y139700D03*
D19*
X635000Y571500D02*
X774700Y571500D01*
X635000Y571500D02*
X609600Y596900D01*
D18*
X635000Y558800D03*
D19*
X660400Y558800D01*
X774700Y444500D01*
X774700Y419100D01*
D18*
X342900Y571500D03*
D19*
X419100Y495300D01*
D18*
X419100Y495300D03*
X292100Y482600D03*
X330200Y508000D03*
D19*
X304800Y482600D02*
X292100Y482600D01*
X304800Y482600D02*
X330200Y508000D01*
D18*
X546100Y444500D03*
D19*
X571500Y419100D01*
X571500Y393700D01*
D18*
X571500Y393700D03*
X419100Y444500D03*
D19*
X324132Y475968D02*
X317500Y482600D01*
X324132Y475968D02*
X332714Y475968D01*
X364182Y444500D02*
X419100Y444500D01*
X364182Y444500D02*
X332714Y475968D01*
D18*
X317500Y482600D03*
X304800Y495300D03*
D19*
X266700Y533400D01*
X266700Y635000D01*
D18*
X266700Y635000D03*
D20*
X317500Y469900D03*
D19*
X292100Y444500D01*
X292100Y431800D01*
X330200Y393700D02*
X381000Y393700D01*
D20*
X381000Y393700D03*
D19*
X330200Y393700D02*
X292100Y431800D01*
D20*
X393700Y533400D03*
X406400Y596900D03*
D19*
X388902Y560787D02*
X388902Y556813D01*
X406400Y578285D02*
X406400Y596900D01*
X406400Y578285D02*
X388902Y560787D01*
X388902Y556813D02*
X393700Y552015D01*
X393700Y533400D01*
X419100Y584200D02*
X419100Y596900D01*
D18*
X419100Y596900D03*
X393700Y558800D03*
D19*
X419100Y584200D01*
D18*
X584200Y711200D03*
D19*
X520700Y647700D01*
D18*
X520700Y647700D03*
X685800Y508000D03*
D19*
X685800Y482600D01*
D18*
X685800Y482600D03*
D19*
X901700Y622300D02*
X927100Y622300D01*
X965200Y584200D01*
X965200Y444500D01*
D18*
X965200Y444500D03*
D19*
X863600Y622300D02*
X825500Y622300D01*
X863600Y622300D02*
X876300Y609600D01*
X927100Y609600D01*
X952500Y584200D01*
X952500Y520700D01*
X927100Y495300D01*
X901700Y495300D01*
M02*
