G04 EAGLE Gerber RS-274X export*
G75*
%MOMM*%
%FSLAX34Y34*%
%LPD*%
%INTop Copper*%
%IPPOS*%
%AMOC8*
5,1,8,0,0,1.08239X$1,22.5*%
G01*
%ADD10P,1.583577X8X292.500000*%
%ADD11R,1.200000X1.000000*%
%ADD12R,2.880000X2.880000*%
%ADD13R,1.890000X0.650000*%
%ADD14C,1.828800*%
%ADD15R,3.150000X3.150000*%
%ADD16C,3.150000*%
%ADD17P,1.583577X8X202.500000*%
%ADD18R,1.000000X1.100000*%
%ADD19P,1.583577X8X22.500000*%
%ADD20C,1.800000*%
%ADD21C,0.203200*%
%ADD22C,0.502400*%
%ADD23C,0.602400*%


D10*
X609600Y596900D03*
X609600Y571500D03*
X609600Y546100D03*
X609600Y520700D03*
X609600Y495300D03*
X609600Y469900D03*
D11*
X381000Y599600D03*
X381000Y619600D03*
X393700Y429100D03*
X393700Y409100D03*
X342900Y505300D03*
X342900Y485300D03*
D12*
X774700Y571500D03*
X901700Y571500D03*
X774700Y419100D03*
X901700Y419100D03*
X774700Y495300D03*
X901700Y495300D03*
D13*
X435800Y603250D03*
X435800Y590550D03*
X435800Y577850D03*
X435800Y565150D03*
X435800Y552450D03*
X435800Y539750D03*
X435800Y527050D03*
X435800Y514350D03*
X435800Y501650D03*
X435800Y488950D03*
X435800Y476250D03*
X435800Y463550D03*
X435800Y450850D03*
X435800Y438150D03*
X529400Y438150D03*
X529400Y450850D03*
X529400Y463550D03*
X529400Y476250D03*
X529400Y488950D03*
X529400Y501650D03*
X529400Y514350D03*
X529400Y527050D03*
X529400Y539750D03*
X529400Y552450D03*
X529400Y565150D03*
X529400Y577850D03*
X529400Y590550D03*
X529400Y603250D03*
D14*
X533400Y727456D02*
X533400Y745744D01*
X558800Y745744D02*
X558800Y727456D01*
X609600Y727456D02*
X609600Y745744D01*
X635000Y745744D02*
X635000Y727456D01*
X685800Y727456D02*
X685800Y745744D01*
X711200Y745744D02*
X711200Y727456D01*
X736600Y727456D02*
X736600Y745744D01*
D15*
X771000Y264700D03*
D16*
X825500Y264700D03*
X880000Y264700D03*
D15*
X682100Y74200D03*
D16*
X736600Y74200D03*
X791100Y74200D03*
D15*
X466200Y74200D03*
D16*
X520700Y74200D03*
X575200Y74200D03*
D15*
X664100Y268700D03*
D16*
X609600Y268700D03*
X555100Y268700D03*
D15*
X473600Y268700D03*
D16*
X419100Y268700D03*
X364600Y268700D03*
D15*
X359300Y78200D03*
D16*
X304800Y78200D03*
X250300Y78200D03*
D17*
X469900Y736600D03*
X368300Y736600D03*
D18*
X482600Y351400D03*
X482600Y334400D03*
X469900Y135500D03*
X469900Y118500D03*
D10*
X330200Y736600D03*
X330200Y635000D03*
D19*
X812800Y774700D03*
X914400Y774700D03*
D10*
X901700Y723900D03*
X901700Y622300D03*
X825500Y723900D03*
X825500Y622300D03*
D18*
X762000Y338700D03*
X762000Y321700D03*
X596900Y351400D03*
X596900Y334400D03*
X368300Y135500D03*
X368300Y118500D03*
X685800Y135500D03*
X685800Y118500D03*
D20*
X38100Y673100D03*
X38100Y647700D03*
X38100Y520700D03*
X38100Y495300D03*
X38100Y622300D03*
X38100Y596900D03*
X38100Y546100D03*
X38100Y571500D03*
X38100Y469900D03*
X38100Y444500D03*
X38100Y419100D03*
X38100Y393700D03*
X38100Y368300D03*
X38100Y342900D03*
X38100Y317500D03*
X38100Y292100D03*
X38100Y266700D03*
X38100Y241300D03*
X38100Y215900D03*
X38100Y190500D03*
X215900Y190500D03*
X215900Y215900D03*
X215900Y241300D03*
X215900Y266700D03*
X215900Y292100D03*
X215900Y317500D03*
X215900Y342900D03*
X215900Y368300D03*
X215900Y393700D03*
X215900Y419100D03*
X215900Y444500D03*
X215900Y469900D03*
X215900Y495300D03*
X215900Y520700D03*
X215900Y546100D03*
X215900Y571500D03*
X215900Y596900D03*
X215900Y622300D03*
X215900Y647700D03*
X215900Y673100D03*
X101600Y192800D03*
X127000Y192800D03*
X152400Y192800D03*
D21*
X529400Y577850D02*
X603250Y577850D01*
X609600Y571500D01*
X609600Y268700D02*
X700500Y177800D01*
X622300Y571500D02*
X635000Y584200D01*
X622300Y571500D02*
X609600Y571500D01*
D22*
X635000Y584200D03*
X635000Y622300D03*
D21*
X647700Y635000D02*
X647700Y719230D01*
X647700Y635000D02*
X635000Y622300D01*
X665070Y736600D02*
X685800Y736600D01*
X665070Y736600D02*
X647700Y719230D01*
D22*
X774700Y177800D03*
X800100Y177800D03*
D21*
X812800Y190500D01*
X838200Y190500D01*
D22*
X838200Y190500D03*
X863600Y190500D03*
D21*
X880000Y206900D01*
X880000Y264700D01*
X774700Y177800D02*
X700500Y177800D01*
X482600Y277700D02*
X482600Y334400D01*
X482600Y277700D02*
X473600Y268700D01*
D22*
X292100Y266700D03*
X292100Y190500D03*
D21*
X347100Y135500D01*
X368300Y135500D01*
X435800Y410400D02*
X435800Y438150D01*
X435800Y410400D02*
X292100Y266700D01*
X469900Y118500D02*
X469900Y77900D01*
X466200Y74200D01*
X685800Y77900D02*
X685800Y118500D01*
X685800Y77900D02*
X682100Y74200D01*
X603250Y527050D02*
X529400Y527050D01*
X603250Y527050D02*
X609600Y520700D01*
D22*
X482600Y406400D03*
X508000Y406400D03*
D21*
X520700Y419100D01*
X546100Y419100D01*
X558800Y431800D01*
X558800Y495300D01*
D22*
X558800Y495300D03*
X571500Y508000D03*
D21*
X596900Y508000D02*
X609600Y520700D01*
X596900Y508000D02*
X571500Y508000D01*
X469900Y152400D02*
X749300Y152400D01*
D22*
X749300Y152400D03*
X774700Y139700D03*
D21*
X791100Y123300D01*
X791100Y74200D01*
X711200Y660400D02*
X711200Y736600D01*
X711200Y660400D02*
X660400Y609600D01*
D22*
X660400Y609600D03*
X647700Y584200D03*
D21*
X647700Y558800D01*
X609600Y520700D01*
X457200Y165100D02*
X469900Y152400D01*
D22*
X457200Y165100D03*
X457200Y190500D03*
D21*
X419100Y228600D01*
X419100Y268700D01*
X419100Y342900D01*
X482600Y406400D01*
X304800Y78200D02*
X357600Y25400D01*
X571500Y25400D02*
X571500Y26642D01*
D22*
X571500Y26642D03*
X622300Y50800D03*
D21*
X598900Y74200D01*
X575200Y74200D01*
X571500Y25400D02*
X357600Y25400D01*
X529400Y476250D02*
X539750Y476250D01*
X546100Y469900D01*
D22*
X546100Y469900D03*
X571500Y457200D03*
D21*
X596900Y457200D02*
X609600Y469900D01*
X596900Y457200D02*
X571500Y457200D01*
X584200Y444500D01*
X584200Y406400D01*
D22*
X584200Y406400D03*
X571500Y381000D03*
D21*
X508000Y317500D01*
X508000Y279400D02*
X520700Y266700D01*
X520700Y203200D01*
D22*
X520700Y203200D03*
X533400Y139700D03*
D21*
X575200Y97900D01*
X575200Y74200D01*
X508000Y279400D02*
X508000Y317500D01*
X584200Y469900D02*
X609600Y469900D01*
X584200Y469900D02*
X571500Y482600D01*
D22*
X571500Y482600D03*
X723900Y711200D03*
D21*
X736600Y723900D02*
X736600Y736600D01*
X736600Y723900D02*
X723900Y711200D01*
X535750Y584200D02*
X529400Y590550D01*
X535750Y584200D02*
X571500Y584200D01*
D22*
X571500Y584200D03*
X596900Y444500D03*
D21*
X702700Y338700D02*
X762000Y338700D01*
X702700Y338700D02*
X596900Y444500D01*
X762000Y321700D02*
X771000Y312700D01*
X771000Y264700D01*
X535750Y533400D02*
X529400Y539750D01*
X535750Y533400D02*
X546100Y533400D01*
D22*
X546100Y533400D03*
X546100Y495300D03*
D21*
X546100Y491182D01*
X552168Y485114D01*
X552168Y437868D01*
X546100Y431800D01*
D22*
X546100Y431800D03*
X558896Y419004D03*
D21*
X723900Y254000D01*
X723900Y203200D01*
D22*
X723900Y203200D03*
X711200Y139700D03*
D21*
X690000Y139700D02*
X685800Y135500D01*
X690000Y139700D02*
X711200Y139700D01*
X535750Y482600D02*
X529400Y488950D01*
X535750Y482600D02*
X546100Y482600D01*
D22*
X546100Y482600D03*
X571500Y469900D03*
D21*
X571500Y465782D01*
X495300Y381000D02*
X495300Y279400D01*
X508000Y266700D01*
X508000Y190500D01*
D22*
X508000Y190500D03*
X520700Y139700D03*
D21*
X508000Y127000D01*
X478400Y127000D01*
X469900Y135500D01*
X562102Y430432D02*
X562102Y456384D01*
X571500Y465782D01*
X562102Y430432D02*
X547468Y415798D01*
X530098Y415798D02*
X495300Y381000D01*
X530098Y415798D02*
X547468Y415798D01*
X368300Y118500D02*
X368300Y87200D01*
X359300Y78200D01*
X510350Y419100D02*
X529400Y438150D01*
X510350Y419100D02*
X495300Y419100D01*
X488668Y412468D01*
X488668Y403887D01*
X482600Y397819D01*
X482600Y351400D01*
X535750Y596900D02*
X529400Y603250D01*
X535750Y596900D02*
X609600Y596900D01*
X603250Y552450D02*
X529400Y552450D01*
X603250Y552450D02*
X609600Y546100D01*
X622300Y546100D01*
X635000Y558800D01*
D22*
X635000Y558800D03*
D21*
X603250Y501650D02*
X529400Y501650D01*
X603250Y501650D02*
X609600Y495300D01*
X774700Y495300D01*
D22*
X342900Y571500D03*
D21*
X338740Y626460D02*
X330200Y635000D01*
X375252Y593852D02*
X381000Y599600D01*
X375252Y593852D02*
X373282Y593852D01*
X350930Y571500D01*
X342900Y571500D01*
D22*
X419100Y495300D03*
D21*
X429450Y495300D01*
X435800Y501650D01*
X342900Y571500D02*
X338740Y575660D01*
X338740Y626460D01*
X393700Y444500D02*
X393700Y429100D01*
X393700Y444500D02*
X425450Y476250D01*
X435800Y476250D01*
X435800Y577850D02*
X387350Y577850D01*
X310868Y501368D01*
X302287Y501368D01*
X296219Y495300D01*
X241300Y495300D02*
X215900Y469900D01*
X241300Y495300D02*
X296219Y495300D01*
X254000Y482600D02*
X215900Y444500D01*
X254000Y482600D02*
X292100Y482600D01*
D22*
X292100Y482600D03*
X330200Y508000D03*
D21*
X387350Y565150D02*
X435800Y565150D01*
X387350Y565150D02*
X330200Y508000D01*
X279400Y457200D02*
X215900Y393700D01*
X425450Y552450D02*
X435800Y552450D01*
X330200Y457200D02*
X279400Y457200D01*
X330200Y457200D02*
X425450Y552450D01*
X425450Y539750D02*
X435800Y539750D01*
X425450Y539750D02*
X228600Y342900D01*
X215900Y342900D01*
X215900Y317500D02*
X425450Y527050D01*
X435800Y527050D01*
X529400Y450850D02*
X535750Y444500D01*
X546100Y444500D01*
D22*
X546100Y444500D03*
X571500Y393700D03*
D21*
X596900Y368300D01*
X596900Y351400D01*
X598400Y334400D02*
X664100Y268700D01*
X598400Y334400D02*
X596900Y334400D01*
X368300Y736600D02*
X330200Y736600D01*
X435800Y450850D02*
X428636Y443686D01*
X425403Y443686D01*
X409702Y427985D01*
X364600Y268700D02*
X324500Y228600D01*
X311800Y215900D02*
X364600Y268700D01*
X311800Y215900D02*
X304800Y215900D01*
X250300Y161400D02*
X250300Y78200D01*
X250300Y161400D02*
X304800Y215900D01*
X364600Y268700D02*
X455500Y177800D01*
X429450Y444500D02*
X435800Y450850D01*
X429450Y444500D02*
X419100Y444500D01*
D22*
X419100Y444500D03*
X317500Y482600D03*
D21*
X304800Y495300D01*
D22*
X304800Y495300D03*
X266700Y635000D03*
D21*
X266700Y711200D01*
X292100Y736600D01*
X330200Y736600D01*
X409702Y427985D02*
X409702Y392884D01*
X283519Y266700D01*
X283519Y249882D01*
X304800Y228600D01*
X324500Y228600D01*
X555100Y224900D02*
X555100Y268700D01*
X508000Y177800D02*
X455500Y177800D01*
X508000Y177800D02*
X555100Y224900D01*
X469900Y736600D02*
X495300Y762000D01*
X546100Y762000D01*
X405050Y420450D02*
X393700Y409100D01*
X405050Y420450D02*
X405050Y443150D01*
X425450Y463550D02*
X435800Y463550D01*
X425450Y463550D02*
X405050Y443150D01*
X345600Y485300D02*
X342900Y485300D01*
X635000Y711200D02*
X635000Y736600D01*
X635000Y711200D02*
X622300Y698500D01*
X584200Y698500D01*
X558800Y723900D01*
X558800Y736600D01*
X558800Y749300D02*
X546100Y762000D01*
X558800Y749300D02*
X558800Y736600D01*
X379650Y620950D02*
X378300Y622300D01*
X379650Y620950D02*
X381000Y619600D01*
X469900Y698500D02*
X469900Y736600D01*
X392350Y620950D02*
X379650Y620950D01*
X393700Y622300D02*
X469900Y698500D01*
X393700Y622300D02*
X392350Y620950D01*
X393700Y409100D02*
X393700Y406400D01*
X327500Y469900D02*
X342900Y485300D01*
X327500Y469900D02*
X317500Y469900D01*
D23*
X317500Y469900D03*
X381000Y393700D03*
D21*
X381000Y396400D01*
X393700Y409100D01*
X342900Y485300D02*
X391000Y533400D01*
X393700Y533400D01*
D23*
X393700Y533400D03*
D21*
X393700Y609600D02*
X393700Y622300D01*
X393700Y609600D02*
X406400Y596900D01*
D23*
X406400Y596900D03*
D21*
X254000Y328645D02*
X217455Y292100D01*
X215900Y292100D01*
X425450Y514350D02*
X435800Y514350D01*
X254000Y342900D02*
X254000Y328645D01*
X254000Y342900D02*
X425450Y514350D01*
X425450Y488950D02*
X435800Y488950D01*
X425450Y488950D02*
X266700Y330200D01*
X266700Y317500D02*
X215900Y266700D01*
X266700Y317500D02*
X266700Y330200D01*
X215900Y520700D02*
X254000Y558800D01*
X374650Y590550D02*
X435800Y590550D01*
X342900Y558800D02*
X254000Y558800D01*
X342900Y558800D02*
X374650Y590550D01*
X419100Y635000D02*
X508000Y635000D01*
X419100Y635000D02*
X400050Y615950D01*
X412750Y603250D01*
X425450Y603250D01*
X431800Y603250D02*
X435800Y603250D01*
X825500Y723900D02*
X901700Y723900D01*
X825500Y723900D02*
X812800Y736600D01*
X812800Y774700D01*
X368300Y530700D02*
X342900Y505300D01*
X368300Y530700D02*
X368300Y533400D01*
D22*
X419100Y596900D03*
D21*
X425450Y603250D01*
X431800Y603250D01*
X609600Y736600D02*
X647700Y774700D01*
X812800Y774700D01*
X393700Y558800D02*
X368300Y533400D01*
D22*
X393700Y558800D03*
D21*
X584200Y711200D02*
X609600Y736600D01*
D22*
X584200Y711200D03*
X520700Y647700D03*
D21*
X508000Y635000D01*
X520700Y74200D02*
X556800Y38100D01*
X700500Y38100D02*
X736600Y74200D01*
X700500Y38100D02*
X556800Y38100D01*
X736600Y74200D02*
X736600Y114300D01*
X787400Y226600D02*
X825500Y264700D01*
X787400Y165100D02*
X736600Y114300D01*
X787400Y165100D02*
X787400Y226600D01*
X533400Y698500D02*
X533400Y736600D01*
X533400Y698500D02*
X635000Y596900D01*
X660400Y596900D01*
X685800Y571500D01*
X685800Y508000D01*
D22*
X685800Y508000D03*
X685800Y482600D03*
D21*
X685800Y393700D01*
X723900Y355600D01*
X800100Y355600D01*
X825500Y330200D01*
X825500Y264700D01*
X927100Y762000D02*
X914400Y774700D01*
X927100Y596900D02*
X901700Y571500D01*
X927100Y596900D02*
X927100Y762000D01*
D22*
X965200Y444500D03*
D21*
X939800Y419100D01*
X901700Y419100D01*
M02*
