G04 EAGLE Gerber RS-274X export*
G75*
%MOMM*%
%FSLAX34Y34*%
%LPD*%
%INSilkscreen Top*%
%IPPOS*%
%AMOC8*
5,1,8,0,0,1.08239X$1,22.5*%
G01*
%ADD10C,0.152400*%
%ADD11C,0.304800*%
%ADD12C,0.127000*%
%ADD13C,0.101600*%
%ADD14C,0.200000*%
%ADD15C,0.150000*%
%ADD16C,0.076200*%
%ADD17R,0.863600X0.609600*%
%ADD18R,0.609600X0.863600*%
%ADD19C,1.270000*%


D10*
X603250Y605790D02*
X615950Y605790D01*
X616090Y605788D01*
X616230Y605782D01*
X616370Y605773D01*
X616509Y605759D01*
X616648Y605742D01*
X616786Y605721D01*
X616924Y605696D01*
X617061Y605667D01*
X617197Y605635D01*
X617332Y605598D01*
X617466Y605558D01*
X617599Y605515D01*
X617731Y605467D01*
X617862Y605417D01*
X617991Y605362D01*
X618118Y605304D01*
X618244Y605243D01*
X618368Y605178D01*
X618490Y605109D01*
X618610Y605038D01*
X618728Y604963D01*
X618845Y604885D01*
X618959Y604803D01*
X619070Y604719D01*
X619179Y604631D01*
X619286Y604541D01*
X619391Y604447D01*
X619492Y604351D01*
X619591Y604252D01*
X619687Y604151D01*
X619781Y604046D01*
X619871Y603939D01*
X619959Y603830D01*
X620043Y603719D01*
X620125Y603605D01*
X620203Y603488D01*
X620278Y603370D01*
X620349Y603250D01*
X620418Y603128D01*
X620483Y603004D01*
X620544Y602878D01*
X620602Y602751D01*
X620657Y602622D01*
X620707Y602491D01*
X620755Y602359D01*
X620798Y602226D01*
X620838Y602092D01*
X620875Y601957D01*
X620907Y601821D01*
X620936Y601684D01*
X620961Y601546D01*
X620982Y601408D01*
X620999Y601269D01*
X621013Y601130D01*
X621022Y600990D01*
X621028Y600850D01*
X621030Y600710D01*
X603250Y605790D02*
X603110Y605788D01*
X602970Y605782D01*
X602830Y605773D01*
X602691Y605759D01*
X602552Y605742D01*
X602414Y605721D01*
X602276Y605696D01*
X602139Y605667D01*
X602003Y605635D01*
X601868Y605598D01*
X601734Y605558D01*
X601601Y605515D01*
X601469Y605467D01*
X601338Y605417D01*
X601209Y605362D01*
X601082Y605304D01*
X600956Y605243D01*
X600832Y605178D01*
X600710Y605109D01*
X600590Y605038D01*
X600472Y604963D01*
X600355Y604885D01*
X600241Y604803D01*
X600130Y604719D01*
X600021Y604631D01*
X599914Y604541D01*
X599809Y604447D01*
X599708Y604351D01*
X599609Y604252D01*
X599513Y604151D01*
X599419Y604046D01*
X599329Y603939D01*
X599241Y603830D01*
X599157Y603719D01*
X599075Y603605D01*
X598997Y603488D01*
X598922Y603370D01*
X598851Y603250D01*
X598782Y603128D01*
X598717Y603004D01*
X598656Y602878D01*
X598598Y602751D01*
X598543Y602622D01*
X598493Y602491D01*
X598445Y602359D01*
X598402Y602226D01*
X598362Y602092D01*
X598325Y601957D01*
X598293Y601821D01*
X598264Y601684D01*
X598239Y601546D01*
X598218Y601408D01*
X598201Y601269D01*
X598187Y601130D01*
X598178Y600990D01*
X598172Y600850D01*
X598170Y600710D01*
X621030Y600710D02*
X621030Y567690D01*
X615950Y562610D02*
X603250Y562610D01*
X598170Y567690D02*
X598170Y600710D01*
X621030Y567690D02*
X621028Y567550D01*
X621022Y567410D01*
X621013Y567270D01*
X620999Y567131D01*
X620982Y566992D01*
X620961Y566854D01*
X620936Y566716D01*
X620907Y566579D01*
X620875Y566443D01*
X620838Y566308D01*
X620798Y566174D01*
X620755Y566041D01*
X620707Y565909D01*
X620657Y565778D01*
X620602Y565649D01*
X620544Y565522D01*
X620483Y565396D01*
X620418Y565272D01*
X620349Y565150D01*
X620278Y565030D01*
X620203Y564912D01*
X620125Y564795D01*
X620043Y564681D01*
X619959Y564570D01*
X619871Y564461D01*
X619781Y564354D01*
X619687Y564249D01*
X619591Y564148D01*
X619492Y564049D01*
X619391Y563953D01*
X619286Y563859D01*
X619179Y563769D01*
X619070Y563681D01*
X618959Y563597D01*
X618845Y563515D01*
X618728Y563437D01*
X618610Y563362D01*
X618490Y563291D01*
X618368Y563222D01*
X618244Y563157D01*
X618118Y563096D01*
X617991Y563038D01*
X617862Y562983D01*
X617731Y562933D01*
X617599Y562885D01*
X617466Y562842D01*
X617332Y562802D01*
X617197Y562765D01*
X617061Y562733D01*
X616924Y562704D01*
X616786Y562679D01*
X616648Y562658D01*
X616509Y562641D01*
X616370Y562627D01*
X616230Y562618D01*
X616090Y562612D01*
X615950Y562610D01*
X603250Y562610D02*
X603110Y562612D01*
X602970Y562618D01*
X602830Y562627D01*
X602691Y562641D01*
X602552Y562658D01*
X602414Y562679D01*
X602276Y562704D01*
X602139Y562733D01*
X602003Y562765D01*
X601868Y562802D01*
X601734Y562842D01*
X601601Y562885D01*
X601469Y562933D01*
X601338Y562983D01*
X601209Y563038D01*
X601082Y563096D01*
X600956Y563157D01*
X600832Y563222D01*
X600710Y563291D01*
X600590Y563362D01*
X600472Y563437D01*
X600355Y563515D01*
X600241Y563597D01*
X600130Y563681D01*
X600021Y563769D01*
X599914Y563859D01*
X599809Y563953D01*
X599708Y564049D01*
X599609Y564148D01*
X599513Y564249D01*
X599419Y564354D01*
X599329Y564461D01*
X599241Y564570D01*
X599157Y564681D01*
X599075Y564795D01*
X598997Y564912D01*
X598922Y565030D01*
X598851Y565150D01*
X598782Y565272D01*
X598717Y565396D01*
X598656Y565522D01*
X598598Y565649D01*
X598543Y565778D01*
X598493Y565909D01*
X598445Y566041D01*
X598402Y566174D01*
X598362Y566308D01*
X598325Y566443D01*
X598293Y566579D01*
X598264Y566716D01*
X598239Y566854D01*
X598218Y566992D01*
X598201Y567131D01*
X598187Y567270D01*
X598178Y567410D01*
X598172Y567550D01*
X598170Y567690D01*
D11*
X601980Y587248D02*
X617220Y587248D01*
X617220Y580898D02*
X601980Y580898D01*
D12*
X636275Y597545D02*
X638182Y595638D01*
X636275Y597545D02*
X632462Y597545D01*
X630555Y595638D01*
X630555Y588012D01*
X632462Y586105D01*
X636275Y586105D01*
X638182Y588012D01*
X642249Y593732D02*
X646062Y597545D01*
X646062Y586105D01*
X642249Y586105D02*
X649875Y586105D01*
D10*
X628650Y554990D02*
X615950Y554990D01*
X628650Y554990D02*
X628790Y554988D01*
X628930Y554982D01*
X629070Y554973D01*
X629209Y554959D01*
X629348Y554942D01*
X629486Y554921D01*
X629624Y554896D01*
X629761Y554867D01*
X629897Y554835D01*
X630032Y554798D01*
X630166Y554758D01*
X630299Y554715D01*
X630431Y554667D01*
X630562Y554617D01*
X630691Y554562D01*
X630818Y554504D01*
X630944Y554443D01*
X631068Y554378D01*
X631190Y554309D01*
X631310Y554238D01*
X631428Y554163D01*
X631545Y554085D01*
X631659Y554003D01*
X631770Y553919D01*
X631879Y553831D01*
X631986Y553741D01*
X632091Y553647D01*
X632192Y553551D01*
X632291Y553452D01*
X632387Y553351D01*
X632481Y553246D01*
X632571Y553139D01*
X632659Y553030D01*
X632743Y552919D01*
X632825Y552805D01*
X632903Y552688D01*
X632978Y552570D01*
X633049Y552450D01*
X633118Y552328D01*
X633183Y552204D01*
X633244Y552078D01*
X633302Y551951D01*
X633357Y551822D01*
X633407Y551691D01*
X633455Y551559D01*
X633498Y551426D01*
X633538Y551292D01*
X633575Y551157D01*
X633607Y551021D01*
X633636Y550884D01*
X633661Y550746D01*
X633682Y550608D01*
X633699Y550469D01*
X633713Y550330D01*
X633722Y550190D01*
X633728Y550050D01*
X633730Y549910D01*
X615950Y554990D02*
X615810Y554988D01*
X615670Y554982D01*
X615530Y554973D01*
X615391Y554959D01*
X615252Y554942D01*
X615114Y554921D01*
X614976Y554896D01*
X614839Y554867D01*
X614703Y554835D01*
X614568Y554798D01*
X614434Y554758D01*
X614301Y554715D01*
X614169Y554667D01*
X614038Y554617D01*
X613909Y554562D01*
X613782Y554504D01*
X613656Y554443D01*
X613532Y554378D01*
X613410Y554309D01*
X613290Y554238D01*
X613172Y554163D01*
X613055Y554085D01*
X612941Y554003D01*
X612830Y553919D01*
X612721Y553831D01*
X612614Y553741D01*
X612509Y553647D01*
X612408Y553551D01*
X612309Y553452D01*
X612213Y553351D01*
X612119Y553246D01*
X612029Y553139D01*
X611941Y553030D01*
X611857Y552919D01*
X611775Y552805D01*
X611697Y552688D01*
X611622Y552570D01*
X611551Y552450D01*
X611482Y552328D01*
X611417Y552204D01*
X611356Y552078D01*
X611298Y551951D01*
X611243Y551822D01*
X611193Y551691D01*
X611145Y551559D01*
X611102Y551426D01*
X611062Y551292D01*
X611025Y551157D01*
X610993Y551021D01*
X610964Y550884D01*
X610939Y550746D01*
X610918Y550608D01*
X610901Y550469D01*
X610887Y550330D01*
X610878Y550190D01*
X610872Y550050D01*
X610870Y549910D01*
X633730Y549910D02*
X633730Y516890D01*
X628650Y511810D02*
X615950Y511810D01*
X610870Y516890D02*
X610870Y549910D01*
X633730Y516890D02*
X633728Y516750D01*
X633722Y516610D01*
X633713Y516470D01*
X633699Y516331D01*
X633682Y516192D01*
X633661Y516054D01*
X633636Y515916D01*
X633607Y515779D01*
X633575Y515643D01*
X633538Y515508D01*
X633498Y515374D01*
X633455Y515241D01*
X633407Y515109D01*
X633357Y514978D01*
X633302Y514849D01*
X633244Y514722D01*
X633183Y514596D01*
X633118Y514472D01*
X633049Y514350D01*
X632978Y514230D01*
X632903Y514112D01*
X632825Y513995D01*
X632743Y513881D01*
X632659Y513770D01*
X632571Y513661D01*
X632481Y513554D01*
X632387Y513449D01*
X632291Y513348D01*
X632192Y513249D01*
X632091Y513153D01*
X631986Y513059D01*
X631879Y512969D01*
X631770Y512881D01*
X631659Y512797D01*
X631545Y512715D01*
X631428Y512637D01*
X631310Y512562D01*
X631190Y512491D01*
X631068Y512422D01*
X630944Y512357D01*
X630818Y512296D01*
X630691Y512238D01*
X630562Y512183D01*
X630431Y512133D01*
X630299Y512085D01*
X630166Y512042D01*
X630032Y512002D01*
X629897Y511965D01*
X629761Y511933D01*
X629624Y511904D01*
X629486Y511879D01*
X629348Y511858D01*
X629209Y511841D01*
X629070Y511827D01*
X628930Y511818D01*
X628790Y511812D01*
X628650Y511810D01*
X615950Y511810D02*
X615810Y511812D01*
X615670Y511818D01*
X615530Y511827D01*
X615391Y511841D01*
X615252Y511858D01*
X615114Y511879D01*
X614976Y511904D01*
X614839Y511933D01*
X614703Y511965D01*
X614568Y512002D01*
X614434Y512042D01*
X614301Y512085D01*
X614169Y512133D01*
X614038Y512183D01*
X613909Y512238D01*
X613782Y512296D01*
X613656Y512357D01*
X613532Y512422D01*
X613410Y512491D01*
X613290Y512562D01*
X613172Y512637D01*
X613055Y512715D01*
X612941Y512797D01*
X612830Y512881D01*
X612721Y512969D01*
X612614Y513059D01*
X612509Y513153D01*
X612408Y513249D01*
X612309Y513348D01*
X612213Y513449D01*
X612119Y513554D01*
X612029Y513661D01*
X611941Y513770D01*
X611857Y513881D01*
X611775Y513995D01*
X611697Y514112D01*
X611622Y514230D01*
X611551Y514350D01*
X611482Y514472D01*
X611417Y514596D01*
X611356Y514722D01*
X611298Y514849D01*
X611243Y514978D01*
X611193Y515109D01*
X611145Y515241D01*
X611102Y515374D01*
X611062Y515508D01*
X611025Y515643D01*
X610993Y515779D01*
X610964Y515916D01*
X610939Y516054D01*
X610918Y516192D01*
X610901Y516331D01*
X610887Y516470D01*
X610878Y516610D01*
X610872Y516750D01*
X610870Y516890D01*
D11*
X614680Y536448D02*
X629920Y536448D01*
X629920Y530098D02*
X614680Y530098D01*
D12*
X648975Y546745D02*
X650882Y544838D01*
X648975Y546745D02*
X645162Y546745D01*
X643255Y544838D01*
X643255Y537212D01*
X645162Y535305D01*
X648975Y535305D01*
X650882Y537212D01*
X654949Y535305D02*
X662575Y535305D01*
X654949Y535305D02*
X662575Y542932D01*
X662575Y544838D01*
X660669Y546745D01*
X656856Y546745D01*
X654949Y544838D01*
D10*
X654050Y504190D02*
X641350Y504190D01*
X654050Y504190D02*
X654190Y504188D01*
X654330Y504182D01*
X654470Y504173D01*
X654609Y504159D01*
X654748Y504142D01*
X654886Y504121D01*
X655024Y504096D01*
X655161Y504067D01*
X655297Y504035D01*
X655432Y503998D01*
X655566Y503958D01*
X655699Y503915D01*
X655831Y503867D01*
X655962Y503817D01*
X656091Y503762D01*
X656218Y503704D01*
X656344Y503643D01*
X656468Y503578D01*
X656590Y503509D01*
X656710Y503438D01*
X656828Y503363D01*
X656945Y503285D01*
X657059Y503203D01*
X657170Y503119D01*
X657279Y503031D01*
X657386Y502941D01*
X657491Y502847D01*
X657592Y502751D01*
X657691Y502652D01*
X657787Y502551D01*
X657881Y502446D01*
X657971Y502339D01*
X658059Y502230D01*
X658143Y502119D01*
X658225Y502005D01*
X658303Y501888D01*
X658378Y501770D01*
X658449Y501650D01*
X658518Y501528D01*
X658583Y501404D01*
X658644Y501278D01*
X658702Y501151D01*
X658757Y501022D01*
X658807Y500891D01*
X658855Y500759D01*
X658898Y500626D01*
X658938Y500492D01*
X658975Y500357D01*
X659007Y500221D01*
X659036Y500084D01*
X659061Y499946D01*
X659082Y499808D01*
X659099Y499669D01*
X659113Y499530D01*
X659122Y499390D01*
X659128Y499250D01*
X659130Y499110D01*
X641350Y504190D02*
X641210Y504188D01*
X641070Y504182D01*
X640930Y504173D01*
X640791Y504159D01*
X640652Y504142D01*
X640514Y504121D01*
X640376Y504096D01*
X640239Y504067D01*
X640103Y504035D01*
X639968Y503998D01*
X639834Y503958D01*
X639701Y503915D01*
X639569Y503867D01*
X639438Y503817D01*
X639309Y503762D01*
X639182Y503704D01*
X639056Y503643D01*
X638932Y503578D01*
X638810Y503509D01*
X638690Y503438D01*
X638572Y503363D01*
X638455Y503285D01*
X638341Y503203D01*
X638230Y503119D01*
X638121Y503031D01*
X638014Y502941D01*
X637909Y502847D01*
X637808Y502751D01*
X637709Y502652D01*
X637613Y502551D01*
X637519Y502446D01*
X637429Y502339D01*
X637341Y502230D01*
X637257Y502119D01*
X637175Y502005D01*
X637097Y501888D01*
X637022Y501770D01*
X636951Y501650D01*
X636882Y501528D01*
X636817Y501404D01*
X636756Y501278D01*
X636698Y501151D01*
X636643Y501022D01*
X636593Y500891D01*
X636545Y500759D01*
X636502Y500626D01*
X636462Y500492D01*
X636425Y500357D01*
X636393Y500221D01*
X636364Y500084D01*
X636339Y499946D01*
X636318Y499808D01*
X636301Y499669D01*
X636287Y499530D01*
X636278Y499390D01*
X636272Y499250D01*
X636270Y499110D01*
X659130Y499110D02*
X659130Y466090D01*
X654050Y461010D02*
X641350Y461010D01*
X636270Y466090D02*
X636270Y499110D01*
X659130Y466090D02*
X659128Y465950D01*
X659122Y465810D01*
X659113Y465670D01*
X659099Y465531D01*
X659082Y465392D01*
X659061Y465254D01*
X659036Y465116D01*
X659007Y464979D01*
X658975Y464843D01*
X658938Y464708D01*
X658898Y464574D01*
X658855Y464441D01*
X658807Y464309D01*
X658757Y464178D01*
X658702Y464049D01*
X658644Y463922D01*
X658583Y463796D01*
X658518Y463672D01*
X658449Y463550D01*
X658378Y463430D01*
X658303Y463312D01*
X658225Y463195D01*
X658143Y463081D01*
X658059Y462970D01*
X657971Y462861D01*
X657881Y462754D01*
X657787Y462649D01*
X657691Y462548D01*
X657592Y462449D01*
X657491Y462353D01*
X657386Y462259D01*
X657279Y462169D01*
X657170Y462081D01*
X657059Y461997D01*
X656945Y461915D01*
X656828Y461837D01*
X656710Y461762D01*
X656590Y461691D01*
X656468Y461622D01*
X656344Y461557D01*
X656218Y461496D01*
X656091Y461438D01*
X655962Y461383D01*
X655831Y461333D01*
X655699Y461285D01*
X655566Y461242D01*
X655432Y461202D01*
X655297Y461165D01*
X655161Y461133D01*
X655024Y461104D01*
X654886Y461079D01*
X654748Y461058D01*
X654609Y461041D01*
X654470Y461027D01*
X654330Y461018D01*
X654190Y461012D01*
X654050Y461010D01*
X641350Y461010D02*
X641210Y461012D01*
X641070Y461018D01*
X640930Y461027D01*
X640791Y461041D01*
X640652Y461058D01*
X640514Y461079D01*
X640376Y461104D01*
X640239Y461133D01*
X640103Y461165D01*
X639968Y461202D01*
X639834Y461242D01*
X639701Y461285D01*
X639569Y461333D01*
X639438Y461383D01*
X639309Y461438D01*
X639182Y461496D01*
X639056Y461557D01*
X638932Y461622D01*
X638810Y461691D01*
X638690Y461762D01*
X638572Y461837D01*
X638455Y461915D01*
X638341Y461997D01*
X638230Y462081D01*
X638121Y462169D01*
X638014Y462259D01*
X637909Y462353D01*
X637808Y462449D01*
X637709Y462548D01*
X637613Y462649D01*
X637519Y462754D01*
X637429Y462861D01*
X637341Y462970D01*
X637257Y463081D01*
X637175Y463195D01*
X637097Y463312D01*
X637022Y463430D01*
X636951Y463550D01*
X636882Y463672D01*
X636817Y463796D01*
X636756Y463922D01*
X636698Y464049D01*
X636643Y464178D01*
X636593Y464309D01*
X636545Y464441D01*
X636502Y464574D01*
X636462Y464708D01*
X636425Y464843D01*
X636393Y464979D01*
X636364Y465116D01*
X636339Y465254D01*
X636318Y465392D01*
X636301Y465531D01*
X636287Y465670D01*
X636278Y465810D01*
X636272Y465950D01*
X636270Y466090D01*
D11*
X640080Y485648D02*
X655320Y485648D01*
X655320Y479298D02*
X640080Y479298D01*
D12*
X674375Y495945D02*
X676282Y494038D01*
X674375Y495945D02*
X670562Y495945D01*
X668655Y494038D01*
X668655Y486412D01*
X670562Y484505D01*
X674375Y484505D01*
X676282Y486412D01*
X680349Y494038D02*
X682256Y495945D01*
X686069Y495945D01*
X687975Y494038D01*
X687975Y492132D01*
X686069Y490225D01*
X684162Y490225D01*
X686069Y490225D02*
X687975Y488318D01*
X687975Y486412D01*
X686069Y484505D01*
X682256Y484505D01*
X680349Y486412D01*
D13*
X337816Y624553D02*
X335867Y626502D01*
X331969Y626502D01*
X330020Y624553D01*
X330020Y616757D01*
X331969Y614808D01*
X335867Y614808D01*
X337816Y616757D01*
X347561Y614808D02*
X347561Y626502D01*
X341714Y620655D01*
X349510Y620655D01*
X351955Y363102D02*
X353904Y361153D01*
X351955Y363102D02*
X348057Y363102D01*
X346108Y361153D01*
X346108Y353357D01*
X348057Y351408D01*
X351955Y351408D01*
X353904Y353357D01*
X357802Y363102D02*
X365598Y363102D01*
X357802Y363102D02*
X357802Y357255D01*
X361700Y359204D01*
X363649Y359204D01*
X365598Y357255D01*
X365598Y353357D01*
X363649Y351408D01*
X359751Y351408D01*
X357802Y353357D01*
X328504Y500853D02*
X326555Y502802D01*
X322657Y502802D01*
X320708Y500853D01*
X320708Y493057D01*
X322657Y491108D01*
X326555Y491108D01*
X328504Y493057D01*
X336300Y500853D02*
X340198Y502802D01*
X336300Y500853D02*
X332402Y496955D01*
X332402Y493057D01*
X334351Y491108D01*
X338249Y491108D01*
X340198Y493057D01*
X340198Y495006D01*
X338249Y496955D01*
X332402Y496955D01*
D12*
X800100Y584200D02*
X876300Y584200D01*
X876300Y571500D01*
X876300Y558800D01*
X800100Y558800D01*
X800100Y571500D02*
X800100Y584200D01*
X800100Y571500D02*
X800100Y558800D01*
X800100Y571500D02*
X774700Y571500D01*
X876300Y571500D02*
X901700Y571500D01*
D13*
X763514Y539252D02*
X763514Y527558D01*
X769361Y527558D01*
X771310Y529507D01*
X771310Y537303D01*
X769361Y539252D01*
X763514Y539252D01*
X775208Y535354D02*
X779106Y539252D01*
X779106Y527558D01*
X775208Y527558D02*
X783004Y527558D01*
D12*
X800100Y431800D02*
X876300Y431800D01*
X876300Y419100D01*
X876300Y406400D01*
X800100Y406400D01*
X800100Y419100D02*
X800100Y431800D01*
X800100Y419100D02*
X800100Y406400D01*
X800100Y419100D02*
X774700Y419100D01*
X876300Y419100D02*
X901700Y419100D01*
D13*
X763514Y386852D02*
X763514Y375158D01*
X769361Y375158D01*
X771310Y377107D01*
X771310Y384903D01*
X769361Y386852D01*
X763514Y386852D01*
X775208Y375158D02*
X783004Y375158D01*
X775208Y375158D02*
X783004Y382954D01*
X783004Y384903D01*
X781055Y386852D01*
X777157Y386852D01*
X775208Y384903D01*
D12*
X800100Y508000D02*
X876300Y508000D01*
X876300Y495300D01*
X876300Y482600D01*
X800100Y482600D01*
X800100Y495300D02*
X800100Y508000D01*
X800100Y495300D02*
X800100Y482600D01*
X800100Y495300D02*
X774700Y495300D01*
X876300Y495300D02*
X901700Y495300D01*
D13*
X763514Y463052D02*
X763514Y451358D01*
X769361Y451358D01*
X771310Y453307D01*
X771310Y461103D01*
X769361Y463052D01*
X763514Y463052D01*
X775208Y461103D02*
X777157Y463052D01*
X781055Y463052D01*
X783004Y461103D01*
X783004Y459154D01*
X781055Y457205D01*
X779106Y457205D01*
X781055Y457205D02*
X783004Y455256D01*
X783004Y453307D01*
X781055Y451358D01*
X777157Y451358D01*
X775208Y453307D01*
D14*
X516450Y610220D02*
X448750Y610220D01*
X516450Y610220D02*
X516450Y431180D01*
X448750Y431180D01*
X448750Y610220D01*
X445250Y610000D02*
X426350Y610000D01*
D13*
X467516Y514858D02*
X471414Y514858D01*
X469465Y514858D02*
X469465Y526552D01*
X467516Y526552D02*
X471414Y526552D01*
X481159Y526552D02*
X483108Y524603D01*
X481159Y526552D02*
X477261Y526552D01*
X475312Y524603D01*
X475312Y516807D01*
X477261Y514858D01*
X481159Y514858D01*
X483108Y516807D01*
X487006Y522654D02*
X490904Y526552D01*
X490904Y514858D01*
X487006Y514858D02*
X494802Y514858D01*
D10*
X527050Y749300D02*
X539750Y749300D01*
X546100Y742950D01*
X546100Y730250D01*
X539750Y723900D01*
X520700Y730250D02*
X520700Y742950D01*
X527050Y749300D01*
X520700Y730250D02*
X527050Y723900D01*
X539750Y723900D01*
X546100Y742950D02*
X552450Y749300D01*
X565150Y749300D01*
X571500Y742950D01*
X571500Y730250D01*
X565150Y723900D01*
X552450Y723900D01*
X546100Y730250D01*
D12*
X522480Y755523D02*
X520573Y757430D01*
X522480Y755523D02*
X524386Y755523D01*
X526293Y757430D01*
X526293Y766963D01*
X524386Y766963D02*
X528200Y766963D01*
X532267Y766963D02*
X532267Y755523D01*
X532267Y766963D02*
X537987Y766963D01*
X539893Y765056D01*
X539893Y761243D01*
X537987Y759336D01*
X532267Y759336D01*
X543961Y763150D02*
X547774Y766963D01*
X547774Y755523D01*
X543961Y755523D02*
X551587Y755523D01*
D10*
X603250Y749300D02*
X615950Y749300D01*
X622300Y742950D01*
X622300Y730250D01*
X615950Y723900D01*
X596900Y730250D02*
X596900Y742950D01*
X603250Y749300D01*
X596900Y730250D02*
X603250Y723900D01*
X615950Y723900D01*
X622300Y742950D02*
X628650Y749300D01*
X641350Y749300D01*
X647700Y742950D01*
X647700Y730250D01*
X641350Y723900D01*
X628650Y723900D01*
X622300Y730250D01*
D12*
X598680Y755523D02*
X596773Y757430D01*
X598680Y755523D02*
X600586Y755523D01*
X602493Y757430D01*
X602493Y766963D01*
X600586Y766963D02*
X604400Y766963D01*
X608467Y766963D02*
X608467Y755523D01*
X608467Y766963D02*
X614187Y766963D01*
X616093Y765056D01*
X616093Y761243D01*
X614187Y759336D01*
X608467Y759336D01*
X620161Y755523D02*
X627787Y755523D01*
X620161Y755523D02*
X627787Y763150D01*
X627787Y765056D01*
X625881Y766963D01*
X622068Y766963D01*
X620161Y765056D01*
D10*
X679450Y749300D02*
X692150Y749300D01*
X698500Y742950D01*
X698500Y730250D01*
X692150Y723900D01*
X698500Y742950D02*
X704850Y749300D01*
X717550Y749300D01*
X723900Y742950D01*
X723900Y730250D01*
X717550Y723900D01*
X704850Y723900D01*
X698500Y730250D01*
X673100Y730250D02*
X673100Y742950D01*
X679450Y749300D01*
X673100Y730250D02*
X679450Y723900D01*
X692150Y723900D01*
X723900Y742950D02*
X730250Y749300D01*
X742950Y749300D01*
X749300Y742950D01*
X749300Y730250D01*
X742950Y723900D01*
X730250Y723900D01*
X723900Y730250D01*
D12*
X674880Y755523D02*
X672973Y757430D01*
X674880Y755523D02*
X676786Y755523D01*
X678693Y757430D01*
X678693Y766963D01*
X676786Y766963D02*
X680600Y766963D01*
X684667Y766963D02*
X684667Y755523D01*
X684667Y766963D02*
X690387Y766963D01*
X692293Y765056D01*
X692293Y761243D01*
X690387Y759336D01*
X684667Y759336D01*
X696361Y765056D02*
X698268Y766963D01*
X702081Y766963D01*
X703987Y765056D01*
X703987Y763150D01*
X702081Y761243D01*
X700174Y761243D01*
X702081Y761243D02*
X703987Y759336D01*
X703987Y757430D01*
X702081Y755523D01*
X698268Y755523D01*
X696361Y757430D01*
D15*
X744000Y292700D02*
X744000Y240700D01*
X744000Y292700D02*
X907000Y292700D01*
X907000Y240700D01*
X744000Y240700D01*
D16*
X833465Y301122D02*
X833465Y307286D01*
X835006Y308827D01*
X838088Y308827D01*
X839629Y307286D01*
X839629Y301122D01*
X838088Y299581D01*
X835006Y299581D01*
X833465Y301122D01*
X836547Y302663D02*
X839629Y299581D01*
X842673Y305745D02*
X845755Y308827D01*
X845755Y299581D01*
X842673Y299581D02*
X848837Y299581D01*
D15*
X655100Y102200D02*
X655100Y50200D01*
X655100Y102200D02*
X818100Y102200D01*
X818100Y50200D01*
X655100Y50200D01*
D16*
X719165Y40586D02*
X719165Y34422D01*
X719165Y40586D02*
X720706Y42127D01*
X723788Y42127D01*
X725329Y40586D01*
X725329Y34422D01*
X723788Y32881D01*
X720706Y32881D01*
X719165Y34422D01*
X722247Y35963D02*
X725329Y32881D01*
X728373Y32881D02*
X734537Y32881D01*
X728373Y32881D02*
X734537Y39045D01*
X734537Y40586D01*
X732996Y42127D01*
X729914Y42127D01*
X728373Y40586D01*
D15*
X439200Y50200D02*
X439200Y102200D01*
X602200Y102200D01*
X602200Y50200D01*
X439200Y50200D01*
D16*
X503265Y40586D02*
X503265Y34422D01*
X503265Y40586D02*
X504806Y42127D01*
X507888Y42127D01*
X509429Y40586D01*
X509429Y34422D01*
X507888Y32881D01*
X504806Y32881D01*
X503265Y34422D01*
X506347Y35963D02*
X509429Y32881D01*
X512473Y40586D02*
X514014Y42127D01*
X517096Y42127D01*
X518637Y40586D01*
X518637Y39045D01*
X517096Y37504D01*
X515555Y37504D01*
X517096Y37504D02*
X518637Y35963D01*
X518637Y34422D01*
X517096Y32881D01*
X514014Y32881D01*
X512473Y34422D01*
D15*
X691100Y240700D02*
X691100Y292700D01*
X691100Y240700D02*
X528100Y240700D01*
X528100Y292700D01*
X691100Y292700D01*
D16*
X609381Y302322D02*
X609381Y308486D01*
X610922Y310027D01*
X614004Y310027D01*
X615545Y308486D01*
X615545Y302322D01*
X614004Y300781D01*
X610922Y300781D01*
X609381Y302322D01*
X612463Y303863D02*
X615545Y300781D01*
X623212Y300781D02*
X623212Y310027D01*
X618589Y305404D01*
X624753Y305404D01*
D15*
X500600Y292700D02*
X500600Y240700D01*
X337600Y240700D01*
X337600Y292700D01*
X500600Y292700D01*
D16*
X431581Y302322D02*
X431581Y308486D01*
X433122Y310027D01*
X436204Y310027D01*
X437745Y308486D01*
X437745Y302322D01*
X436204Y300781D01*
X433122Y300781D01*
X431581Y302322D01*
X434663Y303863D02*
X437745Y300781D01*
X440789Y310027D02*
X446953Y310027D01*
X440789Y310027D02*
X440789Y305404D01*
X443871Y306945D01*
X445412Y306945D01*
X446953Y305404D01*
X446953Y302322D01*
X445412Y300781D01*
X442330Y300781D01*
X440789Y302322D01*
D15*
X386300Y102200D02*
X386300Y50200D01*
X223300Y50200D01*
X223300Y102200D01*
X386300Y102200D01*
D16*
X291881Y41786D02*
X291881Y35622D01*
X291881Y41786D02*
X293422Y43327D01*
X296504Y43327D01*
X298045Y41786D01*
X298045Y35622D01*
X296504Y34081D01*
X293422Y34081D01*
X291881Y35622D01*
X294963Y37163D02*
X298045Y34081D01*
X304171Y41786D02*
X307253Y43327D01*
X304171Y41786D02*
X301089Y38704D01*
X301089Y35622D01*
X302630Y34081D01*
X305712Y34081D01*
X307253Y35622D01*
X307253Y37163D01*
X305712Y38704D01*
X301089Y38704D01*
D10*
X448310Y725170D02*
X448410Y725172D01*
X448509Y725178D01*
X448609Y725188D01*
X448707Y725201D01*
X448806Y725219D01*
X448903Y725240D01*
X448999Y725265D01*
X449095Y725294D01*
X449189Y725327D01*
X449282Y725363D01*
X449373Y725403D01*
X449463Y725447D01*
X449551Y725494D01*
X449637Y725544D01*
X449721Y725598D01*
X449803Y725655D01*
X449882Y725715D01*
X449960Y725779D01*
X450034Y725845D01*
X450106Y725914D01*
X450175Y725986D01*
X450241Y726060D01*
X450305Y726138D01*
X450365Y726217D01*
X450422Y726299D01*
X450476Y726383D01*
X450526Y726469D01*
X450573Y726557D01*
X450617Y726647D01*
X450657Y726738D01*
X450693Y726831D01*
X450726Y726925D01*
X450755Y727021D01*
X450780Y727117D01*
X450801Y727214D01*
X450819Y727313D01*
X450832Y727411D01*
X450842Y727511D01*
X450848Y727610D01*
X450850Y727710D01*
X450850Y745490D02*
X450848Y745590D01*
X450842Y745689D01*
X450832Y745789D01*
X450819Y745887D01*
X450801Y745986D01*
X450780Y746083D01*
X450755Y746179D01*
X450726Y746275D01*
X450693Y746369D01*
X450657Y746462D01*
X450617Y746553D01*
X450573Y746643D01*
X450526Y746731D01*
X450476Y746817D01*
X450422Y746901D01*
X450365Y746983D01*
X450305Y747062D01*
X450241Y747140D01*
X450175Y747214D01*
X450106Y747286D01*
X450034Y747355D01*
X449960Y747421D01*
X449882Y747485D01*
X449803Y747545D01*
X449721Y747602D01*
X449637Y747656D01*
X449551Y747706D01*
X449463Y747753D01*
X449373Y747797D01*
X449282Y747837D01*
X449189Y747873D01*
X449095Y747906D01*
X448999Y747935D01*
X448903Y747960D01*
X448806Y747981D01*
X448707Y747999D01*
X448609Y748012D01*
X448509Y748022D01*
X448410Y748028D01*
X448310Y748030D01*
X389890Y748030D02*
X389790Y748028D01*
X389691Y748022D01*
X389591Y748012D01*
X389493Y747999D01*
X389394Y747981D01*
X389297Y747960D01*
X389201Y747935D01*
X389105Y747906D01*
X389011Y747873D01*
X388918Y747837D01*
X388827Y747797D01*
X388737Y747753D01*
X388649Y747706D01*
X388563Y747656D01*
X388479Y747602D01*
X388397Y747545D01*
X388318Y747485D01*
X388240Y747421D01*
X388166Y747355D01*
X388094Y747286D01*
X388025Y747214D01*
X387959Y747140D01*
X387895Y747062D01*
X387835Y746983D01*
X387778Y746901D01*
X387724Y746817D01*
X387674Y746731D01*
X387627Y746643D01*
X387583Y746553D01*
X387543Y746462D01*
X387507Y746369D01*
X387474Y746275D01*
X387445Y746179D01*
X387420Y746083D01*
X387399Y745986D01*
X387381Y745887D01*
X387368Y745789D01*
X387358Y745689D01*
X387352Y745590D01*
X387350Y745490D01*
X387350Y727710D02*
X387352Y727610D01*
X387358Y727511D01*
X387368Y727411D01*
X387381Y727313D01*
X387399Y727214D01*
X387420Y727117D01*
X387445Y727021D01*
X387474Y726925D01*
X387507Y726831D01*
X387543Y726738D01*
X387583Y726647D01*
X387627Y726557D01*
X387674Y726469D01*
X387724Y726383D01*
X387778Y726299D01*
X387835Y726217D01*
X387895Y726138D01*
X387959Y726060D01*
X388025Y725986D01*
X388094Y725914D01*
X388166Y725845D01*
X388240Y725779D01*
X388318Y725715D01*
X388397Y725655D01*
X388479Y725598D01*
X388563Y725544D01*
X388649Y725494D01*
X388737Y725447D01*
X388827Y725403D01*
X388918Y725363D01*
X389011Y725327D01*
X389105Y725294D01*
X389201Y725265D01*
X389297Y725240D01*
X389394Y725219D01*
X389493Y725201D01*
X389591Y725188D01*
X389691Y725178D01*
X389790Y725172D01*
X389890Y725170D01*
X450850Y727710D02*
X450850Y745490D01*
X448310Y725170D02*
X444500Y725170D01*
X443230Y726440D01*
X444500Y748030D02*
X448310Y748030D01*
X444500Y748030D02*
X443230Y746760D01*
X394970Y726440D02*
X393700Y725170D01*
X394970Y726440D02*
X443230Y726440D01*
X394970Y746760D02*
X393700Y748030D01*
X394970Y746760D02*
X443230Y746760D01*
X393700Y725170D02*
X389890Y725170D01*
X389890Y748030D02*
X393700Y748030D01*
X387350Y745490D02*
X387350Y727710D01*
D17*
X383032Y736600D03*
X455168Y736600D03*
D12*
X401427Y720735D02*
X401427Y709295D01*
X401427Y720735D02*
X407147Y720735D01*
X409054Y718828D01*
X409054Y715015D01*
X407147Y713108D01*
X401427Y713108D01*
X405240Y713108D02*
X409054Y709295D01*
X413121Y716922D02*
X416934Y720735D01*
X416934Y709295D01*
X413121Y709295D02*
X420748Y709295D01*
X462115Y355985D02*
X462115Y351155D01*
X462115Y355985D02*
X464530Y355985D01*
X465335Y355180D01*
X465335Y353570D01*
X464530Y352765D01*
X462115Y352765D01*
X463725Y352765D02*
X465335Y351155D01*
X467728Y354375D02*
X469338Y355985D01*
X469338Y351155D01*
X467728Y351155D02*
X470949Y351155D01*
X473342Y351960D02*
X473342Y355180D01*
X474147Y355985D01*
X475757Y355985D01*
X476562Y355180D01*
X476562Y351960D01*
X475757Y351155D01*
X474147Y351155D01*
X473342Y351960D01*
X476562Y355180D01*
X449415Y140085D02*
X449415Y135255D01*
X449415Y140085D02*
X451830Y140085D01*
X452635Y139280D01*
X452635Y137670D01*
X451830Y136865D01*
X449415Y136865D01*
X451025Y136865D02*
X452635Y135255D01*
X455028Y138475D02*
X456638Y140085D01*
X456638Y135255D01*
X455028Y135255D02*
X458249Y135255D01*
X460642Y138475D02*
X462252Y140085D01*
X462252Y135255D01*
X460642Y135255D02*
X463862Y135255D01*
D10*
X341630Y715010D02*
X341628Y715110D01*
X341622Y715209D01*
X341612Y715309D01*
X341599Y715407D01*
X341581Y715506D01*
X341560Y715603D01*
X341535Y715699D01*
X341506Y715795D01*
X341473Y715889D01*
X341437Y715982D01*
X341397Y716073D01*
X341353Y716163D01*
X341306Y716251D01*
X341256Y716337D01*
X341202Y716421D01*
X341145Y716503D01*
X341085Y716582D01*
X341021Y716660D01*
X340955Y716734D01*
X340886Y716806D01*
X340814Y716875D01*
X340740Y716941D01*
X340662Y717005D01*
X340583Y717065D01*
X340501Y717122D01*
X340417Y717176D01*
X340331Y717226D01*
X340243Y717273D01*
X340153Y717317D01*
X340062Y717357D01*
X339969Y717393D01*
X339875Y717426D01*
X339779Y717455D01*
X339683Y717480D01*
X339586Y717501D01*
X339487Y717519D01*
X339389Y717532D01*
X339289Y717542D01*
X339190Y717548D01*
X339090Y717550D01*
X321310Y717550D02*
X321210Y717548D01*
X321111Y717542D01*
X321011Y717532D01*
X320913Y717519D01*
X320814Y717501D01*
X320717Y717480D01*
X320621Y717455D01*
X320525Y717426D01*
X320431Y717393D01*
X320338Y717357D01*
X320247Y717317D01*
X320157Y717273D01*
X320069Y717226D01*
X319983Y717176D01*
X319899Y717122D01*
X319817Y717065D01*
X319738Y717005D01*
X319660Y716941D01*
X319586Y716875D01*
X319514Y716806D01*
X319445Y716734D01*
X319379Y716660D01*
X319315Y716582D01*
X319255Y716503D01*
X319198Y716421D01*
X319144Y716337D01*
X319094Y716251D01*
X319047Y716163D01*
X319003Y716073D01*
X318963Y715982D01*
X318927Y715889D01*
X318894Y715795D01*
X318865Y715699D01*
X318840Y715603D01*
X318819Y715506D01*
X318801Y715407D01*
X318788Y715309D01*
X318778Y715209D01*
X318772Y715110D01*
X318770Y715010D01*
X318770Y656590D02*
X318772Y656490D01*
X318778Y656391D01*
X318788Y656291D01*
X318801Y656193D01*
X318819Y656094D01*
X318840Y655997D01*
X318865Y655901D01*
X318894Y655805D01*
X318927Y655711D01*
X318963Y655618D01*
X319003Y655527D01*
X319047Y655437D01*
X319094Y655349D01*
X319144Y655263D01*
X319198Y655179D01*
X319255Y655097D01*
X319315Y655018D01*
X319379Y654940D01*
X319445Y654866D01*
X319514Y654794D01*
X319586Y654725D01*
X319660Y654659D01*
X319738Y654595D01*
X319817Y654535D01*
X319899Y654478D01*
X319983Y654424D01*
X320069Y654374D01*
X320157Y654327D01*
X320247Y654283D01*
X320338Y654243D01*
X320431Y654207D01*
X320525Y654174D01*
X320621Y654145D01*
X320717Y654120D01*
X320814Y654099D01*
X320913Y654081D01*
X321011Y654068D01*
X321111Y654058D01*
X321210Y654052D01*
X321310Y654050D01*
X339090Y654050D02*
X339190Y654052D01*
X339289Y654058D01*
X339389Y654068D01*
X339487Y654081D01*
X339586Y654099D01*
X339683Y654120D01*
X339779Y654145D01*
X339875Y654174D01*
X339969Y654207D01*
X340062Y654243D01*
X340153Y654283D01*
X340243Y654327D01*
X340331Y654374D01*
X340417Y654424D01*
X340501Y654478D01*
X340583Y654535D01*
X340662Y654595D01*
X340740Y654659D01*
X340814Y654725D01*
X340886Y654794D01*
X340955Y654866D01*
X341021Y654940D01*
X341085Y655018D01*
X341145Y655097D01*
X341202Y655179D01*
X341256Y655263D01*
X341306Y655349D01*
X341353Y655437D01*
X341397Y655527D01*
X341437Y655618D01*
X341473Y655711D01*
X341506Y655805D01*
X341535Y655901D01*
X341560Y655997D01*
X341581Y656094D01*
X341599Y656193D01*
X341612Y656291D01*
X341622Y656391D01*
X341628Y656490D01*
X341630Y656590D01*
X339090Y717550D02*
X321310Y717550D01*
X341630Y715010D02*
X341630Y711200D01*
X340360Y709930D01*
X318770Y711200D02*
X318770Y715010D01*
X318770Y711200D02*
X320040Y709930D01*
X340360Y661670D02*
X341630Y660400D01*
X340360Y661670D02*
X340360Y709930D01*
X320040Y661670D02*
X318770Y660400D01*
X320040Y661670D02*
X320040Y709930D01*
X341630Y660400D02*
X341630Y656590D01*
X318770Y656590D02*
X318770Y660400D01*
X321310Y654050D02*
X339090Y654050D01*
D18*
X330200Y649732D03*
X330200Y721868D03*
D12*
X351155Y687715D02*
X351155Y676275D01*
X351155Y687715D02*
X356875Y687715D01*
X358782Y685808D01*
X358782Y681995D01*
X356875Y680088D01*
X351155Y680088D01*
X354968Y680088D02*
X358782Y676275D01*
X362849Y676275D02*
X370475Y676275D01*
X362849Y676275D02*
X370475Y683902D01*
X370475Y685808D01*
X368569Y687715D01*
X364756Y687715D01*
X362849Y685808D01*
D10*
X923290Y730250D02*
X923390Y730248D01*
X923489Y730242D01*
X923589Y730232D01*
X923687Y730219D01*
X923786Y730201D01*
X923883Y730180D01*
X923979Y730155D01*
X924075Y730126D01*
X924169Y730093D01*
X924262Y730057D01*
X924353Y730017D01*
X924443Y729973D01*
X924531Y729926D01*
X924617Y729876D01*
X924701Y729822D01*
X924783Y729765D01*
X924862Y729705D01*
X924940Y729641D01*
X925014Y729575D01*
X925086Y729506D01*
X925155Y729434D01*
X925221Y729360D01*
X925285Y729282D01*
X925345Y729203D01*
X925402Y729121D01*
X925456Y729037D01*
X925506Y728951D01*
X925553Y728863D01*
X925597Y728773D01*
X925637Y728682D01*
X925673Y728589D01*
X925706Y728495D01*
X925735Y728399D01*
X925760Y728303D01*
X925781Y728206D01*
X925799Y728107D01*
X925812Y728009D01*
X925822Y727909D01*
X925828Y727810D01*
X925830Y727710D01*
X905510Y730250D02*
X905410Y730248D01*
X905311Y730242D01*
X905211Y730232D01*
X905113Y730219D01*
X905014Y730201D01*
X904917Y730180D01*
X904821Y730155D01*
X904725Y730126D01*
X904631Y730093D01*
X904538Y730057D01*
X904447Y730017D01*
X904357Y729973D01*
X904269Y729926D01*
X904183Y729876D01*
X904099Y729822D01*
X904017Y729765D01*
X903938Y729705D01*
X903860Y729641D01*
X903786Y729575D01*
X903714Y729506D01*
X903645Y729434D01*
X903579Y729360D01*
X903515Y729282D01*
X903455Y729203D01*
X903398Y729121D01*
X903344Y729037D01*
X903294Y728951D01*
X903247Y728863D01*
X903203Y728773D01*
X903163Y728682D01*
X903127Y728589D01*
X903094Y728495D01*
X903065Y728399D01*
X903040Y728303D01*
X903019Y728206D01*
X903001Y728107D01*
X902988Y728009D01*
X902978Y727909D01*
X902972Y727810D01*
X902970Y727710D01*
X902970Y669290D02*
X902972Y669190D01*
X902978Y669091D01*
X902988Y668991D01*
X903001Y668893D01*
X903019Y668794D01*
X903040Y668697D01*
X903065Y668601D01*
X903094Y668505D01*
X903127Y668411D01*
X903163Y668318D01*
X903203Y668227D01*
X903247Y668137D01*
X903294Y668049D01*
X903344Y667963D01*
X903398Y667879D01*
X903455Y667797D01*
X903515Y667718D01*
X903579Y667640D01*
X903645Y667566D01*
X903714Y667494D01*
X903786Y667425D01*
X903860Y667359D01*
X903938Y667295D01*
X904017Y667235D01*
X904099Y667178D01*
X904183Y667124D01*
X904269Y667074D01*
X904357Y667027D01*
X904447Y666983D01*
X904538Y666943D01*
X904631Y666907D01*
X904725Y666874D01*
X904821Y666845D01*
X904917Y666820D01*
X905014Y666799D01*
X905113Y666781D01*
X905211Y666768D01*
X905311Y666758D01*
X905410Y666752D01*
X905510Y666750D01*
X923290Y666750D02*
X923390Y666752D01*
X923489Y666758D01*
X923589Y666768D01*
X923687Y666781D01*
X923786Y666799D01*
X923883Y666820D01*
X923979Y666845D01*
X924075Y666874D01*
X924169Y666907D01*
X924262Y666943D01*
X924353Y666983D01*
X924443Y667027D01*
X924531Y667074D01*
X924617Y667124D01*
X924701Y667178D01*
X924783Y667235D01*
X924862Y667295D01*
X924940Y667359D01*
X925014Y667425D01*
X925086Y667494D01*
X925155Y667566D01*
X925221Y667640D01*
X925285Y667718D01*
X925345Y667797D01*
X925402Y667879D01*
X925456Y667963D01*
X925506Y668049D01*
X925553Y668137D01*
X925597Y668227D01*
X925637Y668318D01*
X925673Y668411D01*
X925706Y668505D01*
X925735Y668601D01*
X925760Y668697D01*
X925781Y668794D01*
X925799Y668893D01*
X925812Y668991D01*
X925822Y669091D01*
X925828Y669190D01*
X925830Y669290D01*
X923290Y730250D02*
X905510Y730250D01*
X925830Y727710D02*
X925830Y723900D01*
X924560Y722630D01*
X902970Y723900D02*
X902970Y727710D01*
X902970Y723900D02*
X904240Y722630D01*
X924560Y674370D02*
X925830Y673100D01*
X924560Y674370D02*
X924560Y722630D01*
X904240Y674370D02*
X902970Y673100D01*
X904240Y674370D02*
X904240Y722630D01*
X925830Y673100D02*
X925830Y669290D01*
X902970Y669290D02*
X902970Y673100D01*
X905510Y666750D02*
X923290Y666750D01*
D18*
X914400Y662432D03*
X914400Y734568D03*
D12*
X871855Y713115D02*
X871855Y701675D01*
X871855Y713115D02*
X877575Y713115D01*
X879482Y711208D01*
X879482Y707395D01*
X877575Y705488D01*
X871855Y705488D01*
X875668Y705488D02*
X879482Y701675D01*
X883549Y711208D02*
X885456Y713115D01*
X889269Y713115D01*
X891175Y711208D01*
X891175Y709302D01*
X889269Y707395D01*
X887362Y707395D01*
X889269Y707395D02*
X891175Y705488D01*
X891175Y703582D01*
X889269Y701675D01*
X885456Y701675D01*
X883549Y703582D01*
D10*
X862330Y727710D02*
X862328Y727810D01*
X862322Y727909D01*
X862312Y728009D01*
X862299Y728107D01*
X862281Y728206D01*
X862260Y728303D01*
X862235Y728399D01*
X862206Y728495D01*
X862173Y728589D01*
X862137Y728682D01*
X862097Y728773D01*
X862053Y728863D01*
X862006Y728951D01*
X861956Y729037D01*
X861902Y729121D01*
X861845Y729203D01*
X861785Y729282D01*
X861721Y729360D01*
X861655Y729434D01*
X861586Y729506D01*
X861514Y729575D01*
X861440Y729641D01*
X861362Y729705D01*
X861283Y729765D01*
X861201Y729822D01*
X861117Y729876D01*
X861031Y729926D01*
X860943Y729973D01*
X860853Y730017D01*
X860762Y730057D01*
X860669Y730093D01*
X860575Y730126D01*
X860479Y730155D01*
X860383Y730180D01*
X860286Y730201D01*
X860187Y730219D01*
X860089Y730232D01*
X859989Y730242D01*
X859890Y730248D01*
X859790Y730250D01*
X842010Y730250D02*
X841910Y730248D01*
X841811Y730242D01*
X841711Y730232D01*
X841613Y730219D01*
X841514Y730201D01*
X841417Y730180D01*
X841321Y730155D01*
X841225Y730126D01*
X841131Y730093D01*
X841038Y730057D01*
X840947Y730017D01*
X840857Y729973D01*
X840769Y729926D01*
X840683Y729876D01*
X840599Y729822D01*
X840517Y729765D01*
X840438Y729705D01*
X840360Y729641D01*
X840286Y729575D01*
X840214Y729506D01*
X840145Y729434D01*
X840079Y729360D01*
X840015Y729282D01*
X839955Y729203D01*
X839898Y729121D01*
X839844Y729037D01*
X839794Y728951D01*
X839747Y728863D01*
X839703Y728773D01*
X839663Y728682D01*
X839627Y728589D01*
X839594Y728495D01*
X839565Y728399D01*
X839540Y728303D01*
X839519Y728206D01*
X839501Y728107D01*
X839488Y728009D01*
X839478Y727909D01*
X839472Y727810D01*
X839470Y727710D01*
X839470Y669290D02*
X839472Y669190D01*
X839478Y669091D01*
X839488Y668991D01*
X839501Y668893D01*
X839519Y668794D01*
X839540Y668697D01*
X839565Y668601D01*
X839594Y668505D01*
X839627Y668411D01*
X839663Y668318D01*
X839703Y668227D01*
X839747Y668137D01*
X839794Y668049D01*
X839844Y667963D01*
X839898Y667879D01*
X839955Y667797D01*
X840015Y667718D01*
X840079Y667640D01*
X840145Y667566D01*
X840214Y667494D01*
X840286Y667425D01*
X840360Y667359D01*
X840438Y667295D01*
X840517Y667235D01*
X840599Y667178D01*
X840683Y667124D01*
X840769Y667074D01*
X840857Y667027D01*
X840947Y666983D01*
X841038Y666943D01*
X841131Y666907D01*
X841225Y666874D01*
X841321Y666845D01*
X841417Y666820D01*
X841514Y666799D01*
X841613Y666781D01*
X841711Y666768D01*
X841811Y666758D01*
X841910Y666752D01*
X842010Y666750D01*
X859790Y666750D02*
X859890Y666752D01*
X859989Y666758D01*
X860089Y666768D01*
X860187Y666781D01*
X860286Y666799D01*
X860383Y666820D01*
X860479Y666845D01*
X860575Y666874D01*
X860669Y666907D01*
X860762Y666943D01*
X860853Y666983D01*
X860943Y667027D01*
X861031Y667074D01*
X861117Y667124D01*
X861201Y667178D01*
X861283Y667235D01*
X861362Y667295D01*
X861440Y667359D01*
X861514Y667425D01*
X861586Y667494D01*
X861655Y667566D01*
X861721Y667640D01*
X861785Y667718D01*
X861845Y667797D01*
X861902Y667879D01*
X861956Y667963D01*
X862006Y668049D01*
X862053Y668137D01*
X862097Y668227D01*
X862137Y668318D01*
X862173Y668411D01*
X862206Y668505D01*
X862235Y668601D01*
X862260Y668697D01*
X862281Y668794D01*
X862299Y668893D01*
X862312Y668991D01*
X862322Y669091D01*
X862328Y669190D01*
X862330Y669290D01*
X859790Y730250D02*
X842010Y730250D01*
X862330Y727710D02*
X862330Y723900D01*
X861060Y722630D01*
X839470Y723900D02*
X839470Y727710D01*
X839470Y723900D02*
X840740Y722630D01*
X861060Y674370D02*
X862330Y673100D01*
X861060Y674370D02*
X861060Y722630D01*
X840740Y674370D02*
X839470Y673100D01*
X840740Y674370D02*
X840740Y722630D01*
X862330Y673100D02*
X862330Y669290D01*
X839470Y669290D02*
X839470Y673100D01*
X842010Y666750D02*
X859790Y666750D01*
D18*
X850900Y662432D03*
X850900Y734568D03*
D12*
X808355Y713115D02*
X808355Y701675D01*
X808355Y713115D02*
X814075Y713115D01*
X815982Y711208D01*
X815982Y707395D01*
X814075Y705488D01*
X808355Y705488D01*
X812168Y705488D02*
X815982Y701675D01*
X825769Y701675D02*
X825769Y713115D01*
X820049Y707395D01*
X827675Y707395D01*
D10*
X798830Y727710D02*
X798828Y727810D01*
X798822Y727909D01*
X798812Y728009D01*
X798799Y728107D01*
X798781Y728206D01*
X798760Y728303D01*
X798735Y728399D01*
X798706Y728495D01*
X798673Y728589D01*
X798637Y728682D01*
X798597Y728773D01*
X798553Y728863D01*
X798506Y728951D01*
X798456Y729037D01*
X798402Y729121D01*
X798345Y729203D01*
X798285Y729282D01*
X798221Y729360D01*
X798155Y729434D01*
X798086Y729506D01*
X798014Y729575D01*
X797940Y729641D01*
X797862Y729705D01*
X797783Y729765D01*
X797701Y729822D01*
X797617Y729876D01*
X797531Y729926D01*
X797443Y729973D01*
X797353Y730017D01*
X797262Y730057D01*
X797169Y730093D01*
X797075Y730126D01*
X796979Y730155D01*
X796883Y730180D01*
X796786Y730201D01*
X796687Y730219D01*
X796589Y730232D01*
X796489Y730242D01*
X796390Y730248D01*
X796290Y730250D01*
X778510Y730250D02*
X778410Y730248D01*
X778311Y730242D01*
X778211Y730232D01*
X778113Y730219D01*
X778014Y730201D01*
X777917Y730180D01*
X777821Y730155D01*
X777725Y730126D01*
X777631Y730093D01*
X777538Y730057D01*
X777447Y730017D01*
X777357Y729973D01*
X777269Y729926D01*
X777183Y729876D01*
X777099Y729822D01*
X777017Y729765D01*
X776938Y729705D01*
X776860Y729641D01*
X776786Y729575D01*
X776714Y729506D01*
X776645Y729434D01*
X776579Y729360D01*
X776515Y729282D01*
X776455Y729203D01*
X776398Y729121D01*
X776344Y729037D01*
X776294Y728951D01*
X776247Y728863D01*
X776203Y728773D01*
X776163Y728682D01*
X776127Y728589D01*
X776094Y728495D01*
X776065Y728399D01*
X776040Y728303D01*
X776019Y728206D01*
X776001Y728107D01*
X775988Y728009D01*
X775978Y727909D01*
X775972Y727810D01*
X775970Y727710D01*
X775970Y669290D02*
X775972Y669190D01*
X775978Y669091D01*
X775988Y668991D01*
X776001Y668893D01*
X776019Y668794D01*
X776040Y668697D01*
X776065Y668601D01*
X776094Y668505D01*
X776127Y668411D01*
X776163Y668318D01*
X776203Y668227D01*
X776247Y668137D01*
X776294Y668049D01*
X776344Y667963D01*
X776398Y667879D01*
X776455Y667797D01*
X776515Y667718D01*
X776579Y667640D01*
X776645Y667566D01*
X776714Y667494D01*
X776786Y667425D01*
X776860Y667359D01*
X776938Y667295D01*
X777017Y667235D01*
X777099Y667178D01*
X777183Y667124D01*
X777269Y667074D01*
X777357Y667027D01*
X777447Y666983D01*
X777538Y666943D01*
X777631Y666907D01*
X777725Y666874D01*
X777821Y666845D01*
X777917Y666820D01*
X778014Y666799D01*
X778113Y666781D01*
X778211Y666768D01*
X778311Y666758D01*
X778410Y666752D01*
X778510Y666750D01*
X796290Y666750D02*
X796390Y666752D01*
X796489Y666758D01*
X796589Y666768D01*
X796687Y666781D01*
X796786Y666799D01*
X796883Y666820D01*
X796979Y666845D01*
X797075Y666874D01*
X797169Y666907D01*
X797262Y666943D01*
X797353Y666983D01*
X797443Y667027D01*
X797531Y667074D01*
X797617Y667124D01*
X797701Y667178D01*
X797783Y667235D01*
X797862Y667295D01*
X797940Y667359D01*
X798014Y667425D01*
X798086Y667494D01*
X798155Y667566D01*
X798221Y667640D01*
X798285Y667718D01*
X798345Y667797D01*
X798402Y667879D01*
X798456Y667963D01*
X798506Y668049D01*
X798553Y668137D01*
X798597Y668227D01*
X798637Y668318D01*
X798673Y668411D01*
X798706Y668505D01*
X798735Y668601D01*
X798760Y668697D01*
X798781Y668794D01*
X798799Y668893D01*
X798812Y668991D01*
X798822Y669091D01*
X798828Y669190D01*
X798830Y669290D01*
X796290Y730250D02*
X778510Y730250D01*
X798830Y727710D02*
X798830Y723900D01*
X797560Y722630D01*
X775970Y723900D02*
X775970Y727710D01*
X775970Y723900D02*
X777240Y722630D01*
X797560Y674370D02*
X798830Y673100D01*
X797560Y674370D02*
X797560Y722630D01*
X777240Y674370D02*
X775970Y673100D01*
X777240Y674370D02*
X777240Y722630D01*
X798830Y673100D02*
X798830Y669290D01*
X775970Y669290D02*
X775970Y673100D01*
X778510Y666750D02*
X796290Y666750D01*
D18*
X787400Y662432D03*
X787400Y734568D03*
D12*
X744855Y713115D02*
X744855Y701675D01*
X744855Y713115D02*
X750575Y713115D01*
X752482Y711208D01*
X752482Y707395D01*
X750575Y705488D01*
X744855Y705488D01*
X748668Y705488D02*
X752482Y701675D01*
X756549Y713115D02*
X764175Y713115D01*
X756549Y713115D02*
X756549Y707395D01*
X760362Y709302D01*
X762269Y709302D01*
X764175Y707395D01*
X764175Y703582D01*
X762269Y701675D01*
X758456Y701675D01*
X756549Y703582D01*
X706222Y317885D02*
X706222Y313055D01*
X706222Y317885D02*
X708637Y317885D01*
X709442Y317080D01*
X709442Y315470D01*
X708637Y314665D01*
X706222Y314665D01*
X707832Y314665D02*
X709442Y313055D01*
X713445Y317080D02*
X715055Y317885D01*
X713445Y317080D02*
X711835Y315470D01*
X711835Y313860D01*
X712640Y313055D01*
X714250Y313055D01*
X715055Y313860D01*
X715055Y314665D01*
X714250Y315470D01*
X711835Y315470D01*
X566522Y351155D02*
X566522Y355985D01*
X568937Y355985D01*
X569742Y355180D01*
X569742Y353570D01*
X568937Y352765D01*
X566522Y352765D01*
X568132Y352765D02*
X569742Y351155D01*
X572135Y355985D02*
X575355Y355985D01*
X575355Y355180D01*
X572135Y351960D01*
X572135Y351155D01*
X350622Y140085D02*
X350622Y135255D01*
X350622Y140085D02*
X353037Y140085D01*
X353842Y139280D01*
X353842Y137670D01*
X353037Y136865D01*
X350622Y136865D01*
X352232Y136865D02*
X353842Y135255D01*
X356235Y139280D02*
X357040Y140085D01*
X358650Y140085D01*
X359455Y139280D01*
X359455Y138475D01*
X358650Y137670D01*
X359455Y136865D01*
X359455Y136060D01*
X358650Y135255D01*
X357040Y135255D01*
X356235Y136060D01*
X356235Y136865D01*
X357040Y137670D01*
X356235Y138475D01*
X356235Y139280D01*
X357040Y137670D02*
X358650Y137670D01*
X668122Y135255D02*
X668122Y140085D01*
X670537Y140085D01*
X671342Y139280D01*
X671342Y137670D01*
X670537Y136865D01*
X668122Y136865D01*
X669732Y136865D02*
X671342Y135255D01*
X673735Y136060D02*
X674540Y135255D01*
X676150Y135255D01*
X676955Y136060D01*
X676955Y139280D01*
X676150Y140085D01*
X674540Y140085D01*
X673735Y139280D01*
X673735Y138475D01*
X674540Y137670D01*
X676955Y137670D01*
D10*
X232000Y686800D02*
X22000Y686800D01*
D19*
X0Y685800D03*
D12*
X87000Y699800D02*
X167000Y699800D01*
X167000Y631800D01*
X87000Y631800D01*
X87000Y699800D01*
D10*
X232000Y185500D02*
X232000Y176800D01*
X232000Y195500D02*
X232000Y210900D01*
X232000Y220900D02*
X232000Y236300D01*
X232000Y246300D02*
X232000Y261700D01*
X232000Y271700D02*
X232000Y287100D01*
X232000Y297100D02*
X232000Y312500D01*
X232000Y322500D02*
X232000Y337900D01*
X232000Y347900D02*
X232000Y363300D01*
X232000Y373300D02*
X232000Y388700D01*
X232000Y398700D02*
X232000Y414100D01*
X232000Y424100D02*
X232000Y439500D01*
X232000Y449500D02*
X232000Y464900D01*
X232000Y474900D02*
X232000Y490300D01*
X232000Y500300D02*
X232000Y515700D01*
X232000Y525700D02*
X232000Y541100D01*
X232000Y551100D02*
X232000Y566500D01*
X232000Y576500D02*
X232000Y591900D01*
X232000Y601900D02*
X232000Y617300D01*
X232000Y627300D02*
X232000Y642700D01*
X232000Y652700D02*
X232000Y668100D01*
X232000Y678100D02*
X232000Y686800D01*
X22000Y686800D02*
X22000Y678100D01*
X22000Y668100D02*
X22000Y652700D01*
X22000Y642700D02*
X22000Y627300D01*
X22000Y617300D02*
X22000Y601900D01*
X22000Y591900D02*
X22000Y576500D01*
X22000Y566500D02*
X22000Y551100D01*
X22000Y541100D02*
X22000Y525700D01*
X22000Y515700D02*
X22000Y500300D01*
X22000Y490300D02*
X22000Y474900D01*
X22000Y464900D02*
X22000Y449500D01*
X22000Y439500D02*
X22000Y424100D01*
X22000Y414100D02*
X22000Y398700D01*
X22000Y388700D02*
X22000Y373300D01*
X22000Y363300D02*
X22000Y347900D01*
X22000Y337900D02*
X22000Y322500D01*
X22000Y312500D02*
X22000Y297100D01*
X22000Y287100D02*
X22000Y271700D01*
X22000Y261700D02*
X22000Y246300D01*
X22000Y236300D02*
X22000Y220900D01*
X22000Y210900D02*
X22000Y195500D01*
X22000Y185500D02*
X22000Y176800D01*
X157400Y176800D02*
X232000Y176800D01*
X147400Y176800D02*
X132000Y176800D01*
X122000Y176800D02*
X106600Y176800D01*
X96600Y176800D02*
X22000Y176800D01*
D12*
X22000Y642700D02*
X22140Y642702D01*
X22280Y642708D01*
X22420Y642718D01*
X22560Y642731D01*
X22699Y642749D01*
X22838Y642771D01*
X22975Y642796D01*
X23113Y642825D01*
X23249Y642858D01*
X23384Y642895D01*
X23518Y642936D01*
X23651Y642981D01*
X23783Y643029D01*
X23913Y643081D01*
X24042Y643136D01*
X24169Y643195D01*
X24295Y643258D01*
X24419Y643324D01*
X24540Y643393D01*
X24660Y643466D01*
X24778Y643543D01*
X24893Y643622D01*
X25007Y643705D01*
X25117Y643791D01*
X25226Y643880D01*
X25332Y643972D01*
X25435Y644067D01*
X25536Y644164D01*
X25633Y644265D01*
X25728Y644368D01*
X25820Y644474D01*
X25909Y644583D01*
X25995Y644693D01*
X26078Y644807D01*
X26157Y644922D01*
X26234Y645040D01*
X26307Y645160D01*
X26376Y645281D01*
X26442Y645405D01*
X26505Y645531D01*
X26564Y645658D01*
X26619Y645787D01*
X26671Y645917D01*
X26719Y646049D01*
X26764Y646182D01*
X26805Y646316D01*
X26842Y646451D01*
X26875Y646587D01*
X26904Y646725D01*
X26929Y646862D01*
X26951Y647001D01*
X26969Y647140D01*
X26982Y647280D01*
X26992Y647420D01*
X26998Y647560D01*
X27000Y647700D01*
X26998Y647840D01*
X26992Y647980D01*
X26982Y648120D01*
X26969Y648260D01*
X26951Y648399D01*
X26929Y648538D01*
X26904Y648675D01*
X26875Y648813D01*
X26842Y648949D01*
X26805Y649084D01*
X26764Y649218D01*
X26719Y649351D01*
X26671Y649483D01*
X26619Y649613D01*
X26564Y649742D01*
X26505Y649869D01*
X26442Y649995D01*
X26376Y650119D01*
X26307Y650240D01*
X26234Y650360D01*
X26157Y650478D01*
X26078Y650593D01*
X25995Y650707D01*
X25909Y650817D01*
X25820Y650926D01*
X25728Y651032D01*
X25633Y651135D01*
X25536Y651236D01*
X25435Y651333D01*
X25332Y651428D01*
X25226Y651520D01*
X25117Y651609D01*
X25007Y651695D01*
X24893Y651778D01*
X24778Y651857D01*
X24660Y651934D01*
X24540Y652007D01*
X24419Y652076D01*
X24295Y652142D01*
X24169Y652205D01*
X24042Y652264D01*
X23913Y652319D01*
X23783Y652371D01*
X23651Y652419D01*
X23518Y652464D01*
X23384Y652505D01*
X23249Y652542D01*
X23113Y652575D01*
X22975Y652604D01*
X22838Y652629D01*
X22699Y652651D01*
X22560Y652669D01*
X22420Y652682D01*
X22280Y652692D01*
X22140Y652698D01*
X22000Y652700D01*
X22000Y668100D02*
X22140Y668102D01*
X22280Y668108D01*
X22420Y668118D01*
X22560Y668131D01*
X22699Y668149D01*
X22838Y668171D01*
X22975Y668196D01*
X23113Y668225D01*
X23249Y668258D01*
X23384Y668295D01*
X23518Y668336D01*
X23651Y668381D01*
X23783Y668429D01*
X23913Y668481D01*
X24042Y668536D01*
X24169Y668595D01*
X24295Y668658D01*
X24419Y668724D01*
X24540Y668793D01*
X24660Y668866D01*
X24778Y668943D01*
X24893Y669022D01*
X25007Y669105D01*
X25117Y669191D01*
X25226Y669280D01*
X25332Y669372D01*
X25435Y669467D01*
X25536Y669564D01*
X25633Y669665D01*
X25728Y669768D01*
X25820Y669874D01*
X25909Y669983D01*
X25995Y670093D01*
X26078Y670207D01*
X26157Y670322D01*
X26234Y670440D01*
X26307Y670560D01*
X26376Y670681D01*
X26442Y670805D01*
X26505Y670931D01*
X26564Y671058D01*
X26619Y671187D01*
X26671Y671317D01*
X26719Y671449D01*
X26764Y671582D01*
X26805Y671716D01*
X26842Y671851D01*
X26875Y671987D01*
X26904Y672125D01*
X26929Y672262D01*
X26951Y672401D01*
X26969Y672540D01*
X26982Y672680D01*
X26992Y672820D01*
X26998Y672960D01*
X27000Y673100D01*
X26998Y673240D01*
X26992Y673380D01*
X26982Y673520D01*
X26969Y673660D01*
X26951Y673799D01*
X26929Y673938D01*
X26904Y674075D01*
X26875Y674213D01*
X26842Y674349D01*
X26805Y674484D01*
X26764Y674618D01*
X26719Y674751D01*
X26671Y674883D01*
X26619Y675013D01*
X26564Y675142D01*
X26505Y675269D01*
X26442Y675395D01*
X26376Y675519D01*
X26307Y675640D01*
X26234Y675760D01*
X26157Y675878D01*
X26078Y675993D01*
X25995Y676107D01*
X25909Y676217D01*
X25820Y676326D01*
X25728Y676432D01*
X25633Y676535D01*
X25536Y676636D01*
X25435Y676733D01*
X25332Y676828D01*
X25226Y676920D01*
X25117Y677009D01*
X25007Y677095D01*
X24893Y677178D01*
X24778Y677257D01*
X24660Y677334D01*
X24540Y677407D01*
X24419Y677476D01*
X24295Y677542D01*
X24169Y677605D01*
X24042Y677664D01*
X23913Y677719D01*
X23783Y677771D01*
X23651Y677819D01*
X23518Y677864D01*
X23384Y677905D01*
X23249Y677942D01*
X23113Y677975D01*
X22975Y678004D01*
X22838Y678029D01*
X22699Y678051D01*
X22560Y678069D01*
X22420Y678082D01*
X22280Y678092D01*
X22140Y678098D01*
X22000Y678100D01*
X22000Y627300D02*
X22140Y627298D01*
X22280Y627292D01*
X22420Y627282D01*
X22560Y627269D01*
X22699Y627251D01*
X22838Y627229D01*
X22975Y627204D01*
X23113Y627175D01*
X23249Y627142D01*
X23384Y627105D01*
X23518Y627064D01*
X23651Y627019D01*
X23783Y626971D01*
X23913Y626919D01*
X24042Y626864D01*
X24169Y626805D01*
X24295Y626742D01*
X24419Y626676D01*
X24540Y626607D01*
X24660Y626534D01*
X24778Y626457D01*
X24893Y626378D01*
X25007Y626295D01*
X25117Y626209D01*
X25226Y626120D01*
X25332Y626028D01*
X25435Y625933D01*
X25536Y625836D01*
X25633Y625735D01*
X25728Y625632D01*
X25820Y625526D01*
X25909Y625417D01*
X25995Y625307D01*
X26078Y625193D01*
X26157Y625078D01*
X26234Y624960D01*
X26307Y624840D01*
X26376Y624719D01*
X26442Y624595D01*
X26505Y624469D01*
X26564Y624342D01*
X26619Y624213D01*
X26671Y624083D01*
X26719Y623951D01*
X26764Y623818D01*
X26805Y623684D01*
X26842Y623549D01*
X26875Y623413D01*
X26904Y623275D01*
X26929Y623138D01*
X26951Y622999D01*
X26969Y622860D01*
X26982Y622720D01*
X26992Y622580D01*
X26998Y622440D01*
X27000Y622300D01*
X26998Y622160D01*
X26992Y622020D01*
X26982Y621880D01*
X26969Y621740D01*
X26951Y621601D01*
X26929Y621462D01*
X26904Y621325D01*
X26875Y621187D01*
X26842Y621051D01*
X26805Y620916D01*
X26764Y620782D01*
X26719Y620649D01*
X26671Y620517D01*
X26619Y620387D01*
X26564Y620258D01*
X26505Y620131D01*
X26442Y620005D01*
X26376Y619881D01*
X26307Y619760D01*
X26234Y619640D01*
X26157Y619522D01*
X26078Y619407D01*
X25995Y619293D01*
X25909Y619183D01*
X25820Y619074D01*
X25728Y618968D01*
X25633Y618865D01*
X25536Y618764D01*
X25435Y618667D01*
X25332Y618572D01*
X25226Y618480D01*
X25117Y618391D01*
X25007Y618305D01*
X24893Y618222D01*
X24778Y618143D01*
X24660Y618066D01*
X24540Y617993D01*
X24419Y617924D01*
X24295Y617858D01*
X24169Y617795D01*
X24042Y617736D01*
X23913Y617681D01*
X23783Y617629D01*
X23651Y617581D01*
X23518Y617536D01*
X23384Y617495D01*
X23249Y617458D01*
X23113Y617425D01*
X22975Y617396D01*
X22838Y617371D01*
X22699Y617349D01*
X22560Y617331D01*
X22420Y617318D01*
X22280Y617308D01*
X22140Y617302D01*
X22000Y617300D01*
X22000Y601900D02*
X22140Y601898D01*
X22280Y601892D01*
X22420Y601882D01*
X22560Y601869D01*
X22699Y601851D01*
X22838Y601829D01*
X22975Y601804D01*
X23113Y601775D01*
X23249Y601742D01*
X23384Y601705D01*
X23518Y601664D01*
X23651Y601619D01*
X23783Y601571D01*
X23913Y601519D01*
X24042Y601464D01*
X24169Y601405D01*
X24295Y601342D01*
X24419Y601276D01*
X24540Y601207D01*
X24660Y601134D01*
X24778Y601057D01*
X24893Y600978D01*
X25007Y600895D01*
X25117Y600809D01*
X25226Y600720D01*
X25332Y600628D01*
X25435Y600533D01*
X25536Y600436D01*
X25633Y600335D01*
X25728Y600232D01*
X25820Y600126D01*
X25909Y600017D01*
X25995Y599907D01*
X26078Y599793D01*
X26157Y599678D01*
X26234Y599560D01*
X26307Y599440D01*
X26376Y599319D01*
X26442Y599195D01*
X26505Y599069D01*
X26564Y598942D01*
X26619Y598813D01*
X26671Y598683D01*
X26719Y598551D01*
X26764Y598418D01*
X26805Y598284D01*
X26842Y598149D01*
X26875Y598013D01*
X26904Y597875D01*
X26929Y597738D01*
X26951Y597599D01*
X26969Y597460D01*
X26982Y597320D01*
X26992Y597180D01*
X26998Y597040D01*
X27000Y596900D01*
X26998Y596760D01*
X26992Y596620D01*
X26982Y596480D01*
X26969Y596340D01*
X26951Y596201D01*
X26929Y596062D01*
X26904Y595925D01*
X26875Y595787D01*
X26842Y595651D01*
X26805Y595516D01*
X26764Y595382D01*
X26719Y595249D01*
X26671Y595117D01*
X26619Y594987D01*
X26564Y594858D01*
X26505Y594731D01*
X26442Y594605D01*
X26376Y594481D01*
X26307Y594360D01*
X26234Y594240D01*
X26157Y594122D01*
X26078Y594007D01*
X25995Y593893D01*
X25909Y593783D01*
X25820Y593674D01*
X25728Y593568D01*
X25633Y593465D01*
X25536Y593364D01*
X25435Y593267D01*
X25332Y593172D01*
X25226Y593080D01*
X25117Y592991D01*
X25007Y592905D01*
X24893Y592822D01*
X24778Y592743D01*
X24660Y592666D01*
X24540Y592593D01*
X24419Y592524D01*
X24295Y592458D01*
X24169Y592395D01*
X24042Y592336D01*
X23913Y592281D01*
X23783Y592229D01*
X23651Y592181D01*
X23518Y592136D01*
X23384Y592095D01*
X23249Y592058D01*
X23113Y592025D01*
X22975Y591996D01*
X22838Y591971D01*
X22699Y591949D01*
X22560Y591931D01*
X22420Y591918D01*
X22280Y591908D01*
X22140Y591902D01*
X22000Y591900D01*
X22000Y576500D02*
X22140Y576498D01*
X22280Y576492D01*
X22420Y576482D01*
X22560Y576469D01*
X22699Y576451D01*
X22838Y576429D01*
X22975Y576404D01*
X23113Y576375D01*
X23249Y576342D01*
X23384Y576305D01*
X23518Y576264D01*
X23651Y576219D01*
X23783Y576171D01*
X23913Y576119D01*
X24042Y576064D01*
X24169Y576005D01*
X24295Y575942D01*
X24419Y575876D01*
X24540Y575807D01*
X24660Y575734D01*
X24778Y575657D01*
X24893Y575578D01*
X25007Y575495D01*
X25117Y575409D01*
X25226Y575320D01*
X25332Y575228D01*
X25435Y575133D01*
X25536Y575036D01*
X25633Y574935D01*
X25728Y574832D01*
X25820Y574726D01*
X25909Y574617D01*
X25995Y574507D01*
X26078Y574393D01*
X26157Y574278D01*
X26234Y574160D01*
X26307Y574040D01*
X26376Y573919D01*
X26442Y573795D01*
X26505Y573669D01*
X26564Y573542D01*
X26619Y573413D01*
X26671Y573283D01*
X26719Y573151D01*
X26764Y573018D01*
X26805Y572884D01*
X26842Y572749D01*
X26875Y572613D01*
X26904Y572475D01*
X26929Y572338D01*
X26951Y572199D01*
X26969Y572060D01*
X26982Y571920D01*
X26992Y571780D01*
X26998Y571640D01*
X27000Y571500D01*
X26998Y571360D01*
X26992Y571220D01*
X26982Y571080D01*
X26969Y570940D01*
X26951Y570801D01*
X26929Y570662D01*
X26904Y570525D01*
X26875Y570387D01*
X26842Y570251D01*
X26805Y570116D01*
X26764Y569982D01*
X26719Y569849D01*
X26671Y569717D01*
X26619Y569587D01*
X26564Y569458D01*
X26505Y569331D01*
X26442Y569205D01*
X26376Y569081D01*
X26307Y568960D01*
X26234Y568840D01*
X26157Y568722D01*
X26078Y568607D01*
X25995Y568493D01*
X25909Y568383D01*
X25820Y568274D01*
X25728Y568168D01*
X25633Y568065D01*
X25536Y567964D01*
X25435Y567867D01*
X25332Y567772D01*
X25226Y567680D01*
X25117Y567591D01*
X25007Y567505D01*
X24893Y567422D01*
X24778Y567343D01*
X24660Y567266D01*
X24540Y567193D01*
X24419Y567124D01*
X24295Y567058D01*
X24169Y566995D01*
X24042Y566936D01*
X23913Y566881D01*
X23783Y566829D01*
X23651Y566781D01*
X23518Y566736D01*
X23384Y566695D01*
X23249Y566658D01*
X23113Y566625D01*
X22975Y566596D01*
X22838Y566571D01*
X22699Y566549D01*
X22560Y566531D01*
X22420Y566518D01*
X22280Y566508D01*
X22140Y566502D01*
X22000Y566500D01*
X22000Y551100D02*
X22140Y551098D01*
X22280Y551092D01*
X22420Y551082D01*
X22560Y551069D01*
X22699Y551051D01*
X22838Y551029D01*
X22975Y551004D01*
X23113Y550975D01*
X23249Y550942D01*
X23384Y550905D01*
X23518Y550864D01*
X23651Y550819D01*
X23783Y550771D01*
X23913Y550719D01*
X24042Y550664D01*
X24169Y550605D01*
X24295Y550542D01*
X24419Y550476D01*
X24540Y550407D01*
X24660Y550334D01*
X24778Y550257D01*
X24893Y550178D01*
X25007Y550095D01*
X25117Y550009D01*
X25226Y549920D01*
X25332Y549828D01*
X25435Y549733D01*
X25536Y549636D01*
X25633Y549535D01*
X25728Y549432D01*
X25820Y549326D01*
X25909Y549217D01*
X25995Y549107D01*
X26078Y548993D01*
X26157Y548878D01*
X26234Y548760D01*
X26307Y548640D01*
X26376Y548519D01*
X26442Y548395D01*
X26505Y548269D01*
X26564Y548142D01*
X26619Y548013D01*
X26671Y547883D01*
X26719Y547751D01*
X26764Y547618D01*
X26805Y547484D01*
X26842Y547349D01*
X26875Y547213D01*
X26904Y547075D01*
X26929Y546938D01*
X26951Y546799D01*
X26969Y546660D01*
X26982Y546520D01*
X26992Y546380D01*
X26998Y546240D01*
X27000Y546100D01*
X26998Y545960D01*
X26992Y545820D01*
X26982Y545680D01*
X26969Y545540D01*
X26951Y545401D01*
X26929Y545262D01*
X26904Y545125D01*
X26875Y544987D01*
X26842Y544851D01*
X26805Y544716D01*
X26764Y544582D01*
X26719Y544449D01*
X26671Y544317D01*
X26619Y544187D01*
X26564Y544058D01*
X26505Y543931D01*
X26442Y543805D01*
X26376Y543681D01*
X26307Y543560D01*
X26234Y543440D01*
X26157Y543322D01*
X26078Y543207D01*
X25995Y543093D01*
X25909Y542983D01*
X25820Y542874D01*
X25728Y542768D01*
X25633Y542665D01*
X25536Y542564D01*
X25435Y542467D01*
X25332Y542372D01*
X25226Y542280D01*
X25117Y542191D01*
X25007Y542105D01*
X24893Y542022D01*
X24778Y541943D01*
X24660Y541866D01*
X24540Y541793D01*
X24419Y541724D01*
X24295Y541658D01*
X24169Y541595D01*
X24042Y541536D01*
X23913Y541481D01*
X23783Y541429D01*
X23651Y541381D01*
X23518Y541336D01*
X23384Y541295D01*
X23249Y541258D01*
X23113Y541225D01*
X22975Y541196D01*
X22838Y541171D01*
X22699Y541149D01*
X22560Y541131D01*
X22420Y541118D01*
X22280Y541108D01*
X22140Y541102D01*
X22000Y541100D01*
X22000Y525700D02*
X22140Y525698D01*
X22280Y525692D01*
X22420Y525682D01*
X22560Y525669D01*
X22699Y525651D01*
X22838Y525629D01*
X22975Y525604D01*
X23113Y525575D01*
X23249Y525542D01*
X23384Y525505D01*
X23518Y525464D01*
X23651Y525419D01*
X23783Y525371D01*
X23913Y525319D01*
X24042Y525264D01*
X24169Y525205D01*
X24295Y525142D01*
X24419Y525076D01*
X24540Y525007D01*
X24660Y524934D01*
X24778Y524857D01*
X24893Y524778D01*
X25007Y524695D01*
X25117Y524609D01*
X25226Y524520D01*
X25332Y524428D01*
X25435Y524333D01*
X25536Y524236D01*
X25633Y524135D01*
X25728Y524032D01*
X25820Y523926D01*
X25909Y523817D01*
X25995Y523707D01*
X26078Y523593D01*
X26157Y523478D01*
X26234Y523360D01*
X26307Y523240D01*
X26376Y523119D01*
X26442Y522995D01*
X26505Y522869D01*
X26564Y522742D01*
X26619Y522613D01*
X26671Y522483D01*
X26719Y522351D01*
X26764Y522218D01*
X26805Y522084D01*
X26842Y521949D01*
X26875Y521813D01*
X26904Y521675D01*
X26929Y521538D01*
X26951Y521399D01*
X26969Y521260D01*
X26982Y521120D01*
X26992Y520980D01*
X26998Y520840D01*
X27000Y520700D01*
X26998Y520560D01*
X26992Y520420D01*
X26982Y520280D01*
X26969Y520140D01*
X26951Y520001D01*
X26929Y519862D01*
X26904Y519725D01*
X26875Y519587D01*
X26842Y519451D01*
X26805Y519316D01*
X26764Y519182D01*
X26719Y519049D01*
X26671Y518917D01*
X26619Y518787D01*
X26564Y518658D01*
X26505Y518531D01*
X26442Y518405D01*
X26376Y518281D01*
X26307Y518160D01*
X26234Y518040D01*
X26157Y517922D01*
X26078Y517807D01*
X25995Y517693D01*
X25909Y517583D01*
X25820Y517474D01*
X25728Y517368D01*
X25633Y517265D01*
X25536Y517164D01*
X25435Y517067D01*
X25332Y516972D01*
X25226Y516880D01*
X25117Y516791D01*
X25007Y516705D01*
X24893Y516622D01*
X24778Y516543D01*
X24660Y516466D01*
X24540Y516393D01*
X24419Y516324D01*
X24295Y516258D01*
X24169Y516195D01*
X24042Y516136D01*
X23913Y516081D01*
X23783Y516029D01*
X23651Y515981D01*
X23518Y515936D01*
X23384Y515895D01*
X23249Y515858D01*
X23113Y515825D01*
X22975Y515796D01*
X22838Y515771D01*
X22699Y515749D01*
X22560Y515731D01*
X22420Y515718D01*
X22280Y515708D01*
X22140Y515702D01*
X22000Y515700D01*
X22000Y500300D02*
X22140Y500298D01*
X22280Y500292D01*
X22420Y500282D01*
X22560Y500269D01*
X22699Y500251D01*
X22838Y500229D01*
X22975Y500204D01*
X23113Y500175D01*
X23249Y500142D01*
X23384Y500105D01*
X23518Y500064D01*
X23651Y500019D01*
X23783Y499971D01*
X23913Y499919D01*
X24042Y499864D01*
X24169Y499805D01*
X24295Y499742D01*
X24419Y499676D01*
X24540Y499607D01*
X24660Y499534D01*
X24778Y499457D01*
X24893Y499378D01*
X25007Y499295D01*
X25117Y499209D01*
X25226Y499120D01*
X25332Y499028D01*
X25435Y498933D01*
X25536Y498836D01*
X25633Y498735D01*
X25728Y498632D01*
X25820Y498526D01*
X25909Y498417D01*
X25995Y498307D01*
X26078Y498193D01*
X26157Y498078D01*
X26234Y497960D01*
X26307Y497840D01*
X26376Y497719D01*
X26442Y497595D01*
X26505Y497469D01*
X26564Y497342D01*
X26619Y497213D01*
X26671Y497083D01*
X26719Y496951D01*
X26764Y496818D01*
X26805Y496684D01*
X26842Y496549D01*
X26875Y496413D01*
X26904Y496275D01*
X26929Y496138D01*
X26951Y495999D01*
X26969Y495860D01*
X26982Y495720D01*
X26992Y495580D01*
X26998Y495440D01*
X27000Y495300D01*
X26998Y495160D01*
X26992Y495020D01*
X26982Y494880D01*
X26969Y494740D01*
X26951Y494601D01*
X26929Y494462D01*
X26904Y494325D01*
X26875Y494187D01*
X26842Y494051D01*
X26805Y493916D01*
X26764Y493782D01*
X26719Y493649D01*
X26671Y493517D01*
X26619Y493387D01*
X26564Y493258D01*
X26505Y493131D01*
X26442Y493005D01*
X26376Y492881D01*
X26307Y492760D01*
X26234Y492640D01*
X26157Y492522D01*
X26078Y492407D01*
X25995Y492293D01*
X25909Y492183D01*
X25820Y492074D01*
X25728Y491968D01*
X25633Y491865D01*
X25536Y491764D01*
X25435Y491667D01*
X25332Y491572D01*
X25226Y491480D01*
X25117Y491391D01*
X25007Y491305D01*
X24893Y491222D01*
X24778Y491143D01*
X24660Y491066D01*
X24540Y490993D01*
X24419Y490924D01*
X24295Y490858D01*
X24169Y490795D01*
X24042Y490736D01*
X23913Y490681D01*
X23783Y490629D01*
X23651Y490581D01*
X23518Y490536D01*
X23384Y490495D01*
X23249Y490458D01*
X23113Y490425D01*
X22975Y490396D01*
X22838Y490371D01*
X22699Y490349D01*
X22560Y490331D01*
X22420Y490318D01*
X22280Y490308D01*
X22140Y490302D01*
X22000Y490300D01*
X22000Y474900D02*
X22140Y474898D01*
X22280Y474892D01*
X22420Y474882D01*
X22560Y474869D01*
X22699Y474851D01*
X22838Y474829D01*
X22975Y474804D01*
X23113Y474775D01*
X23249Y474742D01*
X23384Y474705D01*
X23518Y474664D01*
X23651Y474619D01*
X23783Y474571D01*
X23913Y474519D01*
X24042Y474464D01*
X24169Y474405D01*
X24295Y474342D01*
X24419Y474276D01*
X24540Y474207D01*
X24660Y474134D01*
X24778Y474057D01*
X24893Y473978D01*
X25007Y473895D01*
X25117Y473809D01*
X25226Y473720D01*
X25332Y473628D01*
X25435Y473533D01*
X25536Y473436D01*
X25633Y473335D01*
X25728Y473232D01*
X25820Y473126D01*
X25909Y473017D01*
X25995Y472907D01*
X26078Y472793D01*
X26157Y472678D01*
X26234Y472560D01*
X26307Y472440D01*
X26376Y472319D01*
X26442Y472195D01*
X26505Y472069D01*
X26564Y471942D01*
X26619Y471813D01*
X26671Y471683D01*
X26719Y471551D01*
X26764Y471418D01*
X26805Y471284D01*
X26842Y471149D01*
X26875Y471013D01*
X26904Y470875D01*
X26929Y470738D01*
X26951Y470599D01*
X26969Y470460D01*
X26982Y470320D01*
X26992Y470180D01*
X26998Y470040D01*
X27000Y469900D01*
X26998Y469760D01*
X26992Y469620D01*
X26982Y469480D01*
X26969Y469340D01*
X26951Y469201D01*
X26929Y469062D01*
X26904Y468925D01*
X26875Y468787D01*
X26842Y468651D01*
X26805Y468516D01*
X26764Y468382D01*
X26719Y468249D01*
X26671Y468117D01*
X26619Y467987D01*
X26564Y467858D01*
X26505Y467731D01*
X26442Y467605D01*
X26376Y467481D01*
X26307Y467360D01*
X26234Y467240D01*
X26157Y467122D01*
X26078Y467007D01*
X25995Y466893D01*
X25909Y466783D01*
X25820Y466674D01*
X25728Y466568D01*
X25633Y466465D01*
X25536Y466364D01*
X25435Y466267D01*
X25332Y466172D01*
X25226Y466080D01*
X25117Y465991D01*
X25007Y465905D01*
X24893Y465822D01*
X24778Y465743D01*
X24660Y465666D01*
X24540Y465593D01*
X24419Y465524D01*
X24295Y465458D01*
X24169Y465395D01*
X24042Y465336D01*
X23913Y465281D01*
X23783Y465229D01*
X23651Y465181D01*
X23518Y465136D01*
X23384Y465095D01*
X23249Y465058D01*
X23113Y465025D01*
X22975Y464996D01*
X22838Y464971D01*
X22699Y464949D01*
X22560Y464931D01*
X22420Y464918D01*
X22280Y464908D01*
X22140Y464902D01*
X22000Y464900D01*
X22000Y449500D02*
X22140Y449498D01*
X22280Y449492D01*
X22420Y449482D01*
X22560Y449469D01*
X22699Y449451D01*
X22838Y449429D01*
X22975Y449404D01*
X23113Y449375D01*
X23249Y449342D01*
X23384Y449305D01*
X23518Y449264D01*
X23651Y449219D01*
X23783Y449171D01*
X23913Y449119D01*
X24042Y449064D01*
X24169Y449005D01*
X24295Y448942D01*
X24419Y448876D01*
X24540Y448807D01*
X24660Y448734D01*
X24778Y448657D01*
X24893Y448578D01*
X25007Y448495D01*
X25117Y448409D01*
X25226Y448320D01*
X25332Y448228D01*
X25435Y448133D01*
X25536Y448036D01*
X25633Y447935D01*
X25728Y447832D01*
X25820Y447726D01*
X25909Y447617D01*
X25995Y447507D01*
X26078Y447393D01*
X26157Y447278D01*
X26234Y447160D01*
X26307Y447040D01*
X26376Y446919D01*
X26442Y446795D01*
X26505Y446669D01*
X26564Y446542D01*
X26619Y446413D01*
X26671Y446283D01*
X26719Y446151D01*
X26764Y446018D01*
X26805Y445884D01*
X26842Y445749D01*
X26875Y445613D01*
X26904Y445475D01*
X26929Y445338D01*
X26951Y445199D01*
X26969Y445060D01*
X26982Y444920D01*
X26992Y444780D01*
X26998Y444640D01*
X27000Y444500D01*
X26998Y444360D01*
X26992Y444220D01*
X26982Y444080D01*
X26969Y443940D01*
X26951Y443801D01*
X26929Y443662D01*
X26904Y443525D01*
X26875Y443387D01*
X26842Y443251D01*
X26805Y443116D01*
X26764Y442982D01*
X26719Y442849D01*
X26671Y442717D01*
X26619Y442587D01*
X26564Y442458D01*
X26505Y442331D01*
X26442Y442205D01*
X26376Y442081D01*
X26307Y441960D01*
X26234Y441840D01*
X26157Y441722D01*
X26078Y441607D01*
X25995Y441493D01*
X25909Y441383D01*
X25820Y441274D01*
X25728Y441168D01*
X25633Y441065D01*
X25536Y440964D01*
X25435Y440867D01*
X25332Y440772D01*
X25226Y440680D01*
X25117Y440591D01*
X25007Y440505D01*
X24893Y440422D01*
X24778Y440343D01*
X24660Y440266D01*
X24540Y440193D01*
X24419Y440124D01*
X24295Y440058D01*
X24169Y439995D01*
X24042Y439936D01*
X23913Y439881D01*
X23783Y439829D01*
X23651Y439781D01*
X23518Y439736D01*
X23384Y439695D01*
X23249Y439658D01*
X23113Y439625D01*
X22975Y439596D01*
X22838Y439571D01*
X22699Y439549D01*
X22560Y439531D01*
X22420Y439518D01*
X22280Y439508D01*
X22140Y439502D01*
X22000Y439500D01*
X22000Y424100D02*
X22140Y424098D01*
X22280Y424092D01*
X22420Y424082D01*
X22560Y424069D01*
X22699Y424051D01*
X22838Y424029D01*
X22975Y424004D01*
X23113Y423975D01*
X23249Y423942D01*
X23384Y423905D01*
X23518Y423864D01*
X23651Y423819D01*
X23783Y423771D01*
X23913Y423719D01*
X24042Y423664D01*
X24169Y423605D01*
X24295Y423542D01*
X24419Y423476D01*
X24540Y423407D01*
X24660Y423334D01*
X24778Y423257D01*
X24893Y423178D01*
X25007Y423095D01*
X25117Y423009D01*
X25226Y422920D01*
X25332Y422828D01*
X25435Y422733D01*
X25536Y422636D01*
X25633Y422535D01*
X25728Y422432D01*
X25820Y422326D01*
X25909Y422217D01*
X25995Y422107D01*
X26078Y421993D01*
X26157Y421878D01*
X26234Y421760D01*
X26307Y421640D01*
X26376Y421519D01*
X26442Y421395D01*
X26505Y421269D01*
X26564Y421142D01*
X26619Y421013D01*
X26671Y420883D01*
X26719Y420751D01*
X26764Y420618D01*
X26805Y420484D01*
X26842Y420349D01*
X26875Y420213D01*
X26904Y420075D01*
X26929Y419938D01*
X26951Y419799D01*
X26969Y419660D01*
X26982Y419520D01*
X26992Y419380D01*
X26998Y419240D01*
X27000Y419100D01*
X26998Y418960D01*
X26992Y418820D01*
X26982Y418680D01*
X26969Y418540D01*
X26951Y418401D01*
X26929Y418262D01*
X26904Y418125D01*
X26875Y417987D01*
X26842Y417851D01*
X26805Y417716D01*
X26764Y417582D01*
X26719Y417449D01*
X26671Y417317D01*
X26619Y417187D01*
X26564Y417058D01*
X26505Y416931D01*
X26442Y416805D01*
X26376Y416681D01*
X26307Y416560D01*
X26234Y416440D01*
X26157Y416322D01*
X26078Y416207D01*
X25995Y416093D01*
X25909Y415983D01*
X25820Y415874D01*
X25728Y415768D01*
X25633Y415665D01*
X25536Y415564D01*
X25435Y415467D01*
X25332Y415372D01*
X25226Y415280D01*
X25117Y415191D01*
X25007Y415105D01*
X24893Y415022D01*
X24778Y414943D01*
X24660Y414866D01*
X24540Y414793D01*
X24419Y414724D01*
X24295Y414658D01*
X24169Y414595D01*
X24042Y414536D01*
X23913Y414481D01*
X23783Y414429D01*
X23651Y414381D01*
X23518Y414336D01*
X23384Y414295D01*
X23249Y414258D01*
X23113Y414225D01*
X22975Y414196D01*
X22838Y414171D01*
X22699Y414149D01*
X22560Y414131D01*
X22420Y414118D01*
X22280Y414108D01*
X22140Y414102D01*
X22000Y414100D01*
X22000Y398700D02*
X22140Y398698D01*
X22280Y398692D01*
X22420Y398682D01*
X22560Y398669D01*
X22699Y398651D01*
X22838Y398629D01*
X22975Y398604D01*
X23113Y398575D01*
X23249Y398542D01*
X23384Y398505D01*
X23518Y398464D01*
X23651Y398419D01*
X23783Y398371D01*
X23913Y398319D01*
X24042Y398264D01*
X24169Y398205D01*
X24295Y398142D01*
X24419Y398076D01*
X24540Y398007D01*
X24660Y397934D01*
X24778Y397857D01*
X24893Y397778D01*
X25007Y397695D01*
X25117Y397609D01*
X25226Y397520D01*
X25332Y397428D01*
X25435Y397333D01*
X25536Y397236D01*
X25633Y397135D01*
X25728Y397032D01*
X25820Y396926D01*
X25909Y396817D01*
X25995Y396707D01*
X26078Y396593D01*
X26157Y396478D01*
X26234Y396360D01*
X26307Y396240D01*
X26376Y396119D01*
X26442Y395995D01*
X26505Y395869D01*
X26564Y395742D01*
X26619Y395613D01*
X26671Y395483D01*
X26719Y395351D01*
X26764Y395218D01*
X26805Y395084D01*
X26842Y394949D01*
X26875Y394813D01*
X26904Y394675D01*
X26929Y394538D01*
X26951Y394399D01*
X26969Y394260D01*
X26982Y394120D01*
X26992Y393980D01*
X26998Y393840D01*
X27000Y393700D01*
X26998Y393560D01*
X26992Y393420D01*
X26982Y393280D01*
X26969Y393140D01*
X26951Y393001D01*
X26929Y392862D01*
X26904Y392725D01*
X26875Y392587D01*
X26842Y392451D01*
X26805Y392316D01*
X26764Y392182D01*
X26719Y392049D01*
X26671Y391917D01*
X26619Y391787D01*
X26564Y391658D01*
X26505Y391531D01*
X26442Y391405D01*
X26376Y391281D01*
X26307Y391160D01*
X26234Y391040D01*
X26157Y390922D01*
X26078Y390807D01*
X25995Y390693D01*
X25909Y390583D01*
X25820Y390474D01*
X25728Y390368D01*
X25633Y390265D01*
X25536Y390164D01*
X25435Y390067D01*
X25332Y389972D01*
X25226Y389880D01*
X25117Y389791D01*
X25007Y389705D01*
X24893Y389622D01*
X24778Y389543D01*
X24660Y389466D01*
X24540Y389393D01*
X24419Y389324D01*
X24295Y389258D01*
X24169Y389195D01*
X24042Y389136D01*
X23913Y389081D01*
X23783Y389029D01*
X23651Y388981D01*
X23518Y388936D01*
X23384Y388895D01*
X23249Y388858D01*
X23113Y388825D01*
X22975Y388796D01*
X22838Y388771D01*
X22699Y388749D01*
X22560Y388731D01*
X22420Y388718D01*
X22280Y388708D01*
X22140Y388702D01*
X22000Y388700D01*
X22000Y373300D02*
X22140Y373298D01*
X22280Y373292D01*
X22420Y373282D01*
X22560Y373269D01*
X22699Y373251D01*
X22838Y373229D01*
X22975Y373204D01*
X23113Y373175D01*
X23249Y373142D01*
X23384Y373105D01*
X23518Y373064D01*
X23651Y373019D01*
X23783Y372971D01*
X23913Y372919D01*
X24042Y372864D01*
X24169Y372805D01*
X24295Y372742D01*
X24419Y372676D01*
X24540Y372607D01*
X24660Y372534D01*
X24778Y372457D01*
X24893Y372378D01*
X25007Y372295D01*
X25117Y372209D01*
X25226Y372120D01*
X25332Y372028D01*
X25435Y371933D01*
X25536Y371836D01*
X25633Y371735D01*
X25728Y371632D01*
X25820Y371526D01*
X25909Y371417D01*
X25995Y371307D01*
X26078Y371193D01*
X26157Y371078D01*
X26234Y370960D01*
X26307Y370840D01*
X26376Y370719D01*
X26442Y370595D01*
X26505Y370469D01*
X26564Y370342D01*
X26619Y370213D01*
X26671Y370083D01*
X26719Y369951D01*
X26764Y369818D01*
X26805Y369684D01*
X26842Y369549D01*
X26875Y369413D01*
X26904Y369275D01*
X26929Y369138D01*
X26951Y368999D01*
X26969Y368860D01*
X26982Y368720D01*
X26992Y368580D01*
X26998Y368440D01*
X27000Y368300D01*
X26998Y368160D01*
X26992Y368020D01*
X26982Y367880D01*
X26969Y367740D01*
X26951Y367601D01*
X26929Y367462D01*
X26904Y367325D01*
X26875Y367187D01*
X26842Y367051D01*
X26805Y366916D01*
X26764Y366782D01*
X26719Y366649D01*
X26671Y366517D01*
X26619Y366387D01*
X26564Y366258D01*
X26505Y366131D01*
X26442Y366005D01*
X26376Y365881D01*
X26307Y365760D01*
X26234Y365640D01*
X26157Y365522D01*
X26078Y365407D01*
X25995Y365293D01*
X25909Y365183D01*
X25820Y365074D01*
X25728Y364968D01*
X25633Y364865D01*
X25536Y364764D01*
X25435Y364667D01*
X25332Y364572D01*
X25226Y364480D01*
X25117Y364391D01*
X25007Y364305D01*
X24893Y364222D01*
X24778Y364143D01*
X24660Y364066D01*
X24540Y363993D01*
X24419Y363924D01*
X24295Y363858D01*
X24169Y363795D01*
X24042Y363736D01*
X23913Y363681D01*
X23783Y363629D01*
X23651Y363581D01*
X23518Y363536D01*
X23384Y363495D01*
X23249Y363458D01*
X23113Y363425D01*
X22975Y363396D01*
X22838Y363371D01*
X22699Y363349D01*
X22560Y363331D01*
X22420Y363318D01*
X22280Y363308D01*
X22140Y363302D01*
X22000Y363300D01*
X22000Y347900D02*
X22140Y347898D01*
X22280Y347892D01*
X22420Y347882D01*
X22560Y347869D01*
X22699Y347851D01*
X22838Y347829D01*
X22975Y347804D01*
X23113Y347775D01*
X23249Y347742D01*
X23384Y347705D01*
X23518Y347664D01*
X23651Y347619D01*
X23783Y347571D01*
X23913Y347519D01*
X24042Y347464D01*
X24169Y347405D01*
X24295Y347342D01*
X24419Y347276D01*
X24540Y347207D01*
X24660Y347134D01*
X24778Y347057D01*
X24893Y346978D01*
X25007Y346895D01*
X25117Y346809D01*
X25226Y346720D01*
X25332Y346628D01*
X25435Y346533D01*
X25536Y346436D01*
X25633Y346335D01*
X25728Y346232D01*
X25820Y346126D01*
X25909Y346017D01*
X25995Y345907D01*
X26078Y345793D01*
X26157Y345678D01*
X26234Y345560D01*
X26307Y345440D01*
X26376Y345319D01*
X26442Y345195D01*
X26505Y345069D01*
X26564Y344942D01*
X26619Y344813D01*
X26671Y344683D01*
X26719Y344551D01*
X26764Y344418D01*
X26805Y344284D01*
X26842Y344149D01*
X26875Y344013D01*
X26904Y343875D01*
X26929Y343738D01*
X26951Y343599D01*
X26969Y343460D01*
X26982Y343320D01*
X26992Y343180D01*
X26998Y343040D01*
X27000Y342900D01*
X26998Y342760D01*
X26992Y342620D01*
X26982Y342480D01*
X26969Y342340D01*
X26951Y342201D01*
X26929Y342062D01*
X26904Y341925D01*
X26875Y341787D01*
X26842Y341651D01*
X26805Y341516D01*
X26764Y341382D01*
X26719Y341249D01*
X26671Y341117D01*
X26619Y340987D01*
X26564Y340858D01*
X26505Y340731D01*
X26442Y340605D01*
X26376Y340481D01*
X26307Y340360D01*
X26234Y340240D01*
X26157Y340122D01*
X26078Y340007D01*
X25995Y339893D01*
X25909Y339783D01*
X25820Y339674D01*
X25728Y339568D01*
X25633Y339465D01*
X25536Y339364D01*
X25435Y339267D01*
X25332Y339172D01*
X25226Y339080D01*
X25117Y338991D01*
X25007Y338905D01*
X24893Y338822D01*
X24778Y338743D01*
X24660Y338666D01*
X24540Y338593D01*
X24419Y338524D01*
X24295Y338458D01*
X24169Y338395D01*
X24042Y338336D01*
X23913Y338281D01*
X23783Y338229D01*
X23651Y338181D01*
X23518Y338136D01*
X23384Y338095D01*
X23249Y338058D01*
X23113Y338025D01*
X22975Y337996D01*
X22838Y337971D01*
X22699Y337949D01*
X22560Y337931D01*
X22420Y337918D01*
X22280Y337908D01*
X22140Y337902D01*
X22000Y337900D01*
X22000Y322500D02*
X22140Y322498D01*
X22280Y322492D01*
X22420Y322482D01*
X22560Y322469D01*
X22699Y322451D01*
X22838Y322429D01*
X22975Y322404D01*
X23113Y322375D01*
X23249Y322342D01*
X23384Y322305D01*
X23518Y322264D01*
X23651Y322219D01*
X23783Y322171D01*
X23913Y322119D01*
X24042Y322064D01*
X24169Y322005D01*
X24295Y321942D01*
X24419Y321876D01*
X24540Y321807D01*
X24660Y321734D01*
X24778Y321657D01*
X24893Y321578D01*
X25007Y321495D01*
X25117Y321409D01*
X25226Y321320D01*
X25332Y321228D01*
X25435Y321133D01*
X25536Y321036D01*
X25633Y320935D01*
X25728Y320832D01*
X25820Y320726D01*
X25909Y320617D01*
X25995Y320507D01*
X26078Y320393D01*
X26157Y320278D01*
X26234Y320160D01*
X26307Y320040D01*
X26376Y319919D01*
X26442Y319795D01*
X26505Y319669D01*
X26564Y319542D01*
X26619Y319413D01*
X26671Y319283D01*
X26719Y319151D01*
X26764Y319018D01*
X26805Y318884D01*
X26842Y318749D01*
X26875Y318613D01*
X26904Y318475D01*
X26929Y318338D01*
X26951Y318199D01*
X26969Y318060D01*
X26982Y317920D01*
X26992Y317780D01*
X26998Y317640D01*
X27000Y317500D01*
X26998Y317360D01*
X26992Y317220D01*
X26982Y317080D01*
X26969Y316940D01*
X26951Y316801D01*
X26929Y316662D01*
X26904Y316525D01*
X26875Y316387D01*
X26842Y316251D01*
X26805Y316116D01*
X26764Y315982D01*
X26719Y315849D01*
X26671Y315717D01*
X26619Y315587D01*
X26564Y315458D01*
X26505Y315331D01*
X26442Y315205D01*
X26376Y315081D01*
X26307Y314960D01*
X26234Y314840D01*
X26157Y314722D01*
X26078Y314607D01*
X25995Y314493D01*
X25909Y314383D01*
X25820Y314274D01*
X25728Y314168D01*
X25633Y314065D01*
X25536Y313964D01*
X25435Y313867D01*
X25332Y313772D01*
X25226Y313680D01*
X25117Y313591D01*
X25007Y313505D01*
X24893Y313422D01*
X24778Y313343D01*
X24660Y313266D01*
X24540Y313193D01*
X24419Y313124D01*
X24295Y313058D01*
X24169Y312995D01*
X24042Y312936D01*
X23913Y312881D01*
X23783Y312829D01*
X23651Y312781D01*
X23518Y312736D01*
X23384Y312695D01*
X23249Y312658D01*
X23113Y312625D01*
X22975Y312596D01*
X22838Y312571D01*
X22699Y312549D01*
X22560Y312531D01*
X22420Y312518D01*
X22280Y312508D01*
X22140Y312502D01*
X22000Y312500D01*
X22000Y297100D02*
X22140Y297098D01*
X22280Y297092D01*
X22420Y297082D01*
X22560Y297069D01*
X22699Y297051D01*
X22838Y297029D01*
X22975Y297004D01*
X23113Y296975D01*
X23249Y296942D01*
X23384Y296905D01*
X23518Y296864D01*
X23651Y296819D01*
X23783Y296771D01*
X23913Y296719D01*
X24042Y296664D01*
X24169Y296605D01*
X24295Y296542D01*
X24419Y296476D01*
X24540Y296407D01*
X24660Y296334D01*
X24778Y296257D01*
X24893Y296178D01*
X25007Y296095D01*
X25117Y296009D01*
X25226Y295920D01*
X25332Y295828D01*
X25435Y295733D01*
X25536Y295636D01*
X25633Y295535D01*
X25728Y295432D01*
X25820Y295326D01*
X25909Y295217D01*
X25995Y295107D01*
X26078Y294993D01*
X26157Y294878D01*
X26234Y294760D01*
X26307Y294640D01*
X26376Y294519D01*
X26442Y294395D01*
X26505Y294269D01*
X26564Y294142D01*
X26619Y294013D01*
X26671Y293883D01*
X26719Y293751D01*
X26764Y293618D01*
X26805Y293484D01*
X26842Y293349D01*
X26875Y293213D01*
X26904Y293075D01*
X26929Y292938D01*
X26951Y292799D01*
X26969Y292660D01*
X26982Y292520D01*
X26992Y292380D01*
X26998Y292240D01*
X27000Y292100D01*
X26998Y291960D01*
X26992Y291820D01*
X26982Y291680D01*
X26969Y291540D01*
X26951Y291401D01*
X26929Y291262D01*
X26904Y291125D01*
X26875Y290987D01*
X26842Y290851D01*
X26805Y290716D01*
X26764Y290582D01*
X26719Y290449D01*
X26671Y290317D01*
X26619Y290187D01*
X26564Y290058D01*
X26505Y289931D01*
X26442Y289805D01*
X26376Y289681D01*
X26307Y289560D01*
X26234Y289440D01*
X26157Y289322D01*
X26078Y289207D01*
X25995Y289093D01*
X25909Y288983D01*
X25820Y288874D01*
X25728Y288768D01*
X25633Y288665D01*
X25536Y288564D01*
X25435Y288467D01*
X25332Y288372D01*
X25226Y288280D01*
X25117Y288191D01*
X25007Y288105D01*
X24893Y288022D01*
X24778Y287943D01*
X24660Y287866D01*
X24540Y287793D01*
X24419Y287724D01*
X24295Y287658D01*
X24169Y287595D01*
X24042Y287536D01*
X23913Y287481D01*
X23783Y287429D01*
X23651Y287381D01*
X23518Y287336D01*
X23384Y287295D01*
X23249Y287258D01*
X23113Y287225D01*
X22975Y287196D01*
X22838Y287171D01*
X22699Y287149D01*
X22560Y287131D01*
X22420Y287118D01*
X22280Y287108D01*
X22140Y287102D01*
X22000Y287100D01*
X22000Y271700D02*
X22140Y271698D01*
X22280Y271692D01*
X22420Y271682D01*
X22560Y271669D01*
X22699Y271651D01*
X22838Y271629D01*
X22975Y271604D01*
X23113Y271575D01*
X23249Y271542D01*
X23384Y271505D01*
X23518Y271464D01*
X23651Y271419D01*
X23783Y271371D01*
X23913Y271319D01*
X24042Y271264D01*
X24169Y271205D01*
X24295Y271142D01*
X24419Y271076D01*
X24540Y271007D01*
X24660Y270934D01*
X24778Y270857D01*
X24893Y270778D01*
X25007Y270695D01*
X25117Y270609D01*
X25226Y270520D01*
X25332Y270428D01*
X25435Y270333D01*
X25536Y270236D01*
X25633Y270135D01*
X25728Y270032D01*
X25820Y269926D01*
X25909Y269817D01*
X25995Y269707D01*
X26078Y269593D01*
X26157Y269478D01*
X26234Y269360D01*
X26307Y269240D01*
X26376Y269119D01*
X26442Y268995D01*
X26505Y268869D01*
X26564Y268742D01*
X26619Y268613D01*
X26671Y268483D01*
X26719Y268351D01*
X26764Y268218D01*
X26805Y268084D01*
X26842Y267949D01*
X26875Y267813D01*
X26904Y267675D01*
X26929Y267538D01*
X26951Y267399D01*
X26969Y267260D01*
X26982Y267120D01*
X26992Y266980D01*
X26998Y266840D01*
X27000Y266700D01*
X26998Y266560D01*
X26992Y266420D01*
X26982Y266280D01*
X26969Y266140D01*
X26951Y266001D01*
X26929Y265862D01*
X26904Y265725D01*
X26875Y265587D01*
X26842Y265451D01*
X26805Y265316D01*
X26764Y265182D01*
X26719Y265049D01*
X26671Y264917D01*
X26619Y264787D01*
X26564Y264658D01*
X26505Y264531D01*
X26442Y264405D01*
X26376Y264281D01*
X26307Y264160D01*
X26234Y264040D01*
X26157Y263922D01*
X26078Y263807D01*
X25995Y263693D01*
X25909Y263583D01*
X25820Y263474D01*
X25728Y263368D01*
X25633Y263265D01*
X25536Y263164D01*
X25435Y263067D01*
X25332Y262972D01*
X25226Y262880D01*
X25117Y262791D01*
X25007Y262705D01*
X24893Y262622D01*
X24778Y262543D01*
X24660Y262466D01*
X24540Y262393D01*
X24419Y262324D01*
X24295Y262258D01*
X24169Y262195D01*
X24042Y262136D01*
X23913Y262081D01*
X23783Y262029D01*
X23651Y261981D01*
X23518Y261936D01*
X23384Y261895D01*
X23249Y261858D01*
X23113Y261825D01*
X22975Y261796D01*
X22838Y261771D01*
X22699Y261749D01*
X22560Y261731D01*
X22420Y261718D01*
X22280Y261708D01*
X22140Y261702D01*
X22000Y261700D01*
X22000Y246300D02*
X22140Y246298D01*
X22280Y246292D01*
X22420Y246282D01*
X22560Y246269D01*
X22699Y246251D01*
X22838Y246229D01*
X22975Y246204D01*
X23113Y246175D01*
X23249Y246142D01*
X23384Y246105D01*
X23518Y246064D01*
X23651Y246019D01*
X23783Y245971D01*
X23913Y245919D01*
X24042Y245864D01*
X24169Y245805D01*
X24295Y245742D01*
X24419Y245676D01*
X24540Y245607D01*
X24660Y245534D01*
X24778Y245457D01*
X24893Y245378D01*
X25007Y245295D01*
X25117Y245209D01*
X25226Y245120D01*
X25332Y245028D01*
X25435Y244933D01*
X25536Y244836D01*
X25633Y244735D01*
X25728Y244632D01*
X25820Y244526D01*
X25909Y244417D01*
X25995Y244307D01*
X26078Y244193D01*
X26157Y244078D01*
X26234Y243960D01*
X26307Y243840D01*
X26376Y243719D01*
X26442Y243595D01*
X26505Y243469D01*
X26564Y243342D01*
X26619Y243213D01*
X26671Y243083D01*
X26719Y242951D01*
X26764Y242818D01*
X26805Y242684D01*
X26842Y242549D01*
X26875Y242413D01*
X26904Y242275D01*
X26929Y242138D01*
X26951Y241999D01*
X26969Y241860D01*
X26982Y241720D01*
X26992Y241580D01*
X26998Y241440D01*
X27000Y241300D01*
X26998Y241160D01*
X26992Y241020D01*
X26982Y240880D01*
X26969Y240740D01*
X26951Y240601D01*
X26929Y240462D01*
X26904Y240325D01*
X26875Y240187D01*
X26842Y240051D01*
X26805Y239916D01*
X26764Y239782D01*
X26719Y239649D01*
X26671Y239517D01*
X26619Y239387D01*
X26564Y239258D01*
X26505Y239131D01*
X26442Y239005D01*
X26376Y238881D01*
X26307Y238760D01*
X26234Y238640D01*
X26157Y238522D01*
X26078Y238407D01*
X25995Y238293D01*
X25909Y238183D01*
X25820Y238074D01*
X25728Y237968D01*
X25633Y237865D01*
X25536Y237764D01*
X25435Y237667D01*
X25332Y237572D01*
X25226Y237480D01*
X25117Y237391D01*
X25007Y237305D01*
X24893Y237222D01*
X24778Y237143D01*
X24660Y237066D01*
X24540Y236993D01*
X24419Y236924D01*
X24295Y236858D01*
X24169Y236795D01*
X24042Y236736D01*
X23913Y236681D01*
X23783Y236629D01*
X23651Y236581D01*
X23518Y236536D01*
X23384Y236495D01*
X23249Y236458D01*
X23113Y236425D01*
X22975Y236396D01*
X22838Y236371D01*
X22699Y236349D01*
X22560Y236331D01*
X22420Y236318D01*
X22280Y236308D01*
X22140Y236302D01*
X22000Y236300D01*
X22000Y220900D02*
X22140Y220898D01*
X22280Y220892D01*
X22420Y220882D01*
X22560Y220869D01*
X22699Y220851D01*
X22838Y220829D01*
X22975Y220804D01*
X23113Y220775D01*
X23249Y220742D01*
X23384Y220705D01*
X23518Y220664D01*
X23651Y220619D01*
X23783Y220571D01*
X23913Y220519D01*
X24042Y220464D01*
X24169Y220405D01*
X24295Y220342D01*
X24419Y220276D01*
X24540Y220207D01*
X24660Y220134D01*
X24778Y220057D01*
X24893Y219978D01*
X25007Y219895D01*
X25117Y219809D01*
X25226Y219720D01*
X25332Y219628D01*
X25435Y219533D01*
X25536Y219436D01*
X25633Y219335D01*
X25728Y219232D01*
X25820Y219126D01*
X25909Y219017D01*
X25995Y218907D01*
X26078Y218793D01*
X26157Y218678D01*
X26234Y218560D01*
X26307Y218440D01*
X26376Y218319D01*
X26442Y218195D01*
X26505Y218069D01*
X26564Y217942D01*
X26619Y217813D01*
X26671Y217683D01*
X26719Y217551D01*
X26764Y217418D01*
X26805Y217284D01*
X26842Y217149D01*
X26875Y217013D01*
X26904Y216875D01*
X26929Y216738D01*
X26951Y216599D01*
X26969Y216460D01*
X26982Y216320D01*
X26992Y216180D01*
X26998Y216040D01*
X27000Y215900D01*
X26998Y215760D01*
X26992Y215620D01*
X26982Y215480D01*
X26969Y215340D01*
X26951Y215201D01*
X26929Y215062D01*
X26904Y214925D01*
X26875Y214787D01*
X26842Y214651D01*
X26805Y214516D01*
X26764Y214382D01*
X26719Y214249D01*
X26671Y214117D01*
X26619Y213987D01*
X26564Y213858D01*
X26505Y213731D01*
X26442Y213605D01*
X26376Y213481D01*
X26307Y213360D01*
X26234Y213240D01*
X26157Y213122D01*
X26078Y213007D01*
X25995Y212893D01*
X25909Y212783D01*
X25820Y212674D01*
X25728Y212568D01*
X25633Y212465D01*
X25536Y212364D01*
X25435Y212267D01*
X25332Y212172D01*
X25226Y212080D01*
X25117Y211991D01*
X25007Y211905D01*
X24893Y211822D01*
X24778Y211743D01*
X24660Y211666D01*
X24540Y211593D01*
X24419Y211524D01*
X24295Y211458D01*
X24169Y211395D01*
X24042Y211336D01*
X23913Y211281D01*
X23783Y211229D01*
X23651Y211181D01*
X23518Y211136D01*
X23384Y211095D01*
X23249Y211058D01*
X23113Y211025D01*
X22975Y210996D01*
X22838Y210971D01*
X22699Y210949D01*
X22560Y210931D01*
X22420Y210918D01*
X22280Y210908D01*
X22140Y210902D01*
X22000Y210900D01*
X22000Y195500D02*
X22140Y195498D01*
X22280Y195492D01*
X22420Y195482D01*
X22560Y195469D01*
X22699Y195451D01*
X22838Y195429D01*
X22975Y195404D01*
X23113Y195375D01*
X23249Y195342D01*
X23384Y195305D01*
X23518Y195264D01*
X23651Y195219D01*
X23783Y195171D01*
X23913Y195119D01*
X24042Y195064D01*
X24169Y195005D01*
X24295Y194942D01*
X24419Y194876D01*
X24540Y194807D01*
X24660Y194734D01*
X24778Y194657D01*
X24893Y194578D01*
X25007Y194495D01*
X25117Y194409D01*
X25226Y194320D01*
X25332Y194228D01*
X25435Y194133D01*
X25536Y194036D01*
X25633Y193935D01*
X25728Y193832D01*
X25820Y193726D01*
X25909Y193617D01*
X25995Y193507D01*
X26078Y193393D01*
X26157Y193278D01*
X26234Y193160D01*
X26307Y193040D01*
X26376Y192919D01*
X26442Y192795D01*
X26505Y192669D01*
X26564Y192542D01*
X26619Y192413D01*
X26671Y192283D01*
X26719Y192151D01*
X26764Y192018D01*
X26805Y191884D01*
X26842Y191749D01*
X26875Y191613D01*
X26904Y191475D01*
X26929Y191338D01*
X26951Y191199D01*
X26969Y191060D01*
X26982Y190920D01*
X26992Y190780D01*
X26998Y190640D01*
X27000Y190500D01*
X26998Y190360D01*
X26992Y190220D01*
X26982Y190080D01*
X26969Y189940D01*
X26951Y189801D01*
X26929Y189662D01*
X26904Y189525D01*
X26875Y189387D01*
X26842Y189251D01*
X26805Y189116D01*
X26764Y188982D01*
X26719Y188849D01*
X26671Y188717D01*
X26619Y188587D01*
X26564Y188458D01*
X26505Y188331D01*
X26442Y188205D01*
X26376Y188081D01*
X26307Y187960D01*
X26234Y187840D01*
X26157Y187722D01*
X26078Y187607D01*
X25995Y187493D01*
X25909Y187383D01*
X25820Y187274D01*
X25728Y187168D01*
X25633Y187065D01*
X25536Y186964D01*
X25435Y186867D01*
X25332Y186772D01*
X25226Y186680D01*
X25117Y186591D01*
X25007Y186505D01*
X24893Y186422D01*
X24778Y186343D01*
X24660Y186266D01*
X24540Y186193D01*
X24419Y186124D01*
X24295Y186058D01*
X24169Y185995D01*
X24042Y185936D01*
X23913Y185881D01*
X23783Y185829D01*
X23651Y185781D01*
X23518Y185736D01*
X23384Y185695D01*
X23249Y185658D01*
X23113Y185625D01*
X22975Y185596D01*
X22838Y185571D01*
X22699Y185549D01*
X22560Y185531D01*
X22420Y185518D01*
X22280Y185508D01*
X22140Y185502D01*
X22000Y185500D01*
X232000Y185500D02*
X231860Y185502D01*
X231720Y185508D01*
X231580Y185518D01*
X231440Y185531D01*
X231301Y185549D01*
X231162Y185571D01*
X231025Y185596D01*
X230887Y185625D01*
X230751Y185658D01*
X230616Y185695D01*
X230482Y185736D01*
X230349Y185781D01*
X230217Y185829D01*
X230087Y185881D01*
X229958Y185936D01*
X229831Y185995D01*
X229705Y186058D01*
X229581Y186124D01*
X229460Y186193D01*
X229340Y186266D01*
X229222Y186343D01*
X229107Y186422D01*
X228993Y186505D01*
X228883Y186591D01*
X228774Y186680D01*
X228668Y186772D01*
X228565Y186867D01*
X228464Y186964D01*
X228367Y187065D01*
X228272Y187168D01*
X228180Y187274D01*
X228091Y187383D01*
X228005Y187493D01*
X227922Y187607D01*
X227843Y187722D01*
X227766Y187840D01*
X227693Y187960D01*
X227624Y188081D01*
X227558Y188205D01*
X227495Y188331D01*
X227436Y188458D01*
X227381Y188587D01*
X227329Y188717D01*
X227281Y188849D01*
X227236Y188982D01*
X227195Y189116D01*
X227158Y189251D01*
X227125Y189387D01*
X227096Y189525D01*
X227071Y189662D01*
X227049Y189801D01*
X227031Y189940D01*
X227018Y190080D01*
X227008Y190220D01*
X227002Y190360D01*
X227000Y190500D01*
X227002Y190640D01*
X227008Y190780D01*
X227018Y190920D01*
X227031Y191060D01*
X227049Y191199D01*
X227071Y191338D01*
X227096Y191475D01*
X227125Y191613D01*
X227158Y191749D01*
X227195Y191884D01*
X227236Y192018D01*
X227281Y192151D01*
X227329Y192283D01*
X227381Y192413D01*
X227436Y192542D01*
X227495Y192669D01*
X227558Y192795D01*
X227624Y192919D01*
X227693Y193040D01*
X227766Y193160D01*
X227843Y193278D01*
X227922Y193393D01*
X228005Y193507D01*
X228091Y193617D01*
X228180Y193726D01*
X228272Y193832D01*
X228367Y193935D01*
X228464Y194036D01*
X228565Y194133D01*
X228668Y194228D01*
X228774Y194320D01*
X228883Y194409D01*
X228993Y194495D01*
X229107Y194578D01*
X229222Y194657D01*
X229340Y194734D01*
X229460Y194807D01*
X229581Y194876D01*
X229705Y194942D01*
X229831Y195005D01*
X229958Y195064D01*
X230087Y195119D01*
X230217Y195171D01*
X230349Y195219D01*
X230482Y195264D01*
X230616Y195305D01*
X230751Y195342D01*
X230887Y195375D01*
X231025Y195404D01*
X231162Y195429D01*
X231301Y195451D01*
X231440Y195469D01*
X231580Y195482D01*
X231720Y195492D01*
X231860Y195498D01*
X232000Y195500D01*
X232000Y210900D02*
X231860Y210902D01*
X231720Y210908D01*
X231580Y210918D01*
X231440Y210931D01*
X231301Y210949D01*
X231162Y210971D01*
X231025Y210996D01*
X230887Y211025D01*
X230751Y211058D01*
X230616Y211095D01*
X230482Y211136D01*
X230349Y211181D01*
X230217Y211229D01*
X230087Y211281D01*
X229958Y211336D01*
X229831Y211395D01*
X229705Y211458D01*
X229581Y211524D01*
X229460Y211593D01*
X229340Y211666D01*
X229222Y211743D01*
X229107Y211822D01*
X228993Y211905D01*
X228883Y211991D01*
X228774Y212080D01*
X228668Y212172D01*
X228565Y212267D01*
X228464Y212364D01*
X228367Y212465D01*
X228272Y212568D01*
X228180Y212674D01*
X228091Y212783D01*
X228005Y212893D01*
X227922Y213007D01*
X227843Y213122D01*
X227766Y213240D01*
X227693Y213360D01*
X227624Y213481D01*
X227558Y213605D01*
X227495Y213731D01*
X227436Y213858D01*
X227381Y213987D01*
X227329Y214117D01*
X227281Y214249D01*
X227236Y214382D01*
X227195Y214516D01*
X227158Y214651D01*
X227125Y214787D01*
X227096Y214925D01*
X227071Y215062D01*
X227049Y215201D01*
X227031Y215340D01*
X227018Y215480D01*
X227008Y215620D01*
X227002Y215760D01*
X227000Y215900D01*
X227002Y216040D01*
X227008Y216180D01*
X227018Y216320D01*
X227031Y216460D01*
X227049Y216599D01*
X227071Y216738D01*
X227096Y216875D01*
X227125Y217013D01*
X227158Y217149D01*
X227195Y217284D01*
X227236Y217418D01*
X227281Y217551D01*
X227329Y217683D01*
X227381Y217813D01*
X227436Y217942D01*
X227495Y218069D01*
X227558Y218195D01*
X227624Y218319D01*
X227693Y218440D01*
X227766Y218560D01*
X227843Y218678D01*
X227922Y218793D01*
X228005Y218907D01*
X228091Y219017D01*
X228180Y219126D01*
X228272Y219232D01*
X228367Y219335D01*
X228464Y219436D01*
X228565Y219533D01*
X228668Y219628D01*
X228774Y219720D01*
X228883Y219809D01*
X228993Y219895D01*
X229107Y219978D01*
X229222Y220057D01*
X229340Y220134D01*
X229460Y220207D01*
X229581Y220276D01*
X229705Y220342D01*
X229831Y220405D01*
X229958Y220464D01*
X230087Y220519D01*
X230217Y220571D01*
X230349Y220619D01*
X230482Y220664D01*
X230616Y220705D01*
X230751Y220742D01*
X230887Y220775D01*
X231025Y220804D01*
X231162Y220829D01*
X231301Y220851D01*
X231440Y220869D01*
X231580Y220882D01*
X231720Y220892D01*
X231860Y220898D01*
X232000Y220900D01*
X232000Y236300D02*
X231860Y236302D01*
X231720Y236308D01*
X231580Y236318D01*
X231440Y236331D01*
X231301Y236349D01*
X231162Y236371D01*
X231025Y236396D01*
X230887Y236425D01*
X230751Y236458D01*
X230616Y236495D01*
X230482Y236536D01*
X230349Y236581D01*
X230217Y236629D01*
X230087Y236681D01*
X229958Y236736D01*
X229831Y236795D01*
X229705Y236858D01*
X229581Y236924D01*
X229460Y236993D01*
X229340Y237066D01*
X229222Y237143D01*
X229107Y237222D01*
X228993Y237305D01*
X228883Y237391D01*
X228774Y237480D01*
X228668Y237572D01*
X228565Y237667D01*
X228464Y237764D01*
X228367Y237865D01*
X228272Y237968D01*
X228180Y238074D01*
X228091Y238183D01*
X228005Y238293D01*
X227922Y238407D01*
X227843Y238522D01*
X227766Y238640D01*
X227693Y238760D01*
X227624Y238881D01*
X227558Y239005D01*
X227495Y239131D01*
X227436Y239258D01*
X227381Y239387D01*
X227329Y239517D01*
X227281Y239649D01*
X227236Y239782D01*
X227195Y239916D01*
X227158Y240051D01*
X227125Y240187D01*
X227096Y240325D01*
X227071Y240462D01*
X227049Y240601D01*
X227031Y240740D01*
X227018Y240880D01*
X227008Y241020D01*
X227002Y241160D01*
X227000Y241300D01*
X227002Y241440D01*
X227008Y241580D01*
X227018Y241720D01*
X227031Y241860D01*
X227049Y241999D01*
X227071Y242138D01*
X227096Y242275D01*
X227125Y242413D01*
X227158Y242549D01*
X227195Y242684D01*
X227236Y242818D01*
X227281Y242951D01*
X227329Y243083D01*
X227381Y243213D01*
X227436Y243342D01*
X227495Y243469D01*
X227558Y243595D01*
X227624Y243719D01*
X227693Y243840D01*
X227766Y243960D01*
X227843Y244078D01*
X227922Y244193D01*
X228005Y244307D01*
X228091Y244417D01*
X228180Y244526D01*
X228272Y244632D01*
X228367Y244735D01*
X228464Y244836D01*
X228565Y244933D01*
X228668Y245028D01*
X228774Y245120D01*
X228883Y245209D01*
X228993Y245295D01*
X229107Y245378D01*
X229222Y245457D01*
X229340Y245534D01*
X229460Y245607D01*
X229581Y245676D01*
X229705Y245742D01*
X229831Y245805D01*
X229958Y245864D01*
X230087Y245919D01*
X230217Y245971D01*
X230349Y246019D01*
X230482Y246064D01*
X230616Y246105D01*
X230751Y246142D01*
X230887Y246175D01*
X231025Y246204D01*
X231162Y246229D01*
X231301Y246251D01*
X231440Y246269D01*
X231580Y246282D01*
X231720Y246292D01*
X231860Y246298D01*
X232000Y246300D01*
X232000Y261700D02*
X231860Y261702D01*
X231720Y261708D01*
X231580Y261718D01*
X231440Y261731D01*
X231301Y261749D01*
X231162Y261771D01*
X231025Y261796D01*
X230887Y261825D01*
X230751Y261858D01*
X230616Y261895D01*
X230482Y261936D01*
X230349Y261981D01*
X230217Y262029D01*
X230087Y262081D01*
X229958Y262136D01*
X229831Y262195D01*
X229705Y262258D01*
X229581Y262324D01*
X229460Y262393D01*
X229340Y262466D01*
X229222Y262543D01*
X229107Y262622D01*
X228993Y262705D01*
X228883Y262791D01*
X228774Y262880D01*
X228668Y262972D01*
X228565Y263067D01*
X228464Y263164D01*
X228367Y263265D01*
X228272Y263368D01*
X228180Y263474D01*
X228091Y263583D01*
X228005Y263693D01*
X227922Y263807D01*
X227843Y263922D01*
X227766Y264040D01*
X227693Y264160D01*
X227624Y264281D01*
X227558Y264405D01*
X227495Y264531D01*
X227436Y264658D01*
X227381Y264787D01*
X227329Y264917D01*
X227281Y265049D01*
X227236Y265182D01*
X227195Y265316D01*
X227158Y265451D01*
X227125Y265587D01*
X227096Y265725D01*
X227071Y265862D01*
X227049Y266001D01*
X227031Y266140D01*
X227018Y266280D01*
X227008Y266420D01*
X227002Y266560D01*
X227000Y266700D01*
X227002Y266840D01*
X227008Y266980D01*
X227018Y267120D01*
X227031Y267260D01*
X227049Y267399D01*
X227071Y267538D01*
X227096Y267675D01*
X227125Y267813D01*
X227158Y267949D01*
X227195Y268084D01*
X227236Y268218D01*
X227281Y268351D01*
X227329Y268483D01*
X227381Y268613D01*
X227436Y268742D01*
X227495Y268869D01*
X227558Y268995D01*
X227624Y269119D01*
X227693Y269240D01*
X227766Y269360D01*
X227843Y269478D01*
X227922Y269593D01*
X228005Y269707D01*
X228091Y269817D01*
X228180Y269926D01*
X228272Y270032D01*
X228367Y270135D01*
X228464Y270236D01*
X228565Y270333D01*
X228668Y270428D01*
X228774Y270520D01*
X228883Y270609D01*
X228993Y270695D01*
X229107Y270778D01*
X229222Y270857D01*
X229340Y270934D01*
X229460Y271007D01*
X229581Y271076D01*
X229705Y271142D01*
X229831Y271205D01*
X229958Y271264D01*
X230087Y271319D01*
X230217Y271371D01*
X230349Y271419D01*
X230482Y271464D01*
X230616Y271505D01*
X230751Y271542D01*
X230887Y271575D01*
X231025Y271604D01*
X231162Y271629D01*
X231301Y271651D01*
X231440Y271669D01*
X231580Y271682D01*
X231720Y271692D01*
X231860Y271698D01*
X232000Y271700D01*
X232000Y287100D02*
X231860Y287102D01*
X231720Y287108D01*
X231580Y287118D01*
X231440Y287131D01*
X231301Y287149D01*
X231162Y287171D01*
X231025Y287196D01*
X230887Y287225D01*
X230751Y287258D01*
X230616Y287295D01*
X230482Y287336D01*
X230349Y287381D01*
X230217Y287429D01*
X230087Y287481D01*
X229958Y287536D01*
X229831Y287595D01*
X229705Y287658D01*
X229581Y287724D01*
X229460Y287793D01*
X229340Y287866D01*
X229222Y287943D01*
X229107Y288022D01*
X228993Y288105D01*
X228883Y288191D01*
X228774Y288280D01*
X228668Y288372D01*
X228565Y288467D01*
X228464Y288564D01*
X228367Y288665D01*
X228272Y288768D01*
X228180Y288874D01*
X228091Y288983D01*
X228005Y289093D01*
X227922Y289207D01*
X227843Y289322D01*
X227766Y289440D01*
X227693Y289560D01*
X227624Y289681D01*
X227558Y289805D01*
X227495Y289931D01*
X227436Y290058D01*
X227381Y290187D01*
X227329Y290317D01*
X227281Y290449D01*
X227236Y290582D01*
X227195Y290716D01*
X227158Y290851D01*
X227125Y290987D01*
X227096Y291125D01*
X227071Y291262D01*
X227049Y291401D01*
X227031Y291540D01*
X227018Y291680D01*
X227008Y291820D01*
X227002Y291960D01*
X227000Y292100D01*
X227002Y292240D01*
X227008Y292380D01*
X227018Y292520D01*
X227031Y292660D01*
X227049Y292799D01*
X227071Y292938D01*
X227096Y293075D01*
X227125Y293213D01*
X227158Y293349D01*
X227195Y293484D01*
X227236Y293618D01*
X227281Y293751D01*
X227329Y293883D01*
X227381Y294013D01*
X227436Y294142D01*
X227495Y294269D01*
X227558Y294395D01*
X227624Y294519D01*
X227693Y294640D01*
X227766Y294760D01*
X227843Y294878D01*
X227922Y294993D01*
X228005Y295107D01*
X228091Y295217D01*
X228180Y295326D01*
X228272Y295432D01*
X228367Y295535D01*
X228464Y295636D01*
X228565Y295733D01*
X228668Y295828D01*
X228774Y295920D01*
X228883Y296009D01*
X228993Y296095D01*
X229107Y296178D01*
X229222Y296257D01*
X229340Y296334D01*
X229460Y296407D01*
X229581Y296476D01*
X229705Y296542D01*
X229831Y296605D01*
X229958Y296664D01*
X230087Y296719D01*
X230217Y296771D01*
X230349Y296819D01*
X230482Y296864D01*
X230616Y296905D01*
X230751Y296942D01*
X230887Y296975D01*
X231025Y297004D01*
X231162Y297029D01*
X231301Y297051D01*
X231440Y297069D01*
X231580Y297082D01*
X231720Y297092D01*
X231860Y297098D01*
X232000Y297100D01*
X232000Y312500D02*
X231860Y312502D01*
X231720Y312508D01*
X231580Y312518D01*
X231440Y312531D01*
X231301Y312549D01*
X231162Y312571D01*
X231025Y312596D01*
X230887Y312625D01*
X230751Y312658D01*
X230616Y312695D01*
X230482Y312736D01*
X230349Y312781D01*
X230217Y312829D01*
X230087Y312881D01*
X229958Y312936D01*
X229831Y312995D01*
X229705Y313058D01*
X229581Y313124D01*
X229460Y313193D01*
X229340Y313266D01*
X229222Y313343D01*
X229107Y313422D01*
X228993Y313505D01*
X228883Y313591D01*
X228774Y313680D01*
X228668Y313772D01*
X228565Y313867D01*
X228464Y313964D01*
X228367Y314065D01*
X228272Y314168D01*
X228180Y314274D01*
X228091Y314383D01*
X228005Y314493D01*
X227922Y314607D01*
X227843Y314722D01*
X227766Y314840D01*
X227693Y314960D01*
X227624Y315081D01*
X227558Y315205D01*
X227495Y315331D01*
X227436Y315458D01*
X227381Y315587D01*
X227329Y315717D01*
X227281Y315849D01*
X227236Y315982D01*
X227195Y316116D01*
X227158Y316251D01*
X227125Y316387D01*
X227096Y316525D01*
X227071Y316662D01*
X227049Y316801D01*
X227031Y316940D01*
X227018Y317080D01*
X227008Y317220D01*
X227002Y317360D01*
X227000Y317500D01*
X227002Y317640D01*
X227008Y317780D01*
X227018Y317920D01*
X227031Y318060D01*
X227049Y318199D01*
X227071Y318338D01*
X227096Y318475D01*
X227125Y318613D01*
X227158Y318749D01*
X227195Y318884D01*
X227236Y319018D01*
X227281Y319151D01*
X227329Y319283D01*
X227381Y319413D01*
X227436Y319542D01*
X227495Y319669D01*
X227558Y319795D01*
X227624Y319919D01*
X227693Y320040D01*
X227766Y320160D01*
X227843Y320278D01*
X227922Y320393D01*
X228005Y320507D01*
X228091Y320617D01*
X228180Y320726D01*
X228272Y320832D01*
X228367Y320935D01*
X228464Y321036D01*
X228565Y321133D01*
X228668Y321228D01*
X228774Y321320D01*
X228883Y321409D01*
X228993Y321495D01*
X229107Y321578D01*
X229222Y321657D01*
X229340Y321734D01*
X229460Y321807D01*
X229581Y321876D01*
X229705Y321942D01*
X229831Y322005D01*
X229958Y322064D01*
X230087Y322119D01*
X230217Y322171D01*
X230349Y322219D01*
X230482Y322264D01*
X230616Y322305D01*
X230751Y322342D01*
X230887Y322375D01*
X231025Y322404D01*
X231162Y322429D01*
X231301Y322451D01*
X231440Y322469D01*
X231580Y322482D01*
X231720Y322492D01*
X231860Y322498D01*
X232000Y322500D01*
X232000Y337900D02*
X231860Y337902D01*
X231720Y337908D01*
X231580Y337918D01*
X231440Y337931D01*
X231301Y337949D01*
X231162Y337971D01*
X231025Y337996D01*
X230887Y338025D01*
X230751Y338058D01*
X230616Y338095D01*
X230482Y338136D01*
X230349Y338181D01*
X230217Y338229D01*
X230087Y338281D01*
X229958Y338336D01*
X229831Y338395D01*
X229705Y338458D01*
X229581Y338524D01*
X229460Y338593D01*
X229340Y338666D01*
X229222Y338743D01*
X229107Y338822D01*
X228993Y338905D01*
X228883Y338991D01*
X228774Y339080D01*
X228668Y339172D01*
X228565Y339267D01*
X228464Y339364D01*
X228367Y339465D01*
X228272Y339568D01*
X228180Y339674D01*
X228091Y339783D01*
X228005Y339893D01*
X227922Y340007D01*
X227843Y340122D01*
X227766Y340240D01*
X227693Y340360D01*
X227624Y340481D01*
X227558Y340605D01*
X227495Y340731D01*
X227436Y340858D01*
X227381Y340987D01*
X227329Y341117D01*
X227281Y341249D01*
X227236Y341382D01*
X227195Y341516D01*
X227158Y341651D01*
X227125Y341787D01*
X227096Y341925D01*
X227071Y342062D01*
X227049Y342201D01*
X227031Y342340D01*
X227018Y342480D01*
X227008Y342620D01*
X227002Y342760D01*
X227000Y342900D01*
X227002Y343040D01*
X227008Y343180D01*
X227018Y343320D01*
X227031Y343460D01*
X227049Y343599D01*
X227071Y343738D01*
X227096Y343875D01*
X227125Y344013D01*
X227158Y344149D01*
X227195Y344284D01*
X227236Y344418D01*
X227281Y344551D01*
X227329Y344683D01*
X227381Y344813D01*
X227436Y344942D01*
X227495Y345069D01*
X227558Y345195D01*
X227624Y345319D01*
X227693Y345440D01*
X227766Y345560D01*
X227843Y345678D01*
X227922Y345793D01*
X228005Y345907D01*
X228091Y346017D01*
X228180Y346126D01*
X228272Y346232D01*
X228367Y346335D01*
X228464Y346436D01*
X228565Y346533D01*
X228668Y346628D01*
X228774Y346720D01*
X228883Y346809D01*
X228993Y346895D01*
X229107Y346978D01*
X229222Y347057D01*
X229340Y347134D01*
X229460Y347207D01*
X229581Y347276D01*
X229705Y347342D01*
X229831Y347405D01*
X229958Y347464D01*
X230087Y347519D01*
X230217Y347571D01*
X230349Y347619D01*
X230482Y347664D01*
X230616Y347705D01*
X230751Y347742D01*
X230887Y347775D01*
X231025Y347804D01*
X231162Y347829D01*
X231301Y347851D01*
X231440Y347869D01*
X231580Y347882D01*
X231720Y347892D01*
X231860Y347898D01*
X232000Y347900D01*
X232000Y363300D02*
X231860Y363302D01*
X231720Y363308D01*
X231580Y363318D01*
X231440Y363331D01*
X231301Y363349D01*
X231162Y363371D01*
X231025Y363396D01*
X230887Y363425D01*
X230751Y363458D01*
X230616Y363495D01*
X230482Y363536D01*
X230349Y363581D01*
X230217Y363629D01*
X230087Y363681D01*
X229958Y363736D01*
X229831Y363795D01*
X229705Y363858D01*
X229581Y363924D01*
X229460Y363993D01*
X229340Y364066D01*
X229222Y364143D01*
X229107Y364222D01*
X228993Y364305D01*
X228883Y364391D01*
X228774Y364480D01*
X228668Y364572D01*
X228565Y364667D01*
X228464Y364764D01*
X228367Y364865D01*
X228272Y364968D01*
X228180Y365074D01*
X228091Y365183D01*
X228005Y365293D01*
X227922Y365407D01*
X227843Y365522D01*
X227766Y365640D01*
X227693Y365760D01*
X227624Y365881D01*
X227558Y366005D01*
X227495Y366131D01*
X227436Y366258D01*
X227381Y366387D01*
X227329Y366517D01*
X227281Y366649D01*
X227236Y366782D01*
X227195Y366916D01*
X227158Y367051D01*
X227125Y367187D01*
X227096Y367325D01*
X227071Y367462D01*
X227049Y367601D01*
X227031Y367740D01*
X227018Y367880D01*
X227008Y368020D01*
X227002Y368160D01*
X227000Y368300D01*
X227002Y368440D01*
X227008Y368580D01*
X227018Y368720D01*
X227031Y368860D01*
X227049Y368999D01*
X227071Y369138D01*
X227096Y369275D01*
X227125Y369413D01*
X227158Y369549D01*
X227195Y369684D01*
X227236Y369818D01*
X227281Y369951D01*
X227329Y370083D01*
X227381Y370213D01*
X227436Y370342D01*
X227495Y370469D01*
X227558Y370595D01*
X227624Y370719D01*
X227693Y370840D01*
X227766Y370960D01*
X227843Y371078D01*
X227922Y371193D01*
X228005Y371307D01*
X228091Y371417D01*
X228180Y371526D01*
X228272Y371632D01*
X228367Y371735D01*
X228464Y371836D01*
X228565Y371933D01*
X228668Y372028D01*
X228774Y372120D01*
X228883Y372209D01*
X228993Y372295D01*
X229107Y372378D01*
X229222Y372457D01*
X229340Y372534D01*
X229460Y372607D01*
X229581Y372676D01*
X229705Y372742D01*
X229831Y372805D01*
X229958Y372864D01*
X230087Y372919D01*
X230217Y372971D01*
X230349Y373019D01*
X230482Y373064D01*
X230616Y373105D01*
X230751Y373142D01*
X230887Y373175D01*
X231025Y373204D01*
X231162Y373229D01*
X231301Y373251D01*
X231440Y373269D01*
X231580Y373282D01*
X231720Y373292D01*
X231860Y373298D01*
X232000Y373300D01*
X232000Y388700D02*
X231860Y388702D01*
X231720Y388708D01*
X231580Y388718D01*
X231440Y388731D01*
X231301Y388749D01*
X231162Y388771D01*
X231025Y388796D01*
X230887Y388825D01*
X230751Y388858D01*
X230616Y388895D01*
X230482Y388936D01*
X230349Y388981D01*
X230217Y389029D01*
X230087Y389081D01*
X229958Y389136D01*
X229831Y389195D01*
X229705Y389258D01*
X229581Y389324D01*
X229460Y389393D01*
X229340Y389466D01*
X229222Y389543D01*
X229107Y389622D01*
X228993Y389705D01*
X228883Y389791D01*
X228774Y389880D01*
X228668Y389972D01*
X228565Y390067D01*
X228464Y390164D01*
X228367Y390265D01*
X228272Y390368D01*
X228180Y390474D01*
X228091Y390583D01*
X228005Y390693D01*
X227922Y390807D01*
X227843Y390922D01*
X227766Y391040D01*
X227693Y391160D01*
X227624Y391281D01*
X227558Y391405D01*
X227495Y391531D01*
X227436Y391658D01*
X227381Y391787D01*
X227329Y391917D01*
X227281Y392049D01*
X227236Y392182D01*
X227195Y392316D01*
X227158Y392451D01*
X227125Y392587D01*
X227096Y392725D01*
X227071Y392862D01*
X227049Y393001D01*
X227031Y393140D01*
X227018Y393280D01*
X227008Y393420D01*
X227002Y393560D01*
X227000Y393700D01*
X227002Y393840D01*
X227008Y393980D01*
X227018Y394120D01*
X227031Y394260D01*
X227049Y394399D01*
X227071Y394538D01*
X227096Y394675D01*
X227125Y394813D01*
X227158Y394949D01*
X227195Y395084D01*
X227236Y395218D01*
X227281Y395351D01*
X227329Y395483D01*
X227381Y395613D01*
X227436Y395742D01*
X227495Y395869D01*
X227558Y395995D01*
X227624Y396119D01*
X227693Y396240D01*
X227766Y396360D01*
X227843Y396478D01*
X227922Y396593D01*
X228005Y396707D01*
X228091Y396817D01*
X228180Y396926D01*
X228272Y397032D01*
X228367Y397135D01*
X228464Y397236D01*
X228565Y397333D01*
X228668Y397428D01*
X228774Y397520D01*
X228883Y397609D01*
X228993Y397695D01*
X229107Y397778D01*
X229222Y397857D01*
X229340Y397934D01*
X229460Y398007D01*
X229581Y398076D01*
X229705Y398142D01*
X229831Y398205D01*
X229958Y398264D01*
X230087Y398319D01*
X230217Y398371D01*
X230349Y398419D01*
X230482Y398464D01*
X230616Y398505D01*
X230751Y398542D01*
X230887Y398575D01*
X231025Y398604D01*
X231162Y398629D01*
X231301Y398651D01*
X231440Y398669D01*
X231580Y398682D01*
X231720Y398692D01*
X231860Y398698D01*
X232000Y398700D01*
X232000Y414100D02*
X231860Y414102D01*
X231720Y414108D01*
X231580Y414118D01*
X231440Y414131D01*
X231301Y414149D01*
X231162Y414171D01*
X231025Y414196D01*
X230887Y414225D01*
X230751Y414258D01*
X230616Y414295D01*
X230482Y414336D01*
X230349Y414381D01*
X230217Y414429D01*
X230087Y414481D01*
X229958Y414536D01*
X229831Y414595D01*
X229705Y414658D01*
X229581Y414724D01*
X229460Y414793D01*
X229340Y414866D01*
X229222Y414943D01*
X229107Y415022D01*
X228993Y415105D01*
X228883Y415191D01*
X228774Y415280D01*
X228668Y415372D01*
X228565Y415467D01*
X228464Y415564D01*
X228367Y415665D01*
X228272Y415768D01*
X228180Y415874D01*
X228091Y415983D01*
X228005Y416093D01*
X227922Y416207D01*
X227843Y416322D01*
X227766Y416440D01*
X227693Y416560D01*
X227624Y416681D01*
X227558Y416805D01*
X227495Y416931D01*
X227436Y417058D01*
X227381Y417187D01*
X227329Y417317D01*
X227281Y417449D01*
X227236Y417582D01*
X227195Y417716D01*
X227158Y417851D01*
X227125Y417987D01*
X227096Y418125D01*
X227071Y418262D01*
X227049Y418401D01*
X227031Y418540D01*
X227018Y418680D01*
X227008Y418820D01*
X227002Y418960D01*
X227000Y419100D01*
X227002Y419240D01*
X227008Y419380D01*
X227018Y419520D01*
X227031Y419660D01*
X227049Y419799D01*
X227071Y419938D01*
X227096Y420075D01*
X227125Y420213D01*
X227158Y420349D01*
X227195Y420484D01*
X227236Y420618D01*
X227281Y420751D01*
X227329Y420883D01*
X227381Y421013D01*
X227436Y421142D01*
X227495Y421269D01*
X227558Y421395D01*
X227624Y421519D01*
X227693Y421640D01*
X227766Y421760D01*
X227843Y421878D01*
X227922Y421993D01*
X228005Y422107D01*
X228091Y422217D01*
X228180Y422326D01*
X228272Y422432D01*
X228367Y422535D01*
X228464Y422636D01*
X228565Y422733D01*
X228668Y422828D01*
X228774Y422920D01*
X228883Y423009D01*
X228993Y423095D01*
X229107Y423178D01*
X229222Y423257D01*
X229340Y423334D01*
X229460Y423407D01*
X229581Y423476D01*
X229705Y423542D01*
X229831Y423605D01*
X229958Y423664D01*
X230087Y423719D01*
X230217Y423771D01*
X230349Y423819D01*
X230482Y423864D01*
X230616Y423905D01*
X230751Y423942D01*
X230887Y423975D01*
X231025Y424004D01*
X231162Y424029D01*
X231301Y424051D01*
X231440Y424069D01*
X231580Y424082D01*
X231720Y424092D01*
X231860Y424098D01*
X232000Y424100D01*
X232000Y439500D02*
X231860Y439502D01*
X231720Y439508D01*
X231580Y439518D01*
X231440Y439531D01*
X231301Y439549D01*
X231162Y439571D01*
X231025Y439596D01*
X230887Y439625D01*
X230751Y439658D01*
X230616Y439695D01*
X230482Y439736D01*
X230349Y439781D01*
X230217Y439829D01*
X230087Y439881D01*
X229958Y439936D01*
X229831Y439995D01*
X229705Y440058D01*
X229581Y440124D01*
X229460Y440193D01*
X229340Y440266D01*
X229222Y440343D01*
X229107Y440422D01*
X228993Y440505D01*
X228883Y440591D01*
X228774Y440680D01*
X228668Y440772D01*
X228565Y440867D01*
X228464Y440964D01*
X228367Y441065D01*
X228272Y441168D01*
X228180Y441274D01*
X228091Y441383D01*
X228005Y441493D01*
X227922Y441607D01*
X227843Y441722D01*
X227766Y441840D01*
X227693Y441960D01*
X227624Y442081D01*
X227558Y442205D01*
X227495Y442331D01*
X227436Y442458D01*
X227381Y442587D01*
X227329Y442717D01*
X227281Y442849D01*
X227236Y442982D01*
X227195Y443116D01*
X227158Y443251D01*
X227125Y443387D01*
X227096Y443525D01*
X227071Y443662D01*
X227049Y443801D01*
X227031Y443940D01*
X227018Y444080D01*
X227008Y444220D01*
X227002Y444360D01*
X227000Y444500D01*
X227002Y444640D01*
X227008Y444780D01*
X227018Y444920D01*
X227031Y445060D01*
X227049Y445199D01*
X227071Y445338D01*
X227096Y445475D01*
X227125Y445613D01*
X227158Y445749D01*
X227195Y445884D01*
X227236Y446018D01*
X227281Y446151D01*
X227329Y446283D01*
X227381Y446413D01*
X227436Y446542D01*
X227495Y446669D01*
X227558Y446795D01*
X227624Y446919D01*
X227693Y447040D01*
X227766Y447160D01*
X227843Y447278D01*
X227922Y447393D01*
X228005Y447507D01*
X228091Y447617D01*
X228180Y447726D01*
X228272Y447832D01*
X228367Y447935D01*
X228464Y448036D01*
X228565Y448133D01*
X228668Y448228D01*
X228774Y448320D01*
X228883Y448409D01*
X228993Y448495D01*
X229107Y448578D01*
X229222Y448657D01*
X229340Y448734D01*
X229460Y448807D01*
X229581Y448876D01*
X229705Y448942D01*
X229831Y449005D01*
X229958Y449064D01*
X230087Y449119D01*
X230217Y449171D01*
X230349Y449219D01*
X230482Y449264D01*
X230616Y449305D01*
X230751Y449342D01*
X230887Y449375D01*
X231025Y449404D01*
X231162Y449429D01*
X231301Y449451D01*
X231440Y449469D01*
X231580Y449482D01*
X231720Y449492D01*
X231860Y449498D01*
X232000Y449500D01*
X232000Y464900D02*
X231860Y464902D01*
X231720Y464908D01*
X231580Y464918D01*
X231440Y464931D01*
X231301Y464949D01*
X231162Y464971D01*
X231025Y464996D01*
X230887Y465025D01*
X230751Y465058D01*
X230616Y465095D01*
X230482Y465136D01*
X230349Y465181D01*
X230217Y465229D01*
X230087Y465281D01*
X229958Y465336D01*
X229831Y465395D01*
X229705Y465458D01*
X229581Y465524D01*
X229460Y465593D01*
X229340Y465666D01*
X229222Y465743D01*
X229107Y465822D01*
X228993Y465905D01*
X228883Y465991D01*
X228774Y466080D01*
X228668Y466172D01*
X228565Y466267D01*
X228464Y466364D01*
X228367Y466465D01*
X228272Y466568D01*
X228180Y466674D01*
X228091Y466783D01*
X228005Y466893D01*
X227922Y467007D01*
X227843Y467122D01*
X227766Y467240D01*
X227693Y467360D01*
X227624Y467481D01*
X227558Y467605D01*
X227495Y467731D01*
X227436Y467858D01*
X227381Y467987D01*
X227329Y468117D01*
X227281Y468249D01*
X227236Y468382D01*
X227195Y468516D01*
X227158Y468651D01*
X227125Y468787D01*
X227096Y468925D01*
X227071Y469062D01*
X227049Y469201D01*
X227031Y469340D01*
X227018Y469480D01*
X227008Y469620D01*
X227002Y469760D01*
X227000Y469900D01*
X227002Y470040D01*
X227008Y470180D01*
X227018Y470320D01*
X227031Y470460D01*
X227049Y470599D01*
X227071Y470738D01*
X227096Y470875D01*
X227125Y471013D01*
X227158Y471149D01*
X227195Y471284D01*
X227236Y471418D01*
X227281Y471551D01*
X227329Y471683D01*
X227381Y471813D01*
X227436Y471942D01*
X227495Y472069D01*
X227558Y472195D01*
X227624Y472319D01*
X227693Y472440D01*
X227766Y472560D01*
X227843Y472678D01*
X227922Y472793D01*
X228005Y472907D01*
X228091Y473017D01*
X228180Y473126D01*
X228272Y473232D01*
X228367Y473335D01*
X228464Y473436D01*
X228565Y473533D01*
X228668Y473628D01*
X228774Y473720D01*
X228883Y473809D01*
X228993Y473895D01*
X229107Y473978D01*
X229222Y474057D01*
X229340Y474134D01*
X229460Y474207D01*
X229581Y474276D01*
X229705Y474342D01*
X229831Y474405D01*
X229958Y474464D01*
X230087Y474519D01*
X230217Y474571D01*
X230349Y474619D01*
X230482Y474664D01*
X230616Y474705D01*
X230751Y474742D01*
X230887Y474775D01*
X231025Y474804D01*
X231162Y474829D01*
X231301Y474851D01*
X231440Y474869D01*
X231580Y474882D01*
X231720Y474892D01*
X231860Y474898D01*
X232000Y474900D01*
X232000Y490300D02*
X231860Y490302D01*
X231720Y490308D01*
X231580Y490318D01*
X231440Y490331D01*
X231301Y490349D01*
X231162Y490371D01*
X231025Y490396D01*
X230887Y490425D01*
X230751Y490458D01*
X230616Y490495D01*
X230482Y490536D01*
X230349Y490581D01*
X230217Y490629D01*
X230087Y490681D01*
X229958Y490736D01*
X229831Y490795D01*
X229705Y490858D01*
X229581Y490924D01*
X229460Y490993D01*
X229340Y491066D01*
X229222Y491143D01*
X229107Y491222D01*
X228993Y491305D01*
X228883Y491391D01*
X228774Y491480D01*
X228668Y491572D01*
X228565Y491667D01*
X228464Y491764D01*
X228367Y491865D01*
X228272Y491968D01*
X228180Y492074D01*
X228091Y492183D01*
X228005Y492293D01*
X227922Y492407D01*
X227843Y492522D01*
X227766Y492640D01*
X227693Y492760D01*
X227624Y492881D01*
X227558Y493005D01*
X227495Y493131D01*
X227436Y493258D01*
X227381Y493387D01*
X227329Y493517D01*
X227281Y493649D01*
X227236Y493782D01*
X227195Y493916D01*
X227158Y494051D01*
X227125Y494187D01*
X227096Y494325D01*
X227071Y494462D01*
X227049Y494601D01*
X227031Y494740D01*
X227018Y494880D01*
X227008Y495020D01*
X227002Y495160D01*
X227000Y495300D01*
X227002Y495440D01*
X227008Y495580D01*
X227018Y495720D01*
X227031Y495860D01*
X227049Y495999D01*
X227071Y496138D01*
X227096Y496275D01*
X227125Y496413D01*
X227158Y496549D01*
X227195Y496684D01*
X227236Y496818D01*
X227281Y496951D01*
X227329Y497083D01*
X227381Y497213D01*
X227436Y497342D01*
X227495Y497469D01*
X227558Y497595D01*
X227624Y497719D01*
X227693Y497840D01*
X227766Y497960D01*
X227843Y498078D01*
X227922Y498193D01*
X228005Y498307D01*
X228091Y498417D01*
X228180Y498526D01*
X228272Y498632D01*
X228367Y498735D01*
X228464Y498836D01*
X228565Y498933D01*
X228668Y499028D01*
X228774Y499120D01*
X228883Y499209D01*
X228993Y499295D01*
X229107Y499378D01*
X229222Y499457D01*
X229340Y499534D01*
X229460Y499607D01*
X229581Y499676D01*
X229705Y499742D01*
X229831Y499805D01*
X229958Y499864D01*
X230087Y499919D01*
X230217Y499971D01*
X230349Y500019D01*
X230482Y500064D01*
X230616Y500105D01*
X230751Y500142D01*
X230887Y500175D01*
X231025Y500204D01*
X231162Y500229D01*
X231301Y500251D01*
X231440Y500269D01*
X231580Y500282D01*
X231720Y500292D01*
X231860Y500298D01*
X232000Y500300D01*
X232000Y515700D02*
X231860Y515702D01*
X231720Y515708D01*
X231580Y515718D01*
X231440Y515731D01*
X231301Y515749D01*
X231162Y515771D01*
X231025Y515796D01*
X230887Y515825D01*
X230751Y515858D01*
X230616Y515895D01*
X230482Y515936D01*
X230349Y515981D01*
X230217Y516029D01*
X230087Y516081D01*
X229958Y516136D01*
X229831Y516195D01*
X229705Y516258D01*
X229581Y516324D01*
X229460Y516393D01*
X229340Y516466D01*
X229222Y516543D01*
X229107Y516622D01*
X228993Y516705D01*
X228883Y516791D01*
X228774Y516880D01*
X228668Y516972D01*
X228565Y517067D01*
X228464Y517164D01*
X228367Y517265D01*
X228272Y517368D01*
X228180Y517474D01*
X228091Y517583D01*
X228005Y517693D01*
X227922Y517807D01*
X227843Y517922D01*
X227766Y518040D01*
X227693Y518160D01*
X227624Y518281D01*
X227558Y518405D01*
X227495Y518531D01*
X227436Y518658D01*
X227381Y518787D01*
X227329Y518917D01*
X227281Y519049D01*
X227236Y519182D01*
X227195Y519316D01*
X227158Y519451D01*
X227125Y519587D01*
X227096Y519725D01*
X227071Y519862D01*
X227049Y520001D01*
X227031Y520140D01*
X227018Y520280D01*
X227008Y520420D01*
X227002Y520560D01*
X227000Y520700D01*
X227002Y520840D01*
X227008Y520980D01*
X227018Y521120D01*
X227031Y521260D01*
X227049Y521399D01*
X227071Y521538D01*
X227096Y521675D01*
X227125Y521813D01*
X227158Y521949D01*
X227195Y522084D01*
X227236Y522218D01*
X227281Y522351D01*
X227329Y522483D01*
X227381Y522613D01*
X227436Y522742D01*
X227495Y522869D01*
X227558Y522995D01*
X227624Y523119D01*
X227693Y523240D01*
X227766Y523360D01*
X227843Y523478D01*
X227922Y523593D01*
X228005Y523707D01*
X228091Y523817D01*
X228180Y523926D01*
X228272Y524032D01*
X228367Y524135D01*
X228464Y524236D01*
X228565Y524333D01*
X228668Y524428D01*
X228774Y524520D01*
X228883Y524609D01*
X228993Y524695D01*
X229107Y524778D01*
X229222Y524857D01*
X229340Y524934D01*
X229460Y525007D01*
X229581Y525076D01*
X229705Y525142D01*
X229831Y525205D01*
X229958Y525264D01*
X230087Y525319D01*
X230217Y525371D01*
X230349Y525419D01*
X230482Y525464D01*
X230616Y525505D01*
X230751Y525542D01*
X230887Y525575D01*
X231025Y525604D01*
X231162Y525629D01*
X231301Y525651D01*
X231440Y525669D01*
X231580Y525682D01*
X231720Y525692D01*
X231860Y525698D01*
X232000Y525700D01*
X232000Y541100D02*
X231860Y541102D01*
X231720Y541108D01*
X231580Y541118D01*
X231440Y541131D01*
X231301Y541149D01*
X231162Y541171D01*
X231025Y541196D01*
X230887Y541225D01*
X230751Y541258D01*
X230616Y541295D01*
X230482Y541336D01*
X230349Y541381D01*
X230217Y541429D01*
X230087Y541481D01*
X229958Y541536D01*
X229831Y541595D01*
X229705Y541658D01*
X229581Y541724D01*
X229460Y541793D01*
X229340Y541866D01*
X229222Y541943D01*
X229107Y542022D01*
X228993Y542105D01*
X228883Y542191D01*
X228774Y542280D01*
X228668Y542372D01*
X228565Y542467D01*
X228464Y542564D01*
X228367Y542665D01*
X228272Y542768D01*
X228180Y542874D01*
X228091Y542983D01*
X228005Y543093D01*
X227922Y543207D01*
X227843Y543322D01*
X227766Y543440D01*
X227693Y543560D01*
X227624Y543681D01*
X227558Y543805D01*
X227495Y543931D01*
X227436Y544058D01*
X227381Y544187D01*
X227329Y544317D01*
X227281Y544449D01*
X227236Y544582D01*
X227195Y544716D01*
X227158Y544851D01*
X227125Y544987D01*
X227096Y545125D01*
X227071Y545262D01*
X227049Y545401D01*
X227031Y545540D01*
X227018Y545680D01*
X227008Y545820D01*
X227002Y545960D01*
X227000Y546100D01*
X227002Y546240D01*
X227008Y546380D01*
X227018Y546520D01*
X227031Y546660D01*
X227049Y546799D01*
X227071Y546938D01*
X227096Y547075D01*
X227125Y547213D01*
X227158Y547349D01*
X227195Y547484D01*
X227236Y547618D01*
X227281Y547751D01*
X227329Y547883D01*
X227381Y548013D01*
X227436Y548142D01*
X227495Y548269D01*
X227558Y548395D01*
X227624Y548519D01*
X227693Y548640D01*
X227766Y548760D01*
X227843Y548878D01*
X227922Y548993D01*
X228005Y549107D01*
X228091Y549217D01*
X228180Y549326D01*
X228272Y549432D01*
X228367Y549535D01*
X228464Y549636D01*
X228565Y549733D01*
X228668Y549828D01*
X228774Y549920D01*
X228883Y550009D01*
X228993Y550095D01*
X229107Y550178D01*
X229222Y550257D01*
X229340Y550334D01*
X229460Y550407D01*
X229581Y550476D01*
X229705Y550542D01*
X229831Y550605D01*
X229958Y550664D01*
X230087Y550719D01*
X230217Y550771D01*
X230349Y550819D01*
X230482Y550864D01*
X230616Y550905D01*
X230751Y550942D01*
X230887Y550975D01*
X231025Y551004D01*
X231162Y551029D01*
X231301Y551051D01*
X231440Y551069D01*
X231580Y551082D01*
X231720Y551092D01*
X231860Y551098D01*
X232000Y551100D01*
X232000Y566500D02*
X231860Y566502D01*
X231720Y566508D01*
X231580Y566518D01*
X231440Y566531D01*
X231301Y566549D01*
X231162Y566571D01*
X231025Y566596D01*
X230887Y566625D01*
X230751Y566658D01*
X230616Y566695D01*
X230482Y566736D01*
X230349Y566781D01*
X230217Y566829D01*
X230087Y566881D01*
X229958Y566936D01*
X229831Y566995D01*
X229705Y567058D01*
X229581Y567124D01*
X229460Y567193D01*
X229340Y567266D01*
X229222Y567343D01*
X229107Y567422D01*
X228993Y567505D01*
X228883Y567591D01*
X228774Y567680D01*
X228668Y567772D01*
X228565Y567867D01*
X228464Y567964D01*
X228367Y568065D01*
X228272Y568168D01*
X228180Y568274D01*
X228091Y568383D01*
X228005Y568493D01*
X227922Y568607D01*
X227843Y568722D01*
X227766Y568840D01*
X227693Y568960D01*
X227624Y569081D01*
X227558Y569205D01*
X227495Y569331D01*
X227436Y569458D01*
X227381Y569587D01*
X227329Y569717D01*
X227281Y569849D01*
X227236Y569982D01*
X227195Y570116D01*
X227158Y570251D01*
X227125Y570387D01*
X227096Y570525D01*
X227071Y570662D01*
X227049Y570801D01*
X227031Y570940D01*
X227018Y571080D01*
X227008Y571220D01*
X227002Y571360D01*
X227000Y571500D01*
X227002Y571640D01*
X227008Y571780D01*
X227018Y571920D01*
X227031Y572060D01*
X227049Y572199D01*
X227071Y572338D01*
X227096Y572475D01*
X227125Y572613D01*
X227158Y572749D01*
X227195Y572884D01*
X227236Y573018D01*
X227281Y573151D01*
X227329Y573283D01*
X227381Y573413D01*
X227436Y573542D01*
X227495Y573669D01*
X227558Y573795D01*
X227624Y573919D01*
X227693Y574040D01*
X227766Y574160D01*
X227843Y574278D01*
X227922Y574393D01*
X228005Y574507D01*
X228091Y574617D01*
X228180Y574726D01*
X228272Y574832D01*
X228367Y574935D01*
X228464Y575036D01*
X228565Y575133D01*
X228668Y575228D01*
X228774Y575320D01*
X228883Y575409D01*
X228993Y575495D01*
X229107Y575578D01*
X229222Y575657D01*
X229340Y575734D01*
X229460Y575807D01*
X229581Y575876D01*
X229705Y575942D01*
X229831Y576005D01*
X229958Y576064D01*
X230087Y576119D01*
X230217Y576171D01*
X230349Y576219D01*
X230482Y576264D01*
X230616Y576305D01*
X230751Y576342D01*
X230887Y576375D01*
X231025Y576404D01*
X231162Y576429D01*
X231301Y576451D01*
X231440Y576469D01*
X231580Y576482D01*
X231720Y576492D01*
X231860Y576498D01*
X232000Y576500D01*
X232000Y591900D02*
X231860Y591902D01*
X231720Y591908D01*
X231580Y591918D01*
X231440Y591931D01*
X231301Y591949D01*
X231162Y591971D01*
X231025Y591996D01*
X230887Y592025D01*
X230751Y592058D01*
X230616Y592095D01*
X230482Y592136D01*
X230349Y592181D01*
X230217Y592229D01*
X230087Y592281D01*
X229958Y592336D01*
X229831Y592395D01*
X229705Y592458D01*
X229581Y592524D01*
X229460Y592593D01*
X229340Y592666D01*
X229222Y592743D01*
X229107Y592822D01*
X228993Y592905D01*
X228883Y592991D01*
X228774Y593080D01*
X228668Y593172D01*
X228565Y593267D01*
X228464Y593364D01*
X228367Y593465D01*
X228272Y593568D01*
X228180Y593674D01*
X228091Y593783D01*
X228005Y593893D01*
X227922Y594007D01*
X227843Y594122D01*
X227766Y594240D01*
X227693Y594360D01*
X227624Y594481D01*
X227558Y594605D01*
X227495Y594731D01*
X227436Y594858D01*
X227381Y594987D01*
X227329Y595117D01*
X227281Y595249D01*
X227236Y595382D01*
X227195Y595516D01*
X227158Y595651D01*
X227125Y595787D01*
X227096Y595925D01*
X227071Y596062D01*
X227049Y596201D01*
X227031Y596340D01*
X227018Y596480D01*
X227008Y596620D01*
X227002Y596760D01*
X227000Y596900D01*
X227002Y597040D01*
X227008Y597180D01*
X227018Y597320D01*
X227031Y597460D01*
X227049Y597599D01*
X227071Y597738D01*
X227096Y597875D01*
X227125Y598013D01*
X227158Y598149D01*
X227195Y598284D01*
X227236Y598418D01*
X227281Y598551D01*
X227329Y598683D01*
X227381Y598813D01*
X227436Y598942D01*
X227495Y599069D01*
X227558Y599195D01*
X227624Y599319D01*
X227693Y599440D01*
X227766Y599560D01*
X227843Y599678D01*
X227922Y599793D01*
X228005Y599907D01*
X228091Y600017D01*
X228180Y600126D01*
X228272Y600232D01*
X228367Y600335D01*
X228464Y600436D01*
X228565Y600533D01*
X228668Y600628D01*
X228774Y600720D01*
X228883Y600809D01*
X228993Y600895D01*
X229107Y600978D01*
X229222Y601057D01*
X229340Y601134D01*
X229460Y601207D01*
X229581Y601276D01*
X229705Y601342D01*
X229831Y601405D01*
X229958Y601464D01*
X230087Y601519D01*
X230217Y601571D01*
X230349Y601619D01*
X230482Y601664D01*
X230616Y601705D01*
X230751Y601742D01*
X230887Y601775D01*
X231025Y601804D01*
X231162Y601829D01*
X231301Y601851D01*
X231440Y601869D01*
X231580Y601882D01*
X231720Y601892D01*
X231860Y601898D01*
X232000Y601900D01*
X232000Y617300D02*
X231860Y617302D01*
X231720Y617308D01*
X231580Y617318D01*
X231440Y617331D01*
X231301Y617349D01*
X231162Y617371D01*
X231025Y617396D01*
X230887Y617425D01*
X230751Y617458D01*
X230616Y617495D01*
X230482Y617536D01*
X230349Y617581D01*
X230217Y617629D01*
X230087Y617681D01*
X229958Y617736D01*
X229831Y617795D01*
X229705Y617858D01*
X229581Y617924D01*
X229460Y617993D01*
X229340Y618066D01*
X229222Y618143D01*
X229107Y618222D01*
X228993Y618305D01*
X228883Y618391D01*
X228774Y618480D01*
X228668Y618572D01*
X228565Y618667D01*
X228464Y618764D01*
X228367Y618865D01*
X228272Y618968D01*
X228180Y619074D01*
X228091Y619183D01*
X228005Y619293D01*
X227922Y619407D01*
X227843Y619522D01*
X227766Y619640D01*
X227693Y619760D01*
X227624Y619881D01*
X227558Y620005D01*
X227495Y620131D01*
X227436Y620258D01*
X227381Y620387D01*
X227329Y620517D01*
X227281Y620649D01*
X227236Y620782D01*
X227195Y620916D01*
X227158Y621051D01*
X227125Y621187D01*
X227096Y621325D01*
X227071Y621462D01*
X227049Y621601D01*
X227031Y621740D01*
X227018Y621880D01*
X227008Y622020D01*
X227002Y622160D01*
X227000Y622300D01*
X227002Y622440D01*
X227008Y622580D01*
X227018Y622720D01*
X227031Y622860D01*
X227049Y622999D01*
X227071Y623138D01*
X227096Y623275D01*
X227125Y623413D01*
X227158Y623549D01*
X227195Y623684D01*
X227236Y623818D01*
X227281Y623951D01*
X227329Y624083D01*
X227381Y624213D01*
X227436Y624342D01*
X227495Y624469D01*
X227558Y624595D01*
X227624Y624719D01*
X227693Y624840D01*
X227766Y624960D01*
X227843Y625078D01*
X227922Y625193D01*
X228005Y625307D01*
X228091Y625417D01*
X228180Y625526D01*
X228272Y625632D01*
X228367Y625735D01*
X228464Y625836D01*
X228565Y625933D01*
X228668Y626028D01*
X228774Y626120D01*
X228883Y626209D01*
X228993Y626295D01*
X229107Y626378D01*
X229222Y626457D01*
X229340Y626534D01*
X229460Y626607D01*
X229581Y626676D01*
X229705Y626742D01*
X229831Y626805D01*
X229958Y626864D01*
X230087Y626919D01*
X230217Y626971D01*
X230349Y627019D01*
X230482Y627064D01*
X230616Y627105D01*
X230751Y627142D01*
X230887Y627175D01*
X231025Y627204D01*
X231162Y627229D01*
X231301Y627251D01*
X231440Y627269D01*
X231580Y627282D01*
X231720Y627292D01*
X231860Y627298D01*
X232000Y627300D01*
X232000Y642700D02*
X231860Y642702D01*
X231720Y642708D01*
X231580Y642718D01*
X231440Y642731D01*
X231301Y642749D01*
X231162Y642771D01*
X231025Y642796D01*
X230887Y642825D01*
X230751Y642858D01*
X230616Y642895D01*
X230482Y642936D01*
X230349Y642981D01*
X230217Y643029D01*
X230087Y643081D01*
X229958Y643136D01*
X229831Y643195D01*
X229705Y643258D01*
X229581Y643324D01*
X229460Y643393D01*
X229340Y643466D01*
X229222Y643543D01*
X229107Y643622D01*
X228993Y643705D01*
X228883Y643791D01*
X228774Y643880D01*
X228668Y643972D01*
X228565Y644067D01*
X228464Y644164D01*
X228367Y644265D01*
X228272Y644368D01*
X228180Y644474D01*
X228091Y644583D01*
X228005Y644693D01*
X227922Y644807D01*
X227843Y644922D01*
X227766Y645040D01*
X227693Y645160D01*
X227624Y645281D01*
X227558Y645405D01*
X227495Y645531D01*
X227436Y645658D01*
X227381Y645787D01*
X227329Y645917D01*
X227281Y646049D01*
X227236Y646182D01*
X227195Y646316D01*
X227158Y646451D01*
X227125Y646587D01*
X227096Y646725D01*
X227071Y646862D01*
X227049Y647001D01*
X227031Y647140D01*
X227018Y647280D01*
X227008Y647420D01*
X227002Y647560D01*
X227000Y647700D01*
X227002Y647840D01*
X227008Y647980D01*
X227018Y648120D01*
X227031Y648260D01*
X227049Y648399D01*
X227071Y648538D01*
X227096Y648675D01*
X227125Y648813D01*
X227158Y648949D01*
X227195Y649084D01*
X227236Y649218D01*
X227281Y649351D01*
X227329Y649483D01*
X227381Y649613D01*
X227436Y649742D01*
X227495Y649869D01*
X227558Y649995D01*
X227624Y650119D01*
X227693Y650240D01*
X227766Y650360D01*
X227843Y650478D01*
X227922Y650593D01*
X228005Y650707D01*
X228091Y650817D01*
X228180Y650926D01*
X228272Y651032D01*
X228367Y651135D01*
X228464Y651236D01*
X228565Y651333D01*
X228668Y651428D01*
X228774Y651520D01*
X228883Y651609D01*
X228993Y651695D01*
X229107Y651778D01*
X229222Y651857D01*
X229340Y651934D01*
X229460Y652007D01*
X229581Y652076D01*
X229705Y652142D01*
X229831Y652205D01*
X229958Y652264D01*
X230087Y652319D01*
X230217Y652371D01*
X230349Y652419D01*
X230482Y652464D01*
X230616Y652505D01*
X230751Y652542D01*
X230887Y652575D01*
X231025Y652604D01*
X231162Y652629D01*
X231301Y652651D01*
X231440Y652669D01*
X231580Y652682D01*
X231720Y652692D01*
X231860Y652698D01*
X232000Y652700D01*
X232000Y668100D02*
X231860Y668102D01*
X231720Y668108D01*
X231580Y668118D01*
X231440Y668131D01*
X231301Y668149D01*
X231162Y668171D01*
X231025Y668196D01*
X230887Y668225D01*
X230751Y668258D01*
X230616Y668295D01*
X230482Y668336D01*
X230349Y668381D01*
X230217Y668429D01*
X230087Y668481D01*
X229958Y668536D01*
X229831Y668595D01*
X229705Y668658D01*
X229581Y668724D01*
X229460Y668793D01*
X229340Y668866D01*
X229222Y668943D01*
X229107Y669022D01*
X228993Y669105D01*
X228883Y669191D01*
X228774Y669280D01*
X228668Y669372D01*
X228565Y669467D01*
X228464Y669564D01*
X228367Y669665D01*
X228272Y669768D01*
X228180Y669874D01*
X228091Y669983D01*
X228005Y670093D01*
X227922Y670207D01*
X227843Y670322D01*
X227766Y670440D01*
X227693Y670560D01*
X227624Y670681D01*
X227558Y670805D01*
X227495Y670931D01*
X227436Y671058D01*
X227381Y671187D01*
X227329Y671317D01*
X227281Y671449D01*
X227236Y671582D01*
X227195Y671716D01*
X227158Y671851D01*
X227125Y671987D01*
X227096Y672125D01*
X227071Y672262D01*
X227049Y672401D01*
X227031Y672540D01*
X227018Y672680D01*
X227008Y672820D01*
X227002Y672960D01*
X227000Y673100D01*
X227002Y673240D01*
X227008Y673380D01*
X227018Y673520D01*
X227031Y673660D01*
X227049Y673799D01*
X227071Y673938D01*
X227096Y674075D01*
X227125Y674213D01*
X227158Y674349D01*
X227195Y674484D01*
X227236Y674618D01*
X227281Y674751D01*
X227329Y674883D01*
X227381Y675013D01*
X227436Y675142D01*
X227495Y675269D01*
X227558Y675395D01*
X227624Y675519D01*
X227693Y675640D01*
X227766Y675760D01*
X227843Y675878D01*
X227922Y675993D01*
X228005Y676107D01*
X228091Y676217D01*
X228180Y676326D01*
X228272Y676432D01*
X228367Y676535D01*
X228464Y676636D01*
X228565Y676733D01*
X228668Y676828D01*
X228774Y676920D01*
X228883Y677009D01*
X228993Y677095D01*
X229107Y677178D01*
X229222Y677257D01*
X229340Y677334D01*
X229460Y677407D01*
X229581Y677476D01*
X229705Y677542D01*
X229831Y677605D01*
X229958Y677664D01*
X230087Y677719D01*
X230217Y677771D01*
X230349Y677819D01*
X230482Y677864D01*
X230616Y677905D01*
X230751Y677942D01*
X230887Y677975D01*
X231025Y678004D01*
X231162Y678029D01*
X231301Y678051D01*
X231440Y678069D01*
X231580Y678082D01*
X231720Y678092D01*
X231860Y678098D01*
X232000Y678100D01*
X132000Y176800D02*
X131998Y176940D01*
X131992Y177080D01*
X131982Y177220D01*
X131969Y177360D01*
X131951Y177499D01*
X131929Y177638D01*
X131904Y177775D01*
X131875Y177913D01*
X131842Y178049D01*
X131805Y178184D01*
X131764Y178318D01*
X131719Y178451D01*
X131671Y178583D01*
X131619Y178713D01*
X131564Y178842D01*
X131505Y178969D01*
X131442Y179095D01*
X131376Y179219D01*
X131307Y179340D01*
X131234Y179460D01*
X131157Y179578D01*
X131078Y179693D01*
X130995Y179807D01*
X130909Y179917D01*
X130820Y180026D01*
X130728Y180132D01*
X130633Y180235D01*
X130536Y180336D01*
X130435Y180433D01*
X130332Y180528D01*
X130226Y180620D01*
X130117Y180709D01*
X130007Y180795D01*
X129893Y180878D01*
X129778Y180957D01*
X129660Y181034D01*
X129540Y181107D01*
X129419Y181176D01*
X129295Y181242D01*
X129169Y181305D01*
X129042Y181364D01*
X128913Y181419D01*
X128783Y181471D01*
X128651Y181519D01*
X128518Y181564D01*
X128384Y181605D01*
X128249Y181642D01*
X128113Y181675D01*
X127975Y181704D01*
X127838Y181729D01*
X127699Y181751D01*
X127560Y181769D01*
X127420Y181782D01*
X127280Y181792D01*
X127140Y181798D01*
X127000Y181800D01*
X126860Y181798D01*
X126720Y181792D01*
X126580Y181782D01*
X126440Y181769D01*
X126301Y181751D01*
X126162Y181729D01*
X126025Y181704D01*
X125887Y181675D01*
X125751Y181642D01*
X125616Y181605D01*
X125482Y181564D01*
X125349Y181519D01*
X125217Y181471D01*
X125087Y181419D01*
X124958Y181364D01*
X124831Y181305D01*
X124705Y181242D01*
X124581Y181176D01*
X124460Y181107D01*
X124340Y181034D01*
X124222Y180957D01*
X124107Y180878D01*
X123993Y180795D01*
X123883Y180709D01*
X123774Y180620D01*
X123668Y180528D01*
X123565Y180433D01*
X123464Y180336D01*
X123367Y180235D01*
X123272Y180132D01*
X123180Y180026D01*
X123091Y179917D01*
X123005Y179807D01*
X122922Y179693D01*
X122843Y179578D01*
X122766Y179460D01*
X122693Y179340D01*
X122624Y179219D01*
X122558Y179095D01*
X122495Y178969D01*
X122436Y178842D01*
X122381Y178713D01*
X122329Y178583D01*
X122281Y178451D01*
X122236Y178318D01*
X122195Y178184D01*
X122158Y178049D01*
X122125Y177913D01*
X122096Y177775D01*
X122071Y177638D01*
X122049Y177499D01*
X122031Y177360D01*
X122018Y177220D01*
X122008Y177080D01*
X122002Y176940D01*
X122000Y176800D01*
X147400Y176800D02*
X147402Y176940D01*
X147408Y177080D01*
X147418Y177220D01*
X147431Y177360D01*
X147449Y177499D01*
X147471Y177638D01*
X147496Y177775D01*
X147525Y177913D01*
X147558Y178049D01*
X147595Y178184D01*
X147636Y178318D01*
X147681Y178451D01*
X147729Y178583D01*
X147781Y178713D01*
X147836Y178842D01*
X147895Y178969D01*
X147958Y179095D01*
X148024Y179219D01*
X148093Y179340D01*
X148166Y179460D01*
X148243Y179578D01*
X148322Y179693D01*
X148405Y179807D01*
X148491Y179917D01*
X148580Y180026D01*
X148672Y180132D01*
X148767Y180235D01*
X148864Y180336D01*
X148965Y180433D01*
X149068Y180528D01*
X149174Y180620D01*
X149283Y180709D01*
X149393Y180795D01*
X149507Y180878D01*
X149622Y180957D01*
X149740Y181034D01*
X149860Y181107D01*
X149981Y181176D01*
X150105Y181242D01*
X150231Y181305D01*
X150358Y181364D01*
X150487Y181419D01*
X150617Y181471D01*
X150749Y181519D01*
X150882Y181564D01*
X151016Y181605D01*
X151151Y181642D01*
X151287Y181675D01*
X151425Y181704D01*
X151562Y181729D01*
X151701Y181751D01*
X151840Y181769D01*
X151980Y181782D01*
X152120Y181792D01*
X152260Y181798D01*
X152400Y181800D01*
X152540Y181798D01*
X152680Y181792D01*
X152820Y181782D01*
X152960Y181769D01*
X153099Y181751D01*
X153238Y181729D01*
X153375Y181704D01*
X153513Y181675D01*
X153649Y181642D01*
X153784Y181605D01*
X153918Y181564D01*
X154051Y181519D01*
X154183Y181471D01*
X154313Y181419D01*
X154442Y181364D01*
X154569Y181305D01*
X154695Y181242D01*
X154819Y181176D01*
X154940Y181107D01*
X155060Y181034D01*
X155178Y180957D01*
X155293Y180878D01*
X155407Y180795D01*
X155517Y180709D01*
X155626Y180620D01*
X155732Y180528D01*
X155835Y180433D01*
X155936Y180336D01*
X156033Y180235D01*
X156128Y180132D01*
X156220Y180026D01*
X156309Y179917D01*
X156395Y179807D01*
X156478Y179693D01*
X156557Y179578D01*
X156634Y179460D01*
X156707Y179340D01*
X156776Y179219D01*
X156842Y179095D01*
X156905Y178969D01*
X156964Y178842D01*
X157019Y178713D01*
X157071Y178583D01*
X157119Y178451D01*
X157164Y178318D01*
X157205Y178184D01*
X157242Y178049D01*
X157275Y177913D01*
X157304Y177775D01*
X157329Y177638D01*
X157351Y177499D01*
X157369Y177360D01*
X157382Y177220D01*
X157392Y177080D01*
X157398Y176940D01*
X157400Y176800D01*
X106600Y176800D02*
X106598Y176940D01*
X106592Y177080D01*
X106582Y177220D01*
X106569Y177360D01*
X106551Y177499D01*
X106529Y177638D01*
X106504Y177775D01*
X106475Y177913D01*
X106442Y178049D01*
X106405Y178184D01*
X106364Y178318D01*
X106319Y178451D01*
X106271Y178583D01*
X106219Y178713D01*
X106164Y178842D01*
X106105Y178969D01*
X106042Y179095D01*
X105976Y179219D01*
X105907Y179340D01*
X105834Y179460D01*
X105757Y179578D01*
X105678Y179693D01*
X105595Y179807D01*
X105509Y179917D01*
X105420Y180026D01*
X105328Y180132D01*
X105233Y180235D01*
X105136Y180336D01*
X105035Y180433D01*
X104932Y180528D01*
X104826Y180620D01*
X104717Y180709D01*
X104607Y180795D01*
X104493Y180878D01*
X104378Y180957D01*
X104260Y181034D01*
X104140Y181107D01*
X104019Y181176D01*
X103895Y181242D01*
X103769Y181305D01*
X103642Y181364D01*
X103513Y181419D01*
X103383Y181471D01*
X103251Y181519D01*
X103118Y181564D01*
X102984Y181605D01*
X102849Y181642D01*
X102713Y181675D01*
X102575Y181704D01*
X102438Y181729D01*
X102299Y181751D01*
X102160Y181769D01*
X102020Y181782D01*
X101880Y181792D01*
X101740Y181798D01*
X101600Y181800D01*
X101460Y181798D01*
X101320Y181792D01*
X101180Y181782D01*
X101040Y181769D01*
X100901Y181751D01*
X100762Y181729D01*
X100625Y181704D01*
X100487Y181675D01*
X100351Y181642D01*
X100216Y181605D01*
X100082Y181564D01*
X99949Y181519D01*
X99817Y181471D01*
X99687Y181419D01*
X99558Y181364D01*
X99431Y181305D01*
X99305Y181242D01*
X99181Y181176D01*
X99060Y181107D01*
X98940Y181034D01*
X98822Y180957D01*
X98707Y180878D01*
X98593Y180795D01*
X98483Y180709D01*
X98374Y180620D01*
X98268Y180528D01*
X98165Y180433D01*
X98064Y180336D01*
X97967Y180235D01*
X97872Y180132D01*
X97780Y180026D01*
X97691Y179917D01*
X97605Y179807D01*
X97522Y179693D01*
X97443Y179578D01*
X97366Y179460D01*
X97293Y179340D01*
X97224Y179219D01*
X97158Y179095D01*
X97095Y178969D01*
X97036Y178842D01*
X96981Y178713D01*
X96929Y178583D01*
X96881Y178451D01*
X96836Y178318D01*
X96795Y178184D01*
X96758Y178049D01*
X96725Y177913D01*
X96696Y177775D01*
X96671Y177638D01*
X96649Y177499D01*
X96631Y177360D01*
X96618Y177220D01*
X96608Y177080D01*
X96602Y176940D01*
X96600Y176800D01*
D10*
X23622Y168162D02*
X23622Y154604D01*
X26334Y151892D01*
X31757Y151892D01*
X34469Y154604D01*
X34469Y168162D01*
X39994Y162739D02*
X45417Y168162D01*
X45417Y151892D01*
X39994Y151892D02*
X50840Y151892D01*
D12*
X497954Y656598D02*
X496047Y658505D01*
X492234Y658505D01*
X490327Y656598D01*
X490327Y648972D01*
X492234Y647065D01*
X496047Y647065D01*
X497954Y648972D01*
X502021Y658505D02*
X509648Y658505D01*
X509648Y656598D01*
X502021Y648972D01*
X502021Y647065D01*
M02*
