G04 EAGLE Gerber RS-274X export*
G75*
%MOMM*%
%FSLAX34Y34*%
%LPD*%
%INSolderpaste Top*%
%IPPOS*%
%AMOC8*
5,1,8,0,0,1.08239X$1,22.5*%
G01*
%ADD10R,1.800000X1.600000*%
%ADD11R,1.890000X0.650000*%
%ADD12R,1.000000X1.100000*%
%ADD13R,1.600000X1.800000*%


D10*
X368300Y595600D03*
X368300Y623600D03*
X381000Y382300D03*
X381000Y354300D03*
X355600Y509300D03*
X355600Y481300D03*
D11*
X435800Y603250D03*
X435800Y590550D03*
X435800Y577850D03*
X435800Y565150D03*
X435800Y552450D03*
X435800Y539750D03*
X435800Y527050D03*
X435800Y514350D03*
X435800Y501650D03*
X435800Y488950D03*
X435800Y476250D03*
X435800Y463550D03*
X435800Y450850D03*
X435800Y438150D03*
X529400Y438150D03*
X529400Y450850D03*
X529400Y463550D03*
X529400Y476250D03*
X529400Y488950D03*
X529400Y501650D03*
X529400Y514350D03*
X529400Y527050D03*
X529400Y539750D03*
X529400Y552450D03*
X529400Y565150D03*
X529400Y577850D03*
X529400Y590550D03*
X529400Y603250D03*
D12*
X482600Y351400D03*
X482600Y334400D03*
X469900Y135500D03*
X469900Y118500D03*
X723900Y313300D03*
X723900Y296300D03*
X584200Y351400D03*
X584200Y334400D03*
X368300Y135500D03*
X368300Y118500D03*
X685800Y135500D03*
X685800Y118500D03*
D13*
X509300Y673100D03*
X481300Y673100D03*
M02*
