G04 EAGLE Gerber RS-274X export*
G75*
%MOMM*%
%FSLAX34Y34*%
%LPD*%
%INSoldermask Bottom*%
%IPPOS*%
%AMOC8*
5,1,8,0,0,1.08239X$1,22.5*%
G01*
%ADD10P,1.803519X8X292.500000*%
%ADD11R,3.083200X3.083200*%
%ADD12C,2.032000*%
%ADD13R,3.353200X3.353200*%
%ADD14C,3.353200*%
%ADD15P,1.803519X8X202.500000*%
%ADD16C,2.003200*%
%ADD17C,1.703200*%
%ADD18C,0.705600*%
%ADD19C,0.805600*%


D10*
X609600Y596900D03*
X609600Y571500D03*
X622300Y546100D03*
X622300Y520700D03*
X647700Y495300D03*
X647700Y469900D03*
D11*
X774700Y571500D03*
X901700Y571500D03*
X774700Y419100D03*
X901700Y419100D03*
X774700Y495300D03*
X901700Y495300D03*
D12*
X533400Y727456D02*
X533400Y745744D01*
X558800Y745744D02*
X558800Y727456D01*
X609600Y727456D02*
X609600Y745744D01*
X635000Y745744D02*
X635000Y727456D01*
X685800Y727456D02*
X685800Y745744D01*
X711200Y745744D02*
X711200Y727456D01*
X736600Y727456D02*
X736600Y745744D01*
D13*
X771000Y264700D03*
D14*
X825500Y264700D03*
X880000Y264700D03*
D13*
X682100Y74200D03*
D14*
X736600Y74200D03*
X791100Y74200D03*
D13*
X466200Y74200D03*
D14*
X520700Y74200D03*
X575200Y74200D03*
D13*
X664100Y268700D03*
D14*
X609600Y268700D03*
X555100Y268700D03*
D13*
X473600Y268700D03*
D14*
X419100Y268700D03*
X364600Y268700D03*
D13*
X359300Y78200D03*
D14*
X304800Y78200D03*
X250300Y78200D03*
D15*
X469900Y736600D03*
X368300Y736600D03*
D10*
X330200Y736600D03*
X330200Y635000D03*
X914400Y749300D03*
X914400Y647700D03*
X850900Y749300D03*
X850900Y647700D03*
X787400Y749300D03*
X787400Y647700D03*
D16*
X38100Y673100D03*
X38100Y647700D03*
X38100Y520700D03*
X38100Y495300D03*
X38100Y622300D03*
X38100Y596900D03*
X38100Y546100D03*
X38100Y571500D03*
X38100Y469900D03*
X38100Y444500D03*
X38100Y419100D03*
X38100Y393700D03*
X38100Y368300D03*
X38100Y342900D03*
X38100Y317500D03*
X38100Y292100D03*
X38100Y266700D03*
X38100Y241300D03*
X38100Y215900D03*
X38100Y190500D03*
X215900Y190500D03*
X215900Y215900D03*
X215900Y241300D03*
X215900Y266700D03*
X215900Y292100D03*
X215900Y317500D03*
X215900Y342900D03*
X215900Y368300D03*
X215900Y393700D03*
X215900Y419100D03*
X215900Y444500D03*
X215900Y469900D03*
X215900Y495300D03*
X215900Y520700D03*
X215900Y546100D03*
X215900Y571500D03*
X215900Y596900D03*
X215900Y622300D03*
X215900Y647700D03*
X215900Y673100D03*
X99750Y671800D03*
X154250Y671800D03*
D17*
X102750Y641500D03*
X151250Y641500D03*
D16*
X101600Y192800D03*
X127000Y192800D03*
X152400Y192800D03*
D18*
X635000Y584200D03*
X635000Y622300D03*
X774700Y177800D03*
X800100Y177800D03*
X838200Y190500D03*
X863600Y190500D03*
X673100Y508000D03*
X304800Y241300D03*
X304800Y190500D03*
X482600Y406400D03*
X508000Y406400D03*
X749300Y152400D03*
X660400Y609600D03*
X457200Y165100D03*
X457200Y190500D03*
X571500Y508000D03*
X571500Y482600D03*
X791100Y123300D03*
X647700Y520700D03*
X660400Y546100D03*
X647700Y584200D03*
X571500Y26642D03*
X622300Y50800D03*
X584200Y406400D03*
X571500Y381000D03*
X520700Y215900D03*
X533400Y139700D03*
X723900Y711200D03*
X584200Y508000D03*
X609600Y495300D03*
X546100Y469900D03*
X584200Y585696D03*
X609600Y419100D03*
X546100Y431800D03*
X558896Y406304D03*
X723900Y203200D03*
X711200Y139700D03*
X558800Y534896D03*
X558800Y457200D03*
X508000Y190500D03*
X520700Y139700D03*
X584200Y431800D03*
X571500Y457200D03*
X647700Y533400D03*
X660400Y520700D03*
X342900Y571500D03*
X419100Y495300D03*
X292100Y482600D03*
X330200Y508000D03*
X546100Y444500D03*
X571500Y368300D03*
X419100Y444500D03*
X317500Y482600D03*
X304800Y495300D03*
X266700Y635000D03*
X381000Y304800D03*
D19*
X393700Y533400D03*
X406400Y596900D03*
D18*
X241300Y495300D03*
X368300Y406400D03*
X406400Y431800D03*
X324285Y482600D03*
X330200Y469900D03*
X419100Y596900D03*
X393700Y558800D03*
X584200Y711200D03*
X520700Y647700D03*
X685800Y508000D03*
X685800Y482600D03*
M02*
